<svg xmlns="http://www.w3.org/2000/svg" width="178.813" height="13.031" viewBox="0 0 178.813 13.031">
  <defs>
    <style>
      .cls-1 {
        fill: #555;
        fill-rule: evenodd;
      }
    </style>
  </defs>
  <path id="logo.svg" class="cls-1" d="M84.887,36.384h6c2.845,0,4.717-1.152,4.717-3.457V32.891a3.08,3.08,0,0,0-2.358-3.1A2.931,2.931,0,0,0,94.9,27.076V27.04a2.891,2.891,0,0,0-.864-2.142,4.55,4.55,0,0,0-3.295-1.116H84.887v12.6Zm7.256-8.84c0,0.936-.774,1.332-2,1.332H87.588V26.212h2.737c1.17,0,1.818.468,1.818,1.3v0.036Zm0.7,5.005v0.036c0,0.936-.738,1.368-1.962,1.368H87.588V31.181h3.2C92.215,31.181,92.845,31.7,92.845,32.549ZM97.7,36.384h2.827l1.152-2.827h5.329l1.152,2.827h2.9l-5.4-12.693H103.1Zm4.969-5.275,1.675-4.087,1.674,4.087h-3.349ZM113.9,36.384h2.737V28.372l6.1,8.012H125.1v-12.6h-2.737v7.76l-5.905-7.76H113.9v12.6Zm15.12,0h2.737V28.372l6.1,8.012h2.359v-12.6h-2.737v7.76l-5.905-7.76h-2.557v12.6Zm15.12,0h2.737V28.372l6.1,8.012h2.359v-12.6H152.6v7.76l-5.905-7.76h-2.557v12.6Zm15.12,0H162V28.372l6.1,8.012h2.359v-12.6h-2.737v7.76l-5.905-7.76h-2.557v12.6Zm15.12,0h2.737V28.372l6.1,8.012h2.359v-12.6h-2.737v7.76l-5.905-7.76h-2.557v12.6Zm15.12,0h9.6V33.917h-6.841V31.271H198.2V28.8h-5.941V26.248h6.751V23.781H189.5v12.6Zm12.96,0h2.773V32.351h2.178l2.7,4.033h3.241l-3.079-4.5a3.914,3.914,0,0,0,2.7-3.907V27.94a3.953,3.953,0,0,0-1.081-2.881,5.02,5.02,0,0,0-3.672-1.278h-5.762v12.6Zm2.773-6.481V26.284h2.755c1.35,0,2.178.612,2.178,1.8V28.12c0,1.062-.774,1.782-2.124,1.782h-2.809Zm11.735,6.481h1.657v-1.89h-1.657v1.89ZM228.529,36.6a6.385,6.385,0,0,0,6.445-6.517V30.047a6.428,6.428,0,1,0-12.855.036v0.036A6.326,6.326,0,0,0,228.529,36.6Zm0.036-1.314a5.01,5.01,0,0,1-4.969-5.2V30.047a4.951,4.951,0,0,1,4.933-5.167,5.011,5.011,0,0,1,4.969,5.2v0.036A4.951,4.951,0,0,1,228.565,35.286Zm10.312,1.1H240.3v-4.9h3.6l3.654,4.9H249.3l-3.871-5.149c1.98-.36,3.421-1.584,3.421-3.673V27.526a3.478,3.478,0,0,0-.973-2.485,4.967,4.967,0,0,0-3.582-1.26h-5.42v12.6Zm1.423-6.175V25.1h3.889c2.034,0,3.222.936,3.222,2.484v0.036c0,1.62-1.35,2.593-3.24,2.593H240.3ZM258.643,36.6a7.637,7.637,0,0,0,5.059-1.926V29.65h-5.2v1.278h3.835v3.133a5.938,5.938,0,0,1-3.637,1.26c-3.061,0-4.987-2.233-4.987-5.239V30.047a4.923,4.923,0,0,1,4.789-5.167,5.364,5.364,0,0,1,3.835,1.44l0.918-1.08a6.643,6.643,0,0,0-4.7-1.674,6.325,6.325,0,0,0-6.32,6.517v0.036A6.181,6.181,0,0,0,258.643,36.6Z" transform="translate(-84.875 -23.563)"/>
</svg>
