<?xml version="1.0" encoding="utf-8"?>
<!-- Generator: Adobe Illustrator 18.1.1, SVG Export Plug-In . SVG Version: 6.00 Build 0)  -->
<!DOCTYPE svg PUBLIC "-//W3C//DTD SVG 1.1//EN" "http://www.w3.org/Graphics/SVG/1.1/DTD/svg11.dtd">
<svg version="1.1" id="レイヤー_1" xmlns="http://www.w3.org/2000/svg" xmlns:xlink="http://www.w3.org/1999/xlink" x="0px"
	 y="0px" width="200px" height="30px" viewBox="0 0 200 30" enable-background="new 0 0 200 30" xml:space="preserve">
<g>
	<path fill="#FFFFFF" d="M2.5,15.1L2.5,15.1c0-8,5.9-14.6,14.2-14.6c5.1,0,8.1,1.8,10.9,4.4l-2.2,2.3c-2.4-2.2-5-3.8-8.8-3.8
		c-6.2,0-10.8,5-10.8,11.5V15c0,6.5,4.7,11.6,10.8,11.6c3.8,0,6.4-1.5,9-4l2.1,2c-2.9,3-6.1,4.9-11.2,4.9
		C8.5,29.5,2.5,23.1,2.5,15.1z"/>
	<path fill="#FFFFFF" d="M30.9,15.1L30.9,15.1c0-7.8,5.8-14.6,14.3-14.6s14.2,6.7,14.2,14.4V15c0,7.7-5.8,14.5-14.3,14.5
		S30.9,22.8,30.9,15.1z M56.2,15.1L56.2,15.1c0-6.4-4.6-11.6-11-11.6s-11,5.1-11,11.5V15c0,6.4,4.6,11.6,11,11.6
		S56.2,21.4,56.2,15.1z"/>
	<path fill="#FFFFFF" d="M66,1h3l17.6,22.4V1h3.1v28h-2.5L69,6v23H66V1z"/>
	<path fill="#FFFFFF" d="M104.3,3.9h-9.4V1h22v2.9h-9.4V29h-3.2V3.9z"/>
	<path fill="#FFFFFF" d="M128.7,0.8h3L144.4,29H141l-3.3-7.4h-15.2l-3.3,7.4H116L128.7,0.8z M136.5,18.7l-6.4-14.2l-6.4,14.2H136.5z
		"/>
	<path fill="#FFFFFF" d="M146.6,15.1L146.6,15.1c0-8,5.9-14.6,14.2-14.6c5.1,0,8.1,1.8,10.9,4.4l-2.2,2.3c-2.4-2.2-5-3.8-8.8-3.8
		c-6.2,0-10.8,5-10.8,11.5V15c0,6.5,4.7,11.6,10.8,11.6c3.8,0,6.4-1.5,9-4l2.1,2c-2.9,3-6.1,4.9-11.2,4.9
		C152.5,29.5,146.6,23.1,146.6,15.1z"/>
	<path fill="#FFFFFF" d="M184.9,3.9h-9.4V1h22v2.9h-9.4V29h-3.2V3.9z"/>
</g>
</svg>
