<?xml version="1.0" encoding="utf-8"?>
<!-- Generator: Adobe Illustrator 18.1.1, SVG Export Plug-In . SVG Version: 6.00 Build 0)  -->
<!DOCTYPE svg PUBLIC "-//W3C//DTD SVG 1.1//EN" "http://www.w3.org/Graphics/SVG/1.1/DTD/svg11.dtd">
<svg version="1.1" id="レイヤー_1" xmlns="http://www.w3.org/2000/svg" xmlns:xlink="http://www.w3.org/1999/xlink" x="0px"
	 y="0px" width="640px" height="150px" viewBox="0 0 640 150" enable-background="new 0 0 640 150" xml:space="preserve">
<g>
	<path fill="#000333" d="M91.9,5v14.4h8.5v3h-8.5v19.8H72.4V22.5H59.1v29.7h39.6v3H59.1v3.2h-3.2V22.5h-8.7v-3h8.7V5.6h3.2v13.9
		h13.3V5h3.2v14.4h13.2V5H91.9z M75.6,22.5v16.8h13.2V22.5H75.6z"/>
	<path fill="#000333" d="M146.5,58.3h-3.4V35.2h3.2c-3.2-2.7-4.6-4.6-5.8-6.1h-10.7c-5.6,7.3-13.8,11.4-21.2,13.8l-1.5-2.9
		c12.8-3.6,16.8-8.4,18.7-10.9h-13.3V6.5h44.8v22.6h-13.1c2.1,2.7,5.8,7.1,18.2,10.9l-1.9,2.9c-3.9-1.3-9.1-3.4-14.1-7.5V58.3z
		 M110.4,55.5c5.1-1.2,10.6-3.8,12.6-9c1-2.7,1.2-7.6,1.2-11.3h3.3c-0.2,4.7-0.4,9.7-1.8,13.1c-2.3,5.7-8.2,8.9-13.9,10.4
		L110.4,55.5z M133.4,9.3h-17.6v7.1h17.6V9.3z M133.4,19.1h-17.6v7.2h17.6V19.1z M154.3,9.3h-17.9v7.1h17.9V9.3z M154.3,19.1h-17.9
		v7.2h17.9V19.1z"/>
	<path fill="#000333" d="M189.1,41.5c-3.7-3.4-5.4-5-7.4-7.6v24.6h-3.2V34.6c-3.8,3.7-6.3,5.1-8.3,6.3l-1.2-3.3
		c4.3-2.7,13.1-8.7,17.8-19.9h-17.4v-2.9h9V5h3.2v9.8h8.4v2.9c-0.8,1.9-2.6,6.4-7.6,12.5c4.1,5.5,7,7.9,8.4,9L189.1,41.5z
		 M204.7,58.5l-0.8-3.5l7.5,0.2c3.1,0.1,4-1,4.4-2.4c1-3.2,2.5-20,2.5-41.1h-12.5c0,25-3.7,37.7-16.2,46.4l-2-2.7
		c4.4-3.2,10.7-9.7,12.7-19.2c1.3-5.8,2.2-13,2.2-24.5H192v-3h29.7c0,20-1.2,39.6-2.2,43.9c-1.2,4.7-3.2,5.9-8.3,5.9H204.7z
		 M187.9,31.8c1.9-2,4.1-5.1,4.9-6.2l2.4,1.6c-2.5,3.7-4.3,5.5-5.1,6.5L187.9,31.8z"/>
	<path fill="#000333" d="M284,34.1h-18.1v18.8c0,1.6,0.3,1.9,2.3,1.9h10.1c1,0,1.6,0,2-0.6c0.5-0.9,0.5-1.1,0.9-8.5l3.3,1
		c-0.2,9.5-1,11.1-5.5,11.1h-11.3c-1.6,0-4.8,0-4.8-4.2V34.1H251c-0.5,13.6-5.6,21.6-19.8,24.5l-1.5-2.9c14.5-2.7,17.6-10.4,18-21.6
		h-17v-2.9H284V34.1z M258.9,5.1v5.1h23.9v14h-3.4V13.1h-44.3v11.1h-3.3v-14h23.8V5.1H258.9z M276.5,20.5v2.9h-38.2v-2.9H276.5z"/>
	<path fill="#000333" d="M290.9,25.2c7.4-3,18.4-8.8,25.9-20.2h3.7c5.2,7.6,15.7,16.7,25.4,20.2l-1.5,3.3
		c-9.6-4.3-19.4-12.1-25.7-20.6c-5,7.1-14.7,15.6-26,20.6L290.9,25.2z M320.1,27.3v10.3H339v3h-18.9v13.3h25.1v3h-53.3v-3h24.9V40.6
		h-18.9v-3h18.9V27.3h-14.1v-2.9h31.6v2.9H320.1z"/>
	<path fill="#000333" d="M397.5,58.4v-3.6h-36v3.6h-3.2V11.3h17c1-2.4,2-5.5,2.3-6.3l3.1,0.8c-0.6,1.7-1.7,4.1-2.4,5.5h22.5v47.1
		H397.5z M397.5,14.2h-36v10.4h36V14.2z M397.5,27.3h-36v10.4h36V27.3z M397.5,40.5h-36v11.4h36V40.5z"/>
	<path fill="#000333" d="M442.7,52.6c5.2-9.7,9.4-23.5,10.9-32.8l3.4,0.8c-1.8,8.9-6.5,24-10.7,32h21.3v3h-53.4v-3H442.7z
		 M442.5,5.1v8.1h22.4v3.1h-48.2v-3.1h22.4V5.1H442.5z M430.9,48.4c-0.6-9.4-3.2-18.9-6.2-26.6l3.1-0.9c2.7,7,5.9,18.9,6.5,27
		L430.9,48.4z"/>
	<path fill="#000333" d="M504.3,7.4v2.8H498v9.1h7.8V22H498v15.1h-3V22h-7.6c-1,7.3-4.3,12.5-9.5,16.7l-2.5-2.4
		c3.6-2.7,8-7.2,8.7-14.2h-8.6v-2.7h8.9v-9.1H477V7.4H504.3z M500.5,53.5v-9h-20.5v-2.8h20.5v-6.1h3.1v6.1h20.6v2.8h-20.6v9h25.2
		v2.9h-53.5v-2.9H500.5z M494.9,10.2h-7.6v9.1h7.6V10.2z M512.9,8.3v22.1h-3.1V8.3H512.9z M526.4,33.3c0,2.6-0.5,3.8-4.4,3.8h-6.4
		l-0.6-3l6.5,0.1c1.6,0.1,1.7-0.3,1.7-1.7V6h3.2V33.3z"/>
	<path fill="#000333" d="M562,52.9c6.9-0.6,23.4-2.2,23.4-20.9c0-4.9-1.6-20.1-20.5-20.2c-1,12.5-2.6,24-8.2,32.8
		c-3.6,5.8-7.3,6.9-9.4,6.9c-5.7,0-10.3-6.9-10.3-16.4c0-15,10.3-26.6,27.7-26.6c18.1,0,24.2,12.4,24.2,23c0,21.9-19.1,24-26,24.6
		L562,52.9z M540.5,35.2c0,4.8,1.8,12.7,6.8,12.7c2.2,0,4.3-1.6,6.6-5.2c5.5-8.7,6.8-21.6,7.4-30.7
		C546.2,13.6,540.5,24.8,540.5,35.2z"/>
	<path fill="#000333" d="M21.1,121.1c-1.8,0.9-3.8,1.8-6.9,3.1v17.1c0,2.9-0.8,4.5-4.1,4.5H3.9l-0.6-3.4l5.7,0.1c0.9,0,2-0.3,2-1.6
		v-15.3c-2.8,1-7.8,3-8.6,3.3l-0.8-3.3c1.6-0.5,3.7-1.2,9.4-3.3v-15.4H2.1v-2.9H11V92.5h3.2v11.4h6.9v2.9h-6.9v14.2
		c4.3-1.7,5.2-2.2,6.5-2.8L21.1,121.1z M39.5,92.5v6.4h13.6v2.9H39.5v9h16v2.9h-7v7.3H55v2.9h-6.5v17.7c0,3-1.3,4.3-5.2,4.3h-7.9
		l-1.2-3.4l8.9,0.1c1.6,0,2.2-0.5,2.2-2v-16.6H22.2V121h23.1v-7.3H20.4v-2.9h15.9v-9H23.2v-2.9h13.1v-6.4H39.5z M32.9,138.6
		c-1.6-3.4-5.5-8.1-7.7-10.3l2.4-1.8c2.2,2,5.7,5.7,8.2,10.2L32.9,138.6z"/>
	<path fill="#000333" d="M84.6,93.9c-0.2,2.1-0.3,3.1-0.8,7.2H115v3.3H83.3c-1,7.5-2.9,11.8-3.6,13.6c2.4-1.6,3.8-2.4,5.9-3.1
		c5-1.6,8.8-1.7,10.9-1.7c12.9,0,15.8,8.6,15.8,14.2c0,15.7-17.5,16.3-28.5,16.3c-4.3,0-6.7-0.2-8-0.3l-0.8-3.5
		c4.4,0.3,7.2,0.5,10.1,0.5c13.6,0,23.3-2.2,23.3-12.8c0-9.3-6.8-11.2-12.7-11.2c-2.2,0-10.6,0.1-17.6,7.1c-0.5,0.9-0.7,1.5-1.3,2.6
		l-3.5-1.2c3.6-6.8,5.4-14.3,6.4-20.3H64.6v-3.3h15.6c0.4-3.1,0.4-5.6,0.5-7.3L84.6,93.9z"/>
	<path fill="#000333" d="M134,115.5V132c0.5,1.8,1.5,5.3,5,7.1c3.2,1.6,7.2,2.3,9.6,2.3h30l-0.8,3h-28.9c-10.3,0-13.6-4.3-15.3-6.6
		c-0.8,0.9-5.2,5.5-8.2,7.9l-1.3-3.1c2.3-1.7,4.9-4.1,6.7-6.2v-17.8h-6.3v-3H134z M134,104c-3.7-4.1-5.1-5.6-8.8-8.2l2-2.2
		c3.1,1.9,6.1,4.7,9.1,8.2L134,104z M177.8,133.5h-19.3v6.2h-3.2v-6.2h-18.5v-2.6h18.5v-4.3h-15.9v-17.9h15.9v-4.3h-12.8v-2.6h12.8
		v-4.8h-14.6v7.5h-3.2V94.2h39.5v10.1h-3.3v-7.5h-15.1v4.8h12.6v2.6h-12.6v4.3h16.1v17.9h-16.1v4.3h19.3V133.5z M155.3,111.1h-12.8
		v5.2h12.8V111.1z M155.3,118.8h-12.8v5.2h12.8V118.8z M171.6,111.1h-13.1v5.2h13.1V111.1z M171.6,118.8h-13.1v5.2h13.1V118.8z"/>
	<path fill="#000333" d="M237.3,135.3c-8.2-6.9-15.1-13.8-18.6-17.4c-9.3-9.5-10.5-10.8-13.4-10.8c-2.3,0-3.7,1-5.4,2.9
		c-2.5,2.7-10.6,13.1-11.8,14.7l-3.1-3.1c2-2.2,10.5-12.1,12.4-13.9c2.3-2.3,4.2-4,7.9-4c3.9,0,5.2,1.2,13.1,8.9
		c13.6,13.1,17.8,16.3,22,19.5L237.3,135.3z M227,107.3c-1.9-4-3.3-6.2-5.5-9l2.9-1.5c3.4,3.8,5,7.1,5.7,8.7L227,107.3z
		 M233.6,104.1c-2.1-4.4-4.1-6.9-5.3-8.4l2.8-1.5c2.3,2.6,3.8,4.7,5.5,8.2L233.6,104.1z"/>
	<path fill="#000333" d="M285.9,94.8v3.1c-1.8,1.5-5.7,4.7-7.9,6.7c-7.3,6.6-8.1,7.3-10.4,9.3c3-1.3,6.9-2.9,12.5-2.9
		c11.3,0,15.9,7.9,15.9,15.4c0,2.8-0.7,17.6-21.7,17.6c-6.4,0-9.3-1-11.7-2.4c-2.2-1.4-4.1-3.9-4.1-7.1c0-5.6,5.3-8.8,10.4-8.8
		c7.8,0,11.7,6.4,11.7,11c0,1.9-0.5,3-1.1,4.2c8.9-1.7,12.9-7.8,12.9-14.4c0-8.3-5.6-12.5-13.2-12.5c-6.5,0-12.8,2.7-16.8,5.9
		c-1.9,1.5-8.7,8.4-11,11.1l-3.1-2.5c2.8-2.3,14.4-13.6,16.8-15.9c2.4-2.3,13.5-12.5,15.7-14.6l-27.4,0.3v-3.4H285.9z M277.1,136.9
		c0-3.6-2.7-8.3-8.3-8.3c-3.8,0-7.1,2.3-7.1,5.9c0,6.5,10.8,6.6,14.2,6.5C276.4,140,277.1,138.9,277.1,136.9z"/>
	<path fill="#000333" d="M329.3,95.4c10.1,0,19.9,1.1,19.9,22.8c0,18.2-5.1,23.1-18.6,23.1h-19.8V95.4H329.3z M314.7,98.8v39h16.1
		c10.8,0,14.3-3.8,14.3-19.5c0-18.6-6.9-19.5-15.8-19.5H314.7z"/>
	<path fill="#000333" d="M387.6,95.4v32.5c0,8.2-2.2,13.9-14.6,13.9c-13.6,0-15.3-5.8-15.3-14.3v-2.6h3.9v2.9
		c0,5.6,0,10.5,11.1,10.5c9.7,0,10.9-3.1,10.9-11.3V95.4H387.6z"/>
	<path fill="#000333" d="M418.2,119.6c-6.2-3.7-10.3-5.4-16.9-7.2l1.6-3.2c5.9,1.6,10.5,3.3,17,6.9L418.2,119.6z M404.3,138.5
		c26.1-2.5,35.8-14.5,42.1-33.7l3.1,1.4c-7.8,21.9-16.3,32.4-44.5,36.2L404.3,138.5z M422.9,105.7c-2.6-1.6-7.2-4.3-17.1-7.2
		l1.5-3.1c7.3,1.8,12.3,3.9,17.2,6.6L422.9,105.7z"/>
	<path fill="#000333" d="M460.6,140.8c11.5-5,28.7-17.2,36.8-40.4h-34V97h38.6c-2.3,8.9-6.4,17.2-12,24.5c2,1.6,11.2,8.9,21.1,18.8
		l-2.9,2.8c-5.3-5.8-15.2-14.9-20.3-18.9c-6.9,8.2-15.3,14.9-25.1,19.3L460.6,140.8z"/>
	<path fill="#000333" d="M571.4,111.4v3.3h-20.5l-0.1,2.2c-0.5,16.6-7.1,23.9-22.8,27.2l-1.5-3.3c16.1-2.9,20.1-10.3,20.7-23.5
		l0.1-2.6h-24.6v-3.3H571.4z M566.4,95.8v3.4h-38.8v-3.4H566.4z"/>
	<path fill="#000333" d="M617.7,115.5c7.9,10.3,12.1,18.4,15.7,26.6l-3.5,1.6c-0.6-1.7-1.2-3.3-2.3-5.7c-20.8,2.8-36.6,3.5-44.1,3.7
		l-0.2-3.8c1,0.1,4.7-0.1,5.2-0.1c6.7-15.4,11-30.9,14.2-43.2l3.9,0.6c-2.8,10.5-9.1,30.9-14.3,42.4c13.2-0.5,28.1-1.5,34-2.4
		c-3.3-6.4-7.1-12.4-11.4-18.1L617.7,115.5z"/>
</g>
</svg>
