<?xml version="1.0" encoding="utf-8"?>
<!-- Generator: Adobe Illustrator 18.1.1, SVG Export Plug-In . SVG Version: 6.00 Build 0)  -->
<!DOCTYPE svg PUBLIC "-//W3C//DTD SVG 1.1//EN" "http://www.w3.org/Graphics/SVG/1.1/DTD/svg11.dtd">
<svg version="1.1" id="レイヤー_1" xmlns="http://www.w3.org/2000/svg" xmlns:xlink="http://www.w3.org/1999/xlink" x="0px"
	 y="0px" width="44px" height="14px" viewBox="0 0 44 14" enable-background="new 0 0 44 14" xml:space="preserve">
<g>
	<path fill="#FFFFFF" d="M14.6,6.3h13.8v1.1H14.6V6.3z"/>
	<path fill="#FFFFFF" d="M39.1,12.6c0,0.3,0.1,0.4,0.8,0.4h2.5c0.6,0,0.7-0.1,0.7-1.4c0.2,0.1,0.6,0.3,0.9,0.3
		c-0.1,1.6-0.4,1.9-1.5,1.9h-2.6c-1.4,0-1.7-0.2-1.7-1.2v-1.3h-2.3c-0.5,1.4-1.7,2.2-5.1,2.6c-0.1-0.2-0.3-0.6-0.5-0.8
		c2.8-0.3,4-0.8,4.5-1.9h-2.2v-5h9.2v5h-2.6V12.6z M37.2,5v0.7H31v-5h6.1v0.7h-2.6v0.7h2.2v2.2h-2.2V5H37.2z M33.6,1.3h-1.7v0.7h1.7
		V1.3z M35.7,3.5V2.7h-3.8v0.8H35.7z M31.9,4.2V5h1.7V4.2H31.9z M33.5,7v0.8h7.3V7H33.5z M33.5,8.4v0.8h7.3V8.4H33.5z M33.5,9.8v0.8
		h7.3V9.8H33.5z M44,2.4h-5c-0.4,0.7-0.8,1.3-1.2,1.8c-0.2-0.2-0.5-0.4-0.7-0.5C37.8,2.9,38.6,1.4,39,0l1.1,0.3
		c0,0.1-0.1,0.1-0.3,0.1c-0.1,0.4-0.3,0.7-0.4,1.1H44V2.4z M43.6,5.1h-5V4.2h5V5.1z"/>
</g>
<polygon fill="#18D6FF" points="0,2.3 5,7.3 0,12.3 "/>
</svg>
