<?xml version="1.0" encoding="utf-8"?>
<!-- Generator: Adobe Illustrator 18.1.1, SVG Export Plug-In . SVG Version: 6.00 Build 0)  -->
<!DOCTYPE svg PUBLIC "-//W3C//DTD SVG 1.1//EN" "http://www.w3.org/Graphics/SVG/1.1/DTD/svg11.dtd">
<svg version="1.1" id="レイヤー_1" xmlns="http://www.w3.org/2000/svg" xmlns:xlink="http://www.w3.org/1999/xlink" x="0px"
	 y="0px" width="123.6px" height="30px" viewBox="0 0 123.6 30" enable-background="new 0 0 123.6 30" xml:space="preserve">
<g>
	<path fill="#FFFFFF" d="M1.4,1h3L22,23.4V1h3.1v28h-2.5L4.5,6v23H1.4V1z"/>
	<path fill="#FFFFFF" d="M33,1h20.2v2.9H36.2v9.6h15.3v2.9H36.2v9.8h17.3V29H33V1z"/>
	<path fill="#FFFFFF" d="M57.8,1h3.4l8,23.3l7.7-23.4h2.6l7.7,23.4l8-23.3h3.3l-10,28.2h-2.7L78.1,6.5l-7.7,22.7h-2.6L57.8,1z"/>
	<path fill="#FFFFFF" d="M101.2,24.9l2-2.3c2.9,2.6,5.7,4,9.6,4c3.8,0,6.2-2,6.2-4.8v-0.1c0-2.6-1.4-4.1-7.3-5.3
		c-6.4-1.4-9.4-3.5-9.4-8.1V8.2c0-4.4,3.9-7.6,9.2-7.6c4.1,0,7,1.2,9.8,3.4l-1.8,2.4c-2.6-2.1-5.2-3-8.1-3c-3.6,0-6,2-6,4.5V8
		c0,2.6,1.4,4.1,7.6,5.4c6.2,1.4,9.1,3.6,9.1,7.9v0.1c0,4.8-4,7.9-9.6,7.9C108.2,29.4,104.6,27.9,101.2,24.9z"/>
</g>
</svg>
