<?xml version="1.0" encoding="utf-8"?>
<!-- Generator: Adobe Illustrator 18.1.1, SVG Export Plug-In . SVG Version: 6.00 Build 0)  -->
<!DOCTYPE svg PUBLIC "-//W3C//DTD SVG 1.1//EN" "http://www.w3.org/Graphics/SVG/1.1/DTD/svg11.dtd">
<svg version="1.1" id="レイヤー_1" xmlns="http://www.w3.org/2000/svg" xmlns:xlink="http://www.w3.org/1999/xlink" x="0px"
	 y="0px" width="174px" height="30px" viewBox="0 0 174 30" enable-background="new 0 0 174 30" xml:space="preserve">
<g>
	<path fill="#FFFFFF" d="M1.1,24.9l2-2.3c2.9,2.6,5.7,4,9.6,4c3.8,0,6.2-2,6.2-4.8v-0.1c0-2.6-1.4-4.1-7.3-5.3
		C5.2,15,2.2,12.9,2.2,8.3V8.2c0-4.4,3.9-7.6,9.2-7.6c4.1,0,7,1.2,9.8,3.4l-1.8,2.4c-2.6-2.1-5.2-3-8.1-3c-3.6,0-6,2-6,4.5V8
		c0,2.6,1.4,4.1,7.6,5.4c6.2,1.4,9.1,3.6,9.1,7.9v0.1c0,4.8-4,7.9-9.6,7.9C8.1,29.4,4.5,27.9,1.1,24.9z"/>
	<path fill="#FFFFFF" d="M28.4,1h20.2v2.9H31.6v9.6h15.3v2.9H31.6v9.8h17.3V29H28.4V1z"/>
	<path fill="#FFFFFF" d="M54.5,1h12c3.4,0,6.2,1,8,2.8c1.4,1.4,2.2,3.3,2.2,5.5v0.1c0,4.6-3.2,7.4-7.6,8.2L77.7,29h-3.9l-8.1-10.9
		h-8V29h-3.2V1z M66.3,15.3c4.2,0,7.2-2.2,7.2-5.8V9.4c0-3.4-2.6-5.5-7.2-5.5h-8.6v11.4H66.3z"/>
	<path fill="#FFFFFF" d="M79.8,1h3.5l10,24.1l10-24.1h3.4l-12,28.2h-2.8L79.8,1z"/>
	<path fill="#FFFFFF" d="M111.9,1h3.2v28h-3.2V1z"/>
	<path fill="#FFFFFF" d="M121.7,15.1L121.7,15.1c0-8,5.9-14.6,14.2-14.6c5.1,0,8.1,1.8,10.9,4.4l-2.2,2.3c-2.4-2.2-5-3.8-8.8-3.8
		c-6.2,0-10.8,5-10.8,11.5V15c0,6.5,4.7,11.6,10.8,11.6c3.8,0,6.4-1.5,9-4l2.1,2c-2.9,3-6.1,4.9-11.2,4.9
		C127.6,29.5,121.7,23.1,121.7,15.1z"/>
	<path fill="#FFFFFF" d="M152.2,1h20.2v2.9h-17.1v9.6h15.3v2.9h-15.3v9.8h17.3V29h-20.4V1z"/>
</g>
</svg>
