<svg width="20" height="20" viewBox="0 0 20 20" fill="none" xmlns="http://www.w3.org/2000/svg">
<path fill-rule="evenodd" clip-rule="evenodd" d="M12 0H8V4H12V7.99984H16V3.99984H12V0ZM4 3.99984H7.91301V7.99984H3.91301V4H0V0H4V3.99984ZM0 8.00008H4V11.9999H7.99999V15.9999H3.99999V12.0001H0V8.00008ZM8 8.00008H12V11.9999H16V15.9999H12V12.0001H8V8.00008ZM20 8.00008H16V12.0001H20V8.00008ZM0 16.0002H4V20.0002H0V16.0002ZM12 16.0002H8V20.0002H12V16.0002ZM16 16.0002H20V20.0002H16V16.0002ZM16 0H20V4H16V0Z" fill="#888888"/>
</svg>
