<svg width="220" height="196" viewBox="0 0 220 196" fill="none" xmlns="http://www.w3.org/2000/svg">
<path d="M2.23389 127.222V138.135H6.34437V130.802H10.991C16.0844 130.802 20.2843 128.183 20.2843 123.032V122.944C20.2843 118.405 16.8886 115.349 11.4378 115.349H2.23389V119.016H6.34437H11.0804C14.1185 119.016 16.0844 120.413 16.0844 123.032V123.119C16.0844 125.476 14.1185 127.135 11.0804 127.135H6.34437H2.23389V127.222Z" fill="#333333"/>
<path d="M77.4735 115C70.3249 115 65.3208 120.325 65.3208 126.698H69.61C69.61 122.246 72.8269 118.667 77.4735 118.667C82.1202 118.667 85.4264 122.333 85.4264 126.786V126.873C85.4264 131.238 82.2989 134.73 77.7416 134.817V138.484C84.7115 138.31 89.6262 133.071 89.6262 126.698V126.611C89.6262 120.325 84.6222 115 77.4735 115Z" fill="#333333"/>
<path d="M145.207 129.492C148.424 128.619 150.747 126.349 150.747 122.595V122.508C150.747 120.5 150.032 118.841 148.781 117.619C147.262 116.222 145.028 115.349 142.08 115.349H135.824V119.016H141.811C144.85 119.016 146.637 120.325 146.637 122.77V122.857C146.637 125.127 144.76 126.698 141.811 126.698H135.824V130.278H140.918L146.637 138.222H151.462L145.207 129.492Z" fill="#333333"/>
<path d="M204.184 119.19V138.222H208.294V119.19H215.621V115.437H204.184" fill="#333333"/>
<path d="M14.5654 70.8809V79.9603H10.1868V70.9682L0.98291 57.1746H5.80826L12.3314 67.2143L14.5654 70.8809Z" fill="#333333"/>
<path d="M135.378 60.9286V79.9603H139.578V60.9286H146.905V57.1746H135.378" fill="#333333"/>
<path d="M211.779 70.8809L207.758 61.8016L203.826 70.8809L202.307 74.4603L199.894 79.9603H195.695L205.971 57H209.724L220 79.9603H215.621L213.298 74.4603" fill="#333333"/>
<path d="M80.333 66.0794V70.2698C80.333 74.4603 78.0991 76.5555 74.5247 76.5555C70.861 76.5555 68.6271 74.2857 68.6271 70.0952V57.1746H64.5166V70.2698C64.5166 76.9048 68.359 80.3095 74.4354 80.3095C80.5117 80.3095 84.4435 76.9048 84.4435 70.0952V66.0794H80.333Z" fill="#333333"/>
<path d="M106.157 172.349H110.268V191.468H122.51V195.135H106.157V172.349Z" fill="#333333"/>
<path d="M159.326 172.349H155.215V184.309H159.326V172.349Z" fill="#333333"/>
<path d="M194.354 183.786C194.354 177.325 199.448 172 206.596 172C213.745 172 218.749 177.325 218.749 183.698V183.786C218.749 190.159 213.656 195.571 206.507 195.571C199.358 195.484 194.354 190.246 194.354 183.786ZM214.37 183.786C214.37 179.333 211.064 175.667 206.418 175.667C201.771 175.667 198.554 179.246 198.554 183.698V183.786C198.554 188.238 201.86 191.817 206.507 191.817C211.154 191.817 214.37 188.238 214.37 183.786Z" fill="#333333"/>
<path d="M58.8871 172C51.7384 172 46.7344 177.325 46.7344 183.698H50.9342C50.9342 179.246 54.1511 175.667 58.7977 175.667C63.4444 175.667 66.7506 179.333 66.7506 183.786V183.873C66.7506 188.325 63.5337 191.817 58.8871 191.817C58.7977 191.817 58.7084 191.817 58.7084 191.817V195.484C58.7977 195.484 58.7977 195.484 58.8871 195.484C66.0358 195.484 71.1292 190.159 71.1292 183.698C70.9505 177.238 66.0358 172 58.8871 172Z" fill="#333333"/>
<path d="M18.4078 172.349H0.804199V176.016H18.4078V172.349Z" fill="#333333"/>
<path d="M16.978 182.476H4.91468H0.804199V186.056V195.135H4.91468V186.056H16.978V182.476Z" fill="#333333"/>
<path d="M0 19.7302L2.50203 16.8492C4.73599 18.7698 6.96994 19.8175 9.82941 19.8175C12.3314 19.8175 13.9399 18.6825 13.9399 16.9365V16.8492C13.9399 15.1905 13.0463 14.3175 8.66775 13.3571C3.75305 12.3095 0.893583 10.8254 0.893583 6.63492C0.893583 2.70635 4.2892 0 8.84647 0C12.2421 0 14.9228 1.04762 17.2461 2.88095L15.0122 5.93651C13.0463 4.36508 10.9017 3.57937 8.84647 3.57937C6.43379 3.57937 5.09342 4.80159 5.09342 6.28571V6.37302C5.09342 8.11905 6.16572 8.90476 10.6336 9.95238C15.5483 11.0873 18.0504 12.8333 18.0504 16.5873C18.0504 20.8651 14.6548 23.3968 9.74005 23.3968C6.16572 23.3968 2.77011 22.1746 0 19.7302Z" fill="#333333"/>
<path d="M72.6482 0.349197H76.7587V23.0476H72.6482V0.349197Z" fill="#333333"/>
<path d="M95.9707 0.349197H100.617L107.677 11.0873L114.736 0.349197H119.114V23.0476H115.004V6.72221L107.677 17.4603H107.587L100.349 6.80951L95.9707 0.349197Z" fill="#333333"/>
<path d="M142.437 0.349197H138.327V11.873H142.437V0.349197Z" fill="#333333"/>
<path d="M47.3598 0.349197V9.77777H36.2794V0.349197H32.1689V13.4444H36.2794H38.1559H47.3598V23.0476H51.4703V0.349197H47.3598Z" fill="#333333"/>
<path d="M171.121 16.8492L168.351 14.4921L163.704 19.992V22.873H182.738V19.3809H168.976L171.121 16.8492Z" fill="#333333"/>
<path d="M164.151 0.174622V3.75399H177.376L175.232 6.28573L178.091 8.64288L182.738 3.14288V0.174622H164.151Z" fill="#333333"/>
<path d="M215.532 9.25398V13.4445C215.532 17.6349 213.298 19.7302 209.724 19.7302C206.06 19.7302 203.826 17.4603 203.826 13.2699V0.436523H199.716V13.5318C199.716 20.1667 203.558 23.5714 209.634 23.5714C215.711 23.5714 219.642 20.1667 219.642 13.3572V9.34129H215.532V9.25398Z" fill="#333333"/>
</svg>
