<svg width="260" height="31" viewBox="0 0 260 31" fill="none" xmlns="http://www.w3.org/2000/svg">
<path d="M244.232 14.7832C243.88 13.7259 243.302 12.7578 242.538 11.9463C241.739 11.1156 240.778 10.458 239.715 10.0142C238.446 9.50694 237.088 9.26165 235.721 9.29309C232.483 9.29309 229.98 10.3272 228.279 12.3613C226.578 14.3954 225.734 17.2051 225.734 20.7359C225.738 22.1229 226.013 23.4959 226.544 24.777C227.036 26.0041 227.78 27.1143 228.728 28.0357C229.689 28.9619 230.834 29.6758 232.089 30.1311C233.465 30.6064 234.911 30.8501 236.368 30.8522C237.742 30.8532 239.105 30.6019 240.388 30.1106C241.55 29.679 242.64 29.0734 243.62 28.3146C243.65 28.2894 243.675 28.2583 243.692 28.2232C243.71 28.1881 243.72 28.1497 243.722 28.1105C243.763 27.5459 243.858 26.7499 243.98 25.8791C243.992 25.8152 243.982 25.7494 243.952 25.6917C243.922 25.6339 243.875 25.5874 243.817 25.559C243.758 25.5306 243.692 25.5219 243.629 25.5342C243.565 25.5466 243.507 25.5793 243.463 25.6274C243.035 26.0865 242.581 26.5204 242.103 26.9268C241.604 27.3014 241.068 27.6251 240.504 27.8928C239.956 28.1545 239.384 28.3641 238.797 28.5187C237.565 28.8346 236.271 28.817 235.048 28.468C233.825 28.1189 232.717 27.4508 231.837 26.5322C231.224 25.8302 230.762 25.0108 230.476 24.1239C230.153 23.15 229.992 22.1295 230 21.1033V20.5523C230 20.389 230 20.2529 230 20.1441L232.592 20.0624C235.021 19.9876 237.504 20.0148 239.926 20.0624L244.484 20.1441C244.543 20.1445 244.599 20.1231 244.643 20.0842C244.687 20.0453 244.715 19.9915 244.722 19.9332C244.749 19.6474 244.77 19.3662 244.783 19.0896C244.797 18.8129 244.797 18.5317 244.783 18.246C244.79 17.0693 244.604 15.8995 244.232 14.7832ZM238.225 18.1167C236.354 18.1712 234.49 18.1712 232.599 18.1167L230.102 18.0419C230.178 17.3125 230.317 16.591 230.517 15.8853C230.743 15.0642 231.091 14.282 231.551 13.5654C231.999 12.8729 232.585 12.2801 233.272 11.8238C234.029 11.3501 234.911 11.1132 235.803 11.1435C236.701 11.1008 237.59 11.3386 238.347 11.8238C238.988 12.2759 239.511 12.8756 239.871 13.5723C240.244 14.2971 240.495 15.0787 240.613 15.8853C240.724 16.6015 240.787 17.3242 240.803 18.0487L238.225 18.1167Z" fill="#5A5858"/>
<path d="M221.523 23.6408C221.523 21.3074 221.598 20.3345 221.625 19.5998C221.653 18.8651 221.68 18.2392 221.707 17.6677C221.734 17.0962 221.748 16.586 221.748 16.1166C221.771 15.0677 221.602 14.0234 221.251 13.0348C220.969 12.241 220.504 11.5246 219.895 10.9433C219.285 10.3619 218.547 9.93183 217.741 9.68764C216.893 9.42362 216.009 9.2928 215.122 9.29986C213.686 9.27933 212.272 9.65857 211.04 10.3952C209.963 11.0688 209.076 12.0053 208.461 13.1164C208.536 11.3 208.618 10.0958 208.625 9.94616C208.624 9.9134 208.616 9.88114 208.603 9.8513C208.589 9.82146 208.57 9.79464 208.546 9.77244C208.522 9.75023 208.493 9.73309 208.462 9.72203C208.432 9.71097 208.399 9.70622 208.366 9.70805C207.757 9.81702 207.141 9.8852 206.522 9.91214C205.904 9.8852 205.288 9.81702 204.679 9.70805C204.646 9.70622 204.613 9.71097 204.582 9.72203C204.552 9.73309 204.523 9.75023 204.499 9.77244C204.475 9.79464 204.456 9.82146 204.442 9.8513C204.429 9.88114 204.421 9.9134 204.42 9.94616C204.42 10.1775 204.631 13.13 204.699 16.9398C204.699 17.4364 204.747 18.3004 204.747 19.4229V20.7835C204.747 21.9333 204.706 22.7564 204.699 23.2531C204.631 27.056 204.434 30.0086 204.42 30.2467C204.421 30.2794 204.429 30.3117 204.442 30.3415C204.456 30.3714 204.475 30.3982 204.499 30.4204C204.523 30.4426 204.552 30.4597 204.582 30.4708C204.613 30.4819 204.646 30.4866 204.679 30.4848C205.895 30.2128 207.157 30.2128 208.373 30.4848C208.406 30.4866 208.438 30.4819 208.469 30.4708C208.5 30.4597 208.528 30.4426 208.553 30.4204C208.577 30.3982 208.596 30.3714 208.61 30.3415C208.623 30.3117 208.631 30.2794 208.631 30.2467C208.631 30.0154 208.421 27.0628 208.352 23.2531C208.352 22.7564 208.305 21.9333 208.305 20.7835V19.4229C208.305 18.9399 208.305 18.5113 208.305 18.1371C208.316 16.7079 208.744 15.313 209.536 14.1233C209.997 13.4639 210.607 12.9222 211.316 12.5417C212.025 12.1612 212.814 11.9526 213.618 11.9327C214.227 11.905 214.833 12.0285 215.383 12.292C215.932 12.5555 216.408 12.9509 216.768 13.443C217.537 14.4634 217.931 16.5044 217.931 18.5249C217.931 18.5249 217.843 22.7224 217.836 23.2191C217.768 27.022 217.571 29.9746 217.557 30.2127C217.558 30.2454 217.565 30.2777 217.579 30.3075C217.593 30.3374 217.612 30.3642 217.636 30.3864C217.66 30.4086 217.688 30.4257 217.719 30.4368C217.75 30.4479 217.783 30.4526 217.816 30.4508C219.032 30.1788 220.293 30.1788 221.51 30.4508C221.542 30.4526 221.575 30.4479 221.606 30.4368C221.637 30.4257 221.665 30.4086 221.689 30.3864C221.713 30.3642 221.733 30.3374 221.746 30.3075C221.76 30.2777 221.767 30.2454 221.768 30.2127C221.782 29.9882 221.523 25.9743 221.523 23.6408Z" fill="#5A5858"/>
<path d="M194.658 2.35388C194.658 1.72959 194.906 1.13087 195.347 0.689436C195.789 0.247997 196.387 0 197.012 0C197.636 0 198.235 0.247997 198.676 0.689436C199.118 1.13087 199.366 1.72959 199.366 2.35388C199.366 2.97817 199.118 3.57689 198.676 4.01833C198.235 4.45976 197.636 4.70776 197.012 4.70776C196.387 4.70776 195.789 4.45976 195.347 4.01833C194.906 3.57689 194.658 2.97817 194.658 2.35388ZM198.74 20.7223V19.3617C198.74 18.212 198.781 17.3684 198.787 16.8785C198.855 13.0756 199.053 10.123 199.066 9.88494C199.065 9.85218 199.058 9.81992 199.044 9.79008C199.031 9.76024 199.011 9.73342 198.987 9.71122C198.963 9.68901 198.935 9.67187 198.904 9.66081C198.873 9.64975 198.84 9.645 198.808 9.64683C198.198 9.7558 197.582 9.82398 196.964 9.85092C196.346 9.82398 195.73 9.7558 195.12 9.64683C195.088 9.645 195.055 9.64975 195.024 9.66081C194.993 9.67187 194.965 9.68901 194.941 9.71122C194.917 9.73342 194.897 9.76024 194.884 9.79008C194.87 9.81992 194.863 9.85218 194.862 9.88494C194.862 10.1162 195.073 13.0688 195.141 16.8785C195.141 17.3752 195.188 18.2392 195.188 19.3617V20.7223C195.188 21.872 195.148 22.6952 195.141 23.1918C195.073 26.9948 194.876 29.9474 194.862 30.1855C194.863 30.2182 194.87 30.2505 194.884 30.2803C194.897 30.3102 194.917 30.337 194.941 30.3592C194.965 30.3814 194.993 30.3985 195.024 30.4096C195.055 30.4206 195.088 30.4254 195.12 30.4236C196.337 30.1516 197.598 30.1516 198.815 30.4236C198.847 30.4254 198.88 30.4206 198.911 30.4096C198.942 30.3985 198.97 30.3814 198.994 30.3592C199.018 30.337 199.038 30.3102 199.051 30.2803C199.065 30.2505 199.072 30.2182 199.073 30.1855C199.073 29.9542 198.862 27.0016 198.794 23.1918C198.808 22.7292 198.767 21.9061 198.767 20.7563L198.74 20.7223Z" fill="#5A5858"/>
<path d="M189.324 23.6409C189.324 21.3074 189.399 20.3345 189.426 19.5998C189.453 18.8651 189.481 18.2392 189.508 17.6677C189.535 17.0962 189.549 16.586 189.549 16.1166C189.572 15.0677 189.403 14.0234 189.052 13.0348C188.77 12.241 188.305 11.5246 187.695 10.9433C187.086 10.3619 186.348 9.93183 185.542 9.68764C184.694 9.42362 183.81 9.2928 182.922 9.29987C181.487 9.27934 180.073 9.65857 178.841 10.3952C177.754 11.0652 176.857 12.002 176.235 13.1164C176.074 12.6581 175.845 12.2269 175.555 11.8374C175.151 11.3062 174.661 10.8463 174.106 10.4768C173.529 10.0952 172.902 9.79738 172.242 9.5924C171.561 9.37981 170.852 9.272 170.139 9.27265C168.985 9.25315 167.844 9.52311 166.821 10.0579C165.798 10.5926 164.925 11.3752 164.282 12.3341C164.35 10.9394 164.404 10.0278 164.411 9.90534C164.41 9.87258 164.403 9.84032 164.389 9.81048C164.376 9.78064 164.356 9.75382 164.332 9.73162C164.308 9.70942 164.28 9.69228 164.249 9.68122C164.218 9.67016 164.185 9.6654 164.153 9.66723C163.543 9.7762 162.927 9.84439 162.309 9.87133C161.691 9.84439 161.075 9.7762 160.465 9.66723C160.433 9.6654 160.4 9.67016 160.369 9.68122C160.338 9.69228 160.31 9.70942 160.286 9.73162C160.262 9.75382 160.242 9.78064 160.229 9.81048C160.215 9.84032 160.208 9.87258 160.207 9.90534C160.207 10.1367 160.418 13.0892 160.486 16.899C160.486 17.3956 160.533 18.2596 160.533 19.3821V20.7427C160.533 21.8924 160.493 22.7156 160.486 23.2123C160.418 27.0152 160.22 29.9678 160.207 30.2059C160.208 30.2386 160.215 30.2709 160.229 30.3007C160.242 30.3306 160.262 30.3574 160.286 30.3796C160.31 30.4018 160.338 30.4189 160.369 30.43C160.4 30.4411 160.433 30.4458 160.465 30.444C161.682 30.172 162.943 30.172 164.159 30.444C164.192 30.4458 164.225 30.4411 164.256 30.43C164.287 30.4189 164.315 30.4018 164.339 30.3796C164.363 30.3574 164.383 30.3306 164.396 30.3007C164.41 30.2709 164.417 30.2386 164.418 30.2059C164.418 29.9746 164.207 27.022 164.139 23.2123C164.139 22.7156 164.091 21.8924 164.091 20.7427V18.5181C164.091 16.4091 164.506 14.7628 165.336 13.613C166.166 12.4633 167.432 11.9191 169.173 11.9191C169.842 11.9241 170.497 12.1073 171.071 12.4497C171.628 12.7417 172.098 13.1759 172.432 13.7083C172.577 13.9972 172.705 14.2948 172.813 14.5995C172.919 14.9294 172.992 15.2689 173.031 15.6132C173.085 16.0282 173.14 18.2664 173.14 19.4161V20.7767C173.14 21.9265 173.099 22.736 173.092 23.2327C173.024 27.0356 172.827 29.9882 172.813 30.2263C172.814 30.259 172.821 30.2913 172.835 30.3211C172.848 30.351 172.868 30.3778 172.892 30.4C172.916 30.4222 172.944 30.4393 172.975 30.4504C173.006 30.4615 173.039 30.4662 173.071 30.4644C174.288 30.1924 175.549 30.1924 176.766 30.4644C176.798 30.4662 176.831 30.4615 176.862 30.4504C176.893 30.4393 176.921 30.4222 176.945 30.4C176.969 30.3778 176.989 30.351 177.002 30.3211C177.016 30.2913 177.023 30.259 177.024 30.2263C177.024 29.995 176.813 27.0424 176.745 23.2327C176.745 22.736 176.698 21.9333 176.698 20.7767L176.738 18.5997C176.738 17.4908 176.813 16.6132 176.881 15.9941C176.915 15.5305 177.009 15.0731 177.16 14.6335C177.29 14.3266 177.457 14.0366 177.657 13.7695C178.077 13.2263 178.608 12.7788 179.215 12.4565C179.968 12.0676 180.809 11.8779 181.657 11.9055C182.341 11.8828 183.021 12.0105 183.65 12.2796C184.142 12.5036 184.572 12.8446 184.902 13.2729C185.226 13.7218 185.457 14.2305 185.582 14.7696C185.735 15.3929 185.81 16.0327 185.807 16.6745C185.807 17.9262 185.773 19.5998 185.759 20.7563C185.746 21.9129 185.719 22.7156 185.712 23.2123C185.644 27.0152 185.446 29.9678 185.433 30.2059C185.434 30.2386 185.441 30.2709 185.455 30.3007C185.468 30.3306 185.488 30.3574 185.512 30.3796C185.536 30.4018 185.564 30.4189 185.595 30.43C185.626 30.4411 185.659 30.4458 185.691 30.444C186.908 30.172 188.169 30.172 189.385 30.444C189.418 30.4458 189.451 30.4411 189.482 30.43C189.513 30.4189 189.541 30.4018 189.565 30.3796C189.589 30.3574 189.609 30.3306 189.622 30.3007C189.636 30.2709 189.643 30.2386 189.644 30.2059C189.583 29.9882 189.324 25.9743 189.324 23.6409Z" fill="#5A5858"/>
<path d="M259.75 9.48352C259.245 9.35746 258.726 9.2935 258.206 9.29303C256.199 9.29303 254.45 10.3339 252.825 13.0484C252.899 11.2591 252.981 10.0686 252.988 9.92572C252.987 9.89296 252.979 9.8607 252.966 9.83086C252.952 9.80102 252.933 9.7742 252.909 9.752C252.885 9.72979 252.856 9.71265 252.826 9.70159C252.795 9.69053 252.762 9.68578 252.729 9.68761C252.12 9.79658 251.504 9.86476 250.886 9.8917C250.267 9.86476 249.651 9.79658 249.042 9.68761C249.009 9.68578 248.976 9.69053 248.946 9.70159C248.915 9.71265 248.886 9.72979 248.862 9.752C248.838 9.7742 248.819 9.80102 248.805 9.83086C248.792 9.8607 248.784 9.89296 248.783 9.92572C248.783 10.157 248.994 13.1096 249.062 16.9193C249.062 17.416 249.11 18.28 249.11 19.4025V20.7631C249.11 21.9128 249.069 22.736 249.062 23.2326C248.994 27.0356 248.797 29.9881 248.783 30.2262C248.784 30.259 248.792 30.2913 248.805 30.3211C248.819 30.3509 248.838 30.3778 248.862 30.4C248.886 30.4222 248.915 30.4393 248.946 30.4504C248.976 30.4614 249.009 30.4662 249.042 30.4644C250.258 30.1923 251.52 30.1923 252.736 30.4644C252.769 30.4662 252.802 30.4614 252.832 30.4504C252.863 30.4393 252.892 30.4222 252.916 30.4C252.94 30.3778 252.959 30.3509 252.973 30.3211C252.986 30.2913 252.994 30.259 252.995 30.2262C252.995 29.9949 252.784 27.0424 252.716 23.2326C252.716 22.736 252.668 21.9128 252.668 20.7631V20.1508C252.668 18.4704 252.872 16.2866 253.893 14.6403C254.216 14.1432 254.658 13.7341 255.178 13.4497C255.701 13.156 256.293 13.0058 256.893 13.0143C257.508 13.0415 258.095 13.282 258.553 13.6947C258.644 13.76 258.751 13.799 258.862 13.8071C258.974 13.8153 259.086 13.7924 259.185 13.741C259.284 13.6895 259.367 13.6116 259.425 13.5157C259.483 13.4199 259.513 13.3099 259.512 13.198C259.512 12.6946 259.512 12.1571 259.553 11.6401C259.594 11.048 259.732 10.4665 259.961 9.91892C259.985 9.87758 259.998 9.83105 260 9.78338C260.002 9.7357 259.992 9.68834 259.971 9.64541C259.95 9.60248 259.919 9.56528 259.881 9.53707C259.842 9.50885 259.797 9.49046 259.75 9.48352Z" fill="#5A5858"/>
<path d="M73.4057 28.4303C73.3488 28.4266 73.2934 28.41 73.2439 28.3817C73.1944 28.3534 73.152 28.3142 73.12 28.267L64.6297 14.409L60.0444 30.2671C60.0267 30.3188 59.9939 30.3639 59.9502 30.3966C59.9065 30.4294 59.854 30.4483 59.7995 30.4508H50.9146C50.8919 30.453 50.869 30.4491 50.8483 30.4395C50.8275 30.43 50.8097 30.4152 50.7966 30.3965C50.7835 30.3778 50.7755 30.356 50.7735 30.3333C50.7715 30.3106 50.7756 30.2877 50.7853 30.2671L60.16 0.591872C60.1777 0.540219 60.2105 0.495081 60.2542 0.462323C60.2979 0.429566 60.3504 0.410703 60.4049 0.408187H63.7453C63.8026 0.411006 63.8585 0.426503 63.9091 0.45356C63.9597 0.480618 64.0037 0.518563 64.0378 0.564659L75.4535 18.2528L86.8691 0.564659C86.9029 0.518209 86.9468 0.480006 86.9974 0.452909C87.0481 0.425813 87.1042 0.410524 87.1616 0.408187H90.4816C90.5358 0.41159 90.5879 0.430791 90.6315 0.463427C90.675 0.496063 90.708 0.540709 90.7265 0.591872L100.115 30.2739C100.124 30.2945 100.129 30.3174 100.127 30.3401C100.125 30.3628 100.117 30.3846 100.104 30.4033C100.09 30.422 100.073 30.4368 100.052 30.4463C100.031 30.4559 100.008 30.4598 99.9855 30.4576H91.0938C91.039 30.456 90.9861 30.4375 90.9422 30.4046C90.8983 30.3717 90.8658 30.3261 90.8489 30.2739L86.2432 14.4158L77.7801 28.267C77.7481 28.3142 77.7057 28.3534 77.6562 28.3817C77.6066 28.41 77.5513 28.4266 77.4944 28.4303H73.4125H73.4057ZM51.1867 13.6471C51.1775 13.605 51.1543 13.5674 51.121 13.5402C51.0876 13.513 51.046 13.4979 51.003 13.4974H25.675C25.0318 13.4974 24.4149 13.7529 23.96 14.2078C23.5052 14.6626 23.2497 15.2795 23.2497 15.9227C23.2497 16.5659 23.5052 17.1828 23.96 17.6377C24.4149 18.0925 25.0318 18.348 25.675 18.348H40.7235C38.9343 23.0762 32.8795 26.5322 25.6818 26.5322C17.0758 26.5322 10.0958 21.5523 10.0958 15.4023C10.0958 9.25225 17.069 4.29957 25.6818 4.29957C30.3828 4.29957 34.6007 5.78946 37.458 8.13654C37.4914 8.14582 37.5267 8.14582 37.56 8.13654H47.9348C47.9853 8.13654 48.0338 8.11647 48.0695 8.08074C48.1052 8.04502 48.1253 7.99657 48.1253 7.94605C48.1239 7.90099 48.1071 7.85777 48.0777 7.82359C43.6556 3.17706 35.281 0 25.6818 0C11.4973 0 0 6.91197 0 15.4295C0 23.947 11.4973 30.8522 25.6818 30.8522C39.8663 30.8522 51.3568 23.947 51.3568 15.4295C51.3568 14.8313 51.2998 14.2345 51.1867 13.6471ZM150.9 15.4295C150.9 23.947 139.403 30.8522 125.225 30.8522C111.047 30.8522 99.5365 23.947 99.5365 15.4295C99.5365 6.91197 111.034 0 125.218 0C139.403 0 150.9 6.91197 150.9 15.4295ZM140.811 15.4295C140.811 9.30667 133.831 4.29957 125.225 4.29957C116.619 4.29957 109.639 9.27946 109.639 15.4295C109.639 21.5795 116.612 26.5322 125.218 26.5322C133.824 26.5322 140.825 21.5795 140.825 15.4295H140.811Z" fill="#005BAC"/>
</svg>
