<svg width="391" height="76" viewBox="0 0 391 76" fill="none" xmlns="http://www.w3.org/2000/svg">
<path d="M2.23395 63.873V74.7857H6.34443V67.4524H10.9911C16.0845 67.4524 20.2843 64.8333 20.2843 59.6825V59.5952C20.2843 55.0556 16.8887 52 11.4378 52H2.23395V55.6667H6.34443H11.0804C14.1186 55.6667 16.0845 57.0635 16.0845 59.6825V59.7698C16.0845 62.127 14.1186 63.7857 11.0804 63.7857H6.34443H2.23395V63.873Z" fill="#020202"/>
<path d="M61.1527 52C54.0041 52 49 57.3254 49 63.6984H53.2892C53.2892 59.246 56.5061 55.6667 61.1527 55.6667C65.7993 55.6667 69.1056 59.3333 69.1056 63.7857V63.873C69.1056 68.2381 65.9781 71.7302 61.4208 71.8175V75.4841C68.3907 75.3095 73.3054 70.0714 73.3054 63.6984V63.6111C73.3054 57.3254 68.3014 52 61.1527 52Z" fill="#020202"/>
<path d="M112.383 66.1429C115.6 65.2698 117.923 63 117.923 59.246V59.1587C117.923 57.1508 117.208 55.4921 115.957 54.2698C114.438 52.873 112.204 52 109.255 52H103V55.6667H108.987C112.025 55.6667 113.812 56.9762 113.812 59.4206V59.5079C113.812 61.7778 111.936 63.3492 108.987 63.3492H103V66.9286H108.093L113.812 74.873H118.638L112.383 66.1429Z" fill="#020202"/>
<path d="M147 55.754V74.7857H151.11V55.754H158.438V52H147" fill="#020202"/>
<path d="M288 52H292.11V71.119H304.353V74.7857H288V52Z" fill="#020202"/>
<path d="M337.11 52H333V63.9603H337.11V52Z" fill="#020202"/>
<path d="M366 63.7857C366 57.3254 371.093 52 378.242 52C385.391 52 390.395 57.3254 390.395 63.6984V63.7857C390.395 70.1587 385.301 75.5714 378.153 75.5714C371.004 75.4841 366 70.246 366 63.7857ZM386.016 63.7857C386.016 59.3333 382.71 55.6667 378.063 55.6667C373.417 55.6667 370.2 59.246 370.2 63.6984V63.7857C370.2 68.2381 373.506 71.8175 378.153 71.8175C382.799 71.8175 386.016 68.2381 386.016 63.7857Z" fill="#020202"/>
<path d="M246.153 52C239.004 52 234 57.3254 234 63.6984H238.2C238.2 59.246 241.417 55.6667 246.063 55.6667C250.71 55.6667 254.016 59.3333 254.016 63.7857V63.873C254.016 68.3254 250.799 71.8175 246.153 71.8175C246.063 71.8175 245.974 71.8175 245.974 71.8175V75.4841C246.063 75.4841 246.063 75.4841 246.153 75.4841C253.301 75.4841 258.395 70.1587 258.395 63.6984C258.216 57.2381 253.301 52 246.153 52Z" fill="#020202"/>
<path fill-rule="evenodd" clip-rule="evenodd" d="M188 52H205.604V55.6667H188V52ZM192.11 62.127H204.174V65.7064H192.11V74.7857H188V65.7064V62.127H192.11Z" fill="black"/>
<path d="M379.084 13.8809L375.063 4.80159L371.132 13.8809L369.613 17.4603L367.2 22.9603H363L373.276 0H377.029L387.305 22.9603H382.927L380.604 17.4603" fill="#020202"/>
<path d="M268.582 13.7063V22.7857H264.204V13.7937L255 0H259.825L266.348 10.0397L268.582 13.7063Z" fill="#020202"/>
<path d="M330 3.75397V22.7857H334.2V3.75397H341.527V0H330" fill="#020202"/>
<path d="M304.816 8.90476V13.0952C304.816 17.2857 302.582 19.3809 299.008 19.3809C295.344 19.3809 293.11 17.1111 293.11 12.9206V0H289V13.0952C289 19.7302 292.842 23.1349 298.919 23.1349C304.995 23.1349 308.927 19.7302 308.927 12.9206V8.90476H304.816Z" fill="#020202"/>
<path d="M0 19.7302L2.50203 16.8492C4.73599 18.7698 6.96994 19.8175 9.82941 19.8175C12.3314 19.8175 13.9399 18.6825 13.9399 16.9365V16.8492C13.9399 15.1905 13.0463 14.3175 8.66775 13.3571C3.75305 12.3095 0.893583 10.8254 0.893583 6.63492C0.893583 2.70635 4.2892 0 8.84647 0C12.2421 0 14.9228 1.04762 17.2461 2.88095L15.0122 5.93651C13.0463 4.36508 10.9017 3.57937 8.84647 3.57937C6.43379 3.57937 5.09342 4.80159 5.09342 6.28571V6.37302C5.09342 8.11905 6.16572 8.90476 10.6336 9.95238C15.5483 11.0873 18.0504 12.8333 18.0504 16.5873C18.0504 20.8651 14.6548 23.3968 9.74005 23.3968C6.16572 23.3968 2.77011 22.1746 0 19.7302Z" fill="#020202"/>
<path d="M104 0H108.647L115.706 10.7381L122.765 0H127.144V22.6984H123.033V6.37302L115.706 17.1111H115.617L108.379 6.46032L104 0Z" fill="#020202"/>
<path d="M153.11 0H149V11.5238H153.11V0Z" fill="#020202"/>
<path d="M83.1105 0H79V11.5238H83.1105V0Z" fill="#020202"/>
<path d="M54.1909 0V9.42857H43.1105V0H39V13.0952H43.1105H44.987H54.1909V22.6984H58.3014V0H54.1909Z" fill="#020202"/>
<path fill-rule="evenodd" clip-rule="evenodd" d="M174.447 3.57937V0H193.033V2.96825L188.387 8.46825L185.527 6.11111L187.672 3.57937H174.447ZM178.647 14.3174L181.417 16.6746L179.272 19.2063H193.033V22.6984H174V19.8174L178.647 14.3174Z" fill="#020202"/>
<path d="M229.816 8.81746V13.0079C229.816 17.1984 227.582 19.2937 224.008 19.2937C220.344 19.2937 218.11 17.0238 218.11 12.8333V0H214V13.0952C214 19.7302 217.842 23.1349 223.919 23.1349C229.995 23.1349 233.927 19.7302 233.927 12.9206V8.90476H229.816V8.81746Z" fill="#020202"/>
</svg>
