<svg width="19" height="24" viewBox="0 0 19 24" fill="none" xmlns="http://www.w3.org/2000/svg">
<path d="M0 19.7302L2.50203 16.8492C4.73599 18.7698 6.96994 19.8175 9.82941 19.8175C12.3314 19.8175 13.9399 18.6825 13.9399 16.9365V16.8492C13.9399 15.1905 13.0463 14.3175 8.66775 13.3571C3.75305 12.3095 0.893583 10.8254 0.893583 6.63492C0.893583 2.70635 4.2892 0 8.84647 0C12.2421 0 14.9228 1.04762 17.2461 2.88095L15.0122 5.93651C13.0463 4.36508 10.9017 3.57937 8.84647 3.57937C6.43379 3.57937 5.09342 4.80159 5.09342 6.28571V6.37302C5.09342 8.11905 6.16572 8.90476 10.6336 9.95238C15.5483 11.0873 18.0504 12.8333 18.0504 16.5873C18.0504 20.8651 14.6548 23.3968 9.74005 23.3968C6.16572 23.3968 2.77011 22.1746 0 19.7302Z" fill="#333333"/>
</svg>
