<svg width="260" height="49" viewBox="0 0 260 49" fill="none" xmlns="http://www.w3.org/2000/svg">
<path d="M61.1033 14.5348C60.9121 13.6741 60.434 12.8135 59.7646 12.1442C59.2865 11.9529 58.8084 11.8573 58.3303 11.8573C57.9478 11.8573 57.7565 11.8573 57.7565 11.5704C57.7565 11.3792 58.0434 11.2836 58.5215 11.2836C60.3384 11.2836 62.2508 11.3792 62.6333 11.3792C63.0158 11.3792 64.4502 11.2836 66.5539 11.2836C67.032 11.2836 67.3189 11.3792 67.3189 11.5704C67.3189 11.8573 67.032 11.8573 66.6495 11.8573C66.3626 11.8573 66.0758 11.8573 65.7889 11.9529C65.502 12.0485 65.3108 12.431 65.4064 12.7179C65.5976 13.7698 65.8845 14.8216 66.1714 15.8735C66.7451 18.0728 69.9963 28.3045 70.6657 30.217H70.7613L77.5506 12.5267C77.9331 11.5704 78.1243 11.2836 78.4112 11.2836C78.7937 11.2836 78.9849 11.7617 79.463 12.9092L86.7304 29.9301H86.9217C87.591 27.6352 90.3641 18.7422 91.6072 14.8216C91.7985 14.1523 91.8941 13.4829 91.9897 12.8135C91.9897 12.2398 91.7028 11.7617 90.2685 11.7617C89.886 11.7617 89.6947 11.6661 89.6947 11.4748C89.6947 11.2836 89.9816 11.1879 90.4597 11.1879C92.2766 11.1879 93.8065 11.2836 94.0934 11.2836C94.3803 11.2836 95.8146 11.1879 97.0577 11.1879C97.4402 11.1879 97.7271 11.2836 97.7271 11.4748C97.7271 11.6661 97.5359 11.8573 97.249 11.8573C96.8665 11.8573 96.3884 11.9529 96.0059 12.0485C95.1453 12.3354 94.7628 13.6741 93.9978 15.5866C92.3722 19.8897 88.6429 30.5995 86.9217 35.6675C86.6348 36.9106 86.4436 37.2931 85.9654 37.2931C85.5829 37.2931 85.3917 36.9106 84.9136 35.6675L77.5506 18.7422H77.4549C76.7856 20.4634 72.1 32.512 70.5701 35.5719C69.9007 36.9106 69.7094 37.3887 69.327 37.3887C68.9445 37.3887 68.8488 37.0063 68.562 36.1456L61.1033 14.5348ZM106.429 29.5476C106.333 29.5476 106.142 29.6433 106.142 29.7389L104.516 33.6594C104.229 34.2332 104.134 34.8069 104.038 35.3807C104.038 35.8588 104.325 36.1456 105.281 36.1456H105.759C106.142 36.1456 106.238 36.2413 106.238 36.4325C106.238 36.6238 106.046 36.7194 105.759 36.7194C104.708 36.7194 103.273 36.6238 102.317 36.6238C102.03 36.6238 100.309 36.7194 98.779 36.7194C98.3965 36.7194 98.2052 36.6238 98.2052 36.4325C98.2052 36.2413 98.3008 36.1456 98.4921 36.1456C98.4921 36.1456 98.4921 36.1456 98.5877 36.1456C98.8746 36.1456 99.2571 36.1456 99.544 36.1456C100.978 35.9544 101.456 35.0938 102.126 33.5638L110.254 15.5866C110.636 14.8216 110.828 14.4391 111.21 14.4391C111.688 14.4391 111.784 14.726 112.166 15.3954C112.931 17.021 118.095 28.5914 120.007 32.9901C121.25 35.5719 122.111 35.9544 122.685 36.05C123.067 36.1456 123.45 36.1456 123.832 36.1456C124.119 36.1456 124.215 36.2413 124.215 36.4325C124.215 36.6238 124.024 36.7194 122.876 36.7194C121.824 36.7194 119.529 36.7194 116.947 36.6238C116.374 36.6238 115.991 36.6238 115.991 36.4325C115.991 36.2413 116.087 36.1456 116.374 36.1456C116.661 36.05 116.756 35.8588 116.661 35.5719V35.4763L114.27 29.6433C114.27 29.5476 114.079 29.452 113.983 29.452L106.429 29.5476ZM113.027 27.922C113.122 27.922 113.218 27.8264 113.122 27.7308L110.158 20.559C110.158 20.4634 110.063 20.3678 110.063 20.2722C109.967 20.3678 109.871 20.4634 109.871 20.559L107.003 27.7308C106.907 27.8264 107.003 27.922 107.098 27.922H113.027ZM132.152 23.4277C132.152 19.0291 132.152 18.2641 132.152 17.3078C132.247 16.5428 131.673 15.8735 130.813 15.7779C130.43 15.6822 129.952 15.6822 129.57 15.6822C129.283 15.6822 128.996 15.5866 128.996 15.3954C128.996 15.2041 129.283 15.1085 129.665 15.1085C131.291 15.1085 133.299 15.2041 133.873 15.2041C135.403 15.2041 137.506 15.1085 138.558 15.1085C144.104 15.1085 145.156 17.8816 145.156 19.4115C145.156 21.6109 143.435 23.3321 141.714 24.4796C144.2 25.2446 147.451 27.3483 147.451 30.6951C147.451 33.7551 144.965 36.9106 139.228 36.9106C138.845 36.9106 137.793 36.9106 136.741 36.815C135.69 36.815 134.638 36.7194 134.064 36.7194C133.682 36.7194 133.012 36.7194 132.343 36.7194C131.578 36.7194 130.813 36.815 130.239 36.815C129.857 36.815 129.665 36.7194 129.665 36.5281C129.665 36.4325 129.761 36.2413 130.143 36.2413C130.526 36.2413 130.908 36.2413 131.195 36.1456C131.865 36.05 131.96 35.4763 132.152 34.6157C132.247 33.3726 132.247 31.1732 132.247 28.4958L132.152 23.4277ZM136.168 23.9058C136.168 24.0015 136.263 24.1927 136.359 24.1927C136.837 24.2883 137.315 24.2883 137.793 24.2883C138.654 24.384 139.515 24.1927 140.184 23.8102C141.14 23.0452 141.618 21.9934 141.618 20.7503C141.618 18.8378 140.375 16.4472 137.793 16.4472C137.315 16.4472 136.933 16.4472 136.455 16.5428C136.263 16.5428 136.168 16.7341 136.168 17.021V23.9058ZM136.168 32.3207C136.168 34.2332 136.263 34.8069 137.22 35.1894C137.889 35.4763 138.654 35.5719 139.419 35.5719C141.044 35.5719 143.244 34.7113 143.244 31.5557C143.148 29.452 142.096 27.5395 140.28 26.4877C139.515 26.0096 138.558 25.7227 137.602 25.7227H136.263C136.168 25.7227 136.072 25.7227 136.072 25.9139L136.168 32.3207ZM159.5 23.4277C159.5 19.0291 159.5 18.2641 159.5 17.3078C159.595 16.6385 159.117 15.9691 158.448 15.7779C158.065 15.6822 157.683 15.6822 157.3 15.6822C157.014 15.6822 156.822 15.5866 156.822 15.2997C156.822 15.1085 157.109 15.1085 157.587 15.1085C158.735 15.1085 160.839 15.2041 161.699 15.2041C162.464 15.2041 164.472 15.1085 165.715 15.1085C166.098 15.1085 166.385 15.2041 166.385 15.2997C166.385 15.5866 166.193 15.6822 165.907 15.6822C165.62 15.6822 165.333 15.6822 164.95 15.7779C164.09 15.8735 163.898 16.3516 163.803 17.3078C163.707 18.2641 163.707 19.0291 163.707 23.4277V28.4958C163.707 31.2689 163.707 33.5638 163.803 34.8069C163.803 35.4763 164.281 36.1456 164.95 36.1456C165.428 36.2413 166.002 36.2413 166.576 36.2413C166.767 36.1456 167.054 36.3369 167.054 36.5281C167.054 36.7194 166.767 36.815 166.48 36.815C164.472 36.815 162.369 36.7194 161.508 36.7194C160.839 36.7194 158.735 36.815 157.492 36.815C157.109 36.815 156.918 36.7194 156.918 36.5281C156.918 36.4325 157.014 36.2413 157.396 36.2413C157.779 36.2413 158.161 36.2413 158.448 36.1456C159.117 36.05 159.213 35.5719 159.404 34.8069C159.5 33.6594 159.5 31.3645 159.5 28.5914V23.4277ZM177.095 36.4325C176.712 36.3369 176.425 35.9544 176.521 35.4763C176.521 33.9463 176.616 32.1295 176.712 31.6513C176.712 31.1732 176.808 30.8864 177.095 30.8864C177.286 30.8864 177.477 31.0776 177.381 31.2689C177.381 31.2689 177.381 31.2689 177.381 31.3645C177.381 31.8426 177.477 32.4163 177.668 32.8945C178.338 34.9982 180.633 35.7632 182.545 35.7632C185.223 35.7632 186.848 34.1376 186.848 32.1295C186.848 30.8864 186.561 29.6433 183.788 28.1133L181.971 27.0614C178.338 24.9577 177.095 23.0452 177.095 20.559C177.095 17.021 180.633 14.8216 184.936 14.8216C186.37 14.8216 187.9 15.0129 189.334 15.2997C189.526 15.2997 189.717 15.491 189.717 15.6822C189.717 16.0647 189.621 16.8297 189.621 19.1247C189.621 19.6984 189.526 20.0809 189.239 20.0809C189.047 20.0809 188.952 19.8897 188.952 19.6028C188.856 18.9334 188.569 18.2641 188.187 17.6903C187.326 16.7341 186.083 16.256 184.744 16.3516C182.545 16.3516 180.537 17.4991 180.537 19.4115C180.537 20.6547 181.015 21.7065 183.788 23.2365L185.031 23.9058C189.143 26.1052 190.386 28.3045 190.386 30.8864C190.386 33.0857 189.239 35.1894 187.326 36.2413C185.796 37.1019 183.979 37.58 182.163 37.3887C180.441 37.2931 178.72 37.0063 177.095 36.4325ZM203.582 29.5476C203.487 29.5476 203.295 29.6433 203.295 29.7389L201.67 33.6594C201.383 34.2332 201.287 34.8069 201.192 35.3807C201.192 35.8588 201.478 36.1456 202.435 36.1456H202.913C203.295 36.1456 203.391 36.2413 203.391 36.4325C203.391 36.6238 203.2 36.7194 202.913 36.7194C201.861 36.7194 200.427 36.6238 199.47 36.6238C199.184 36.6238 197.462 36.7194 195.837 36.7194C195.454 36.7194 195.263 36.6238 195.263 36.4325C195.263 36.2413 195.359 36.1456 195.55 36.1456C195.55 36.1456 195.55 36.1456 195.645 36.1456C195.932 36.1456 196.315 36.1456 196.602 36.1456C198.036 35.9544 198.514 35.0938 199.184 33.5638L207.312 15.5866C207.694 14.8216 207.885 14.4391 208.268 14.4391C208.746 14.4391 208.841 14.726 209.224 15.3954C209.989 17.021 215.153 28.5914 217.065 32.9901C218.213 35.5719 219.169 35.9544 219.743 36.05C220.125 36.1456 220.508 36.1456 220.89 36.1456C221.177 36.1456 221.273 36.2413 221.273 36.4325C221.273 36.6238 221.081 36.7194 219.934 36.7194C218.882 36.7194 216.587 36.7194 214.005 36.6238C213.431 36.6238 213.049 36.6238 213.049 36.4325C213.049 36.2413 213.145 36.1456 213.431 36.1456C213.623 36.05 213.814 35.8588 213.718 35.5719V35.4763L211.328 29.6433C211.328 29.5476 211.136 29.452 211.041 29.452L203.582 29.5476ZM210.18 28.0177C210.276 28.0177 210.371 27.922 210.276 27.8264L207.312 20.6547C207.312 20.559 207.216 20.4634 207.216 20.3678C207.12 20.4634 207.025 20.559 207.025 20.6547L204.06 27.8264C203.965 27.922 204.06 28.0177 204.156 28.0177H210.18ZM227.201 23.4277C227.201 19.0291 227.201 18.2641 227.201 17.3078C227.297 16.5428 226.723 15.8735 225.862 15.7779C225.48 15.6822 225.002 15.6822 224.619 15.6822C224.332 15.6822 224.046 15.5866 224.046 15.3954C224.046 15.2041 224.332 15.1085 224.715 15.1085C226.341 15.1085 228.349 15.2041 228.922 15.2041C230.452 15.2041 232.556 15.1085 233.608 15.1085C239.154 15.1085 240.206 17.8816 240.206 19.4115C240.206 21.6109 238.485 23.3321 236.764 24.4796C239.25 25.2446 242.501 27.3483 242.501 30.6951C242.501 33.7551 240.015 36.9106 234.277 36.9106C233.895 36.9106 232.843 36.9106 231.791 36.815C230.739 36.815 229.687 36.7194 229.114 36.7194C228.731 36.7194 228.062 36.7194 227.392 36.7194C226.627 36.7194 225.862 36.815 225.289 36.815C224.906 36.815 224.715 36.7194 224.715 36.5281C224.715 36.4325 224.811 36.2413 225.193 36.2413C225.576 36.2413 225.958 36.2413 226.245 36.1456C226.914 36.05 227.01 35.4763 227.201 34.6157C227.297 33.3726 227.297 31.1732 227.297 28.4958L227.201 23.4277ZM231.217 23.9058C231.217 24.0015 231.313 24.1927 231.409 24.1927C231.887 24.2883 232.365 24.2883 232.843 24.2883C233.704 24.384 234.564 24.1927 235.234 23.8102C236.19 23.0452 236.668 21.9934 236.668 20.7503C236.668 18.8378 235.52 16.4472 232.843 16.4472C232.365 16.4472 231.982 16.4472 231.504 16.5428C231.313 16.5428 231.217 16.7341 231.217 17.021V23.9058ZM231.217 32.3207C231.217 34.2332 231.313 34.8069 232.269 35.1894C232.939 35.4763 233.704 35.5719 234.469 35.5719C236.094 35.5719 238.293 34.7113 238.293 31.5557C238.198 29.452 237.146 27.5395 235.329 26.4877C234.564 26.0096 233.608 25.7227 232.652 25.7227H231.313C231.217 25.7227 231.122 25.7227 231.122 25.9139L231.217 32.3207ZM252.446 23.4277C252.446 19.0291 252.446 18.2641 252.446 17.3078C252.541 16.6385 252.063 15.9691 251.394 15.7779C251.011 15.6822 250.629 15.6822 250.246 15.6822C249.96 15.6822 249.768 15.5866 249.768 15.2997C249.768 15.1085 250.055 15.1085 250.533 15.1085C251.681 15.1085 253.784 15.2041 254.645 15.2041C255.41 15.2041 257.418 15.1085 258.661 15.1085C259.044 15.1085 259.331 15.2041 259.331 15.2997C259.331 15.5866 259.139 15.6822 258.853 15.6822C258.566 15.6822 258.279 15.6822 257.896 15.7779C257.036 15.8735 256.844 16.3516 256.749 17.3078C256.653 18.2641 256.653 19.0291 256.653 23.4277V28.4958C256.653 31.2689 256.653 33.5638 256.749 34.8069C256.749 35.4763 257.227 36.1456 257.896 36.1456C258.374 36.2413 258.948 36.2413 259.522 36.2413C259.713 36.1456 260 36.3369 260 36.5281C260 36.7194 259.713 36.815 259.426 36.815C257.418 36.815 255.314 36.7194 254.454 36.7194C253.784 36.7194 251.681 36.815 250.438 36.815C250.055 36.815 249.864 36.7194 249.864 36.5281C249.864 36.4325 249.96 36.2413 250.342 36.2413C250.725 36.2413 251.107 36.2413 251.394 36.1456C252.063 36.05 252.159 35.5719 252.35 34.8069C252.446 33.6594 252.446 31.3645 252.446 28.5914V23.4277ZM24.2883 48.7679C10.9011 48.7679 0 37.7712 0 24.384C0 10.9011 10.9967 0 24.384 0C37.8669 0 48.6723 10.9011 48.6723 24.384C48.6723 37.8669 37.7712 48.7679 24.2883 48.7679ZM24.2883 0.956234C11.3792 1.05186 0.956234 11.4748 0.956234 24.4796C0.956234 37.3887 11.4748 47.9073 24.384 47.8117C37.2931 47.8117 47.7161 37.2931 47.7161 24.384C47.7161 11.4748 37.2931 0.956234 24.2883 0.956234ZM22.1846 19.3159C24.384 19.3159 26.7745 20.7503 26.9658 22.7584C27.0614 24.0971 25.9139 25.3402 24.4796 26.1052L24.0971 27.3483C26.2008 26.4877 27.922 24.8621 27.8264 22.7584C27.7308 20.1765 24.7665 18.3597 22.089 18.3597C20.2722 18.3597 9.46672 18.3597 1.52997 18.3597C1.43435 18.6466 1.33873 19.0291 1.2431 19.3159C9.27547 19.3159 20.3678 19.3159 22.1846 19.3159ZM23.3321 31.6513C22.6627 31.6513 20.4634 31.6513 19.794 30.7907C19.5072 30.4082 19.5072 29.8345 19.6984 29.3564C19.9853 28.7826 20.2722 28.2089 20.6547 27.7308C21.5153 26.8702 21.9934 25.6271 21.8978 24.4796C21.6109 22.6627 19.6984 21.8021 17.9772 21.8021C17.2122 21.8021 6.69364 21.8021 0.86061 21.8021C0.86061 22.089 0.764987 22.4715 0.764987 22.7584C6.59801 22.7584 17.1166 22.7584 17.9772 22.7584C19.0291 22.7584 20.7503 23.2365 20.9415 24.5752C20.9415 25.5314 20.559 26.4877 19.8897 27.157C19.4115 27.7308 19.0291 28.4001 18.7422 29.0695C18.4553 29.8345 18.5509 30.6951 18.9334 31.3645C19.794 32.512 21.7065 32.7032 23.2365 32.7032H46.1861C46.2817 32.4163 46.473 32.0338 46.5686 31.747L23.3321 31.6513ZM42.648 38.345C32.4163 38.345 16.8297 38.2494 15.1085 38.2494C12.6223 38.2494 9.65796 37.1019 8.89297 34.52C8.6061 33.6594 8.70173 32.7032 9.17984 31.9382C9.65796 31.1732 10.4229 30.5039 11.1879 30.0257L11.6661 28.7826C10.2317 29.2608 9.08422 30.217 8.31923 31.4601C7.74549 32.512 7.55425 33.6594 7.93674 34.8069C8.89297 37.8669 12.2398 39.2056 15.1085 39.2056C16.8297 39.2056 32.0338 39.3012 42.3612 39.3968C42.648 39.11 42.8393 38.7275 43.1262 38.4406L42.648 38.345ZM20.1765 34.9025C18.8378 34.9025 17.5947 34.9025 16.3516 34.6157C15.491 34.52 14.8216 34.0419 14.4391 33.2769C14.2479 32.7988 14.2479 32.1295 14.5348 31.6513C14.8216 31.2689 15.1085 30.7907 15.3954 30.5039C16.0647 29.8345 16.5428 28.9739 16.8297 28.0177C16.9253 27.3483 16.8297 26.6789 16.3516 26.2008C15.2997 25.0533 13.196 25.0533 11.8573 25.149C9.37109 25.149 4.68555 25.149 0.956234 25.149C0.956234 25.4358 0.956234 25.8183 1.05186 26.1052C4.87679 26.1052 9.46672 26.1052 11.9529 26.1052C12.9092 26.1052 15.0129 26.0096 15.6822 26.8702C15.9691 27.157 15.9691 27.5395 15.9691 27.922C15.7779 28.687 15.3954 29.3564 14.8216 29.9301C14.4391 30.3126 14.1523 30.7907 13.8654 31.2689C13.3873 32.0338 13.3873 32.8944 13.6741 33.7551C14.2479 34.7113 15.2041 35.4763 16.256 35.6675C17.4991 35.8588 18.8378 35.9544 20.1765 35.9544H44.8474C45.0386 35.6675 45.2299 35.285 45.3255 34.9982L20.1765 34.9025Z" fill="#AE9758"/>
</svg>
