<?xml version="1.0" encoding="utf-8"?>
<!-- Generator: Adobe Illustrator 18.1.1, SVG Export Plug-In . SVG Version: 6.00 Build 0)  -->
<!DOCTYPE svg PUBLIC "-//W3C//DTD SVG 1.1//EN" "http://www.w3.org/Graphics/SVG/1.1/DTD/svg11.dtd">
<svg version="1.1" id="レイヤー_1" xmlns="http://www.w3.org/2000/svg" xmlns:xlink="http://www.w3.org/1999/xlink" x="0px"
	 y="0px" width="210px" height="30px" viewBox="0 0 210 30" enable-background="new 0 0 210 30" xml:space="preserve">
<g>
	<path fill="#FFFFFF" d="M0.4,14.9L0.4,14.9c0-8,5.9-14.6,14.2-14.6c5.1,0,8.1,1.8,10.9,4.4l-2.2,2.3c-2.4-2.2-5-3.8-8.8-3.8
		c-6.2,0-10.8,5-10.8,11.5v0.1c0,6.5,4.7,11.6,10.8,11.6c3.8,0,6.4-1.5,9-4l2.1,2c-2.9,3-6.1,4.9-11.2,4.9
		C6.4,29.3,0.4,22.9,0.4,14.9z"/>
	<path fill="#FFFFFF" d="M28.8,14.9L28.8,14.9c0-7.8,5.8-14.6,14.3-14.6S57.3,7,57.3,14.7v0.1c0,7.7-5.8,14.5-14.3,14.5
		S28.8,22.6,28.8,14.9z M54.1,14.9L54.1,14.9c0-6.4-4.6-11.6-11-11.6s-11,5.1-11,11.5v0.1c0,6.4,4.6,11.6,11,11.6
		S54.1,21.3,54.1,14.9z"/>
	<path fill="#FFFFFF" d="M63.9,0.8h3.2l10.2,15.3L87.5,0.8h3.2v28h-3.2V6.2l-10.2,15h-0.2l-10.2-15v22.6h-3.1V0.8z"/>
	<path fill="#FFFFFF" d="M98.6,0.8h10.5c6.3,0,10.5,3.4,10.5,8.9v0.1c0,6-5,9.2-11,9.2h-6.8v9.9h-3.2V0.8z M108.7,16.1
		c4.6,0,7.7-2.5,7.7-6.2V9.8c0-4-3-6.1-7.5-6.1h-7.1v12.3H108.7z"/>
	<path fill="#FFFFFF" d="M132.6,0.6h3l12.8,28.2h-3.4l-3.3-7.4h-15.2l-3.3,7.4h-3.2L132.6,0.6z M140.4,18.5l-6.4-14.2l-6.4,14.2
		H140.4z"/>
	<path fill="#FFFFFF" d="M153.4,0.8h3L174,23.3V0.8h3.1v28h-2.5l-18.1-23v23h-3.1V0.8z"/>
	<path fill="#FFFFFF" d="M193.5,17.7L181.8,0.8h3.8l9.4,14l9.5-14h3.7l-11.6,16.9v11.1h-3.2V17.7z"/>
</g>
</svg>
