<?xml version="1.0" encoding="utf-8"?>
<!-- Generator: Adobe Illustrator 18.1.1, SVG Export Plug-In . SVG Version: 6.00 Build 0)  -->
<!DOCTYPE svg PUBLIC "-//W3C//DTD SVG 1.1//EN" "http://www.w3.org/Graphics/SVG/1.1/DTD/svg11.dtd">
<svg version="1.1" id="レイヤー_1" xmlns="http://www.w3.org/2000/svg" xmlns:xlink="http://www.w3.org/1999/xlink" x="0px"
	 y="0px" viewBox="0 0 820 46" enable-background="new 0 0 820 46" xml:space="preserve">
<g>
	<path fill="#FFFFFF" d="M1.2,34V3.8h5.4c1.6,0,3,0.1,4.2,0.3s2.5,0.6,3.6,1.2s2.3,1.3,3.3,2.3c1.5,1.4,2.7,3.1,3.6,5.1
		s1.2,4,1.2,6.2c0,2.1-0.4,4.1-1.2,6c-0.8,1.9-1.9,3.6-3.4,5c-0.8,0.8-1.6,1.4-2.5,2s-1.8,0.9-2.7,1.2s-1.9,0.5-2.9,0.6
		S7.9,34,6.7,34H1.2z M3.2,32.2h3.5c2.1,0,4-0.3,5.6-0.8s3.1-1.5,4.5-2.8c1.3-1.3,2.3-2.8,3-4.4c0.7-1.7,1-3.4,1-5.2
		c0-1.9-0.4-3.8-1.1-5.5s-1.8-3.3-3.2-4.5C15,7.7,13.6,6.8,12,6.4S8.7,5.6,6.6,5.6H3.2V32.2z"/>
	<path fill="#FFFFFF" d="M44.8,24.9h-16c0,1.6,0.3,2.9,1,4.1s1.5,2.1,2.7,2.7s2.4,1,3.8,1c1.4,0,2.7-0.4,3.8-1.1s2-1.8,2.7-3.1
		l1.5,0.9c-0.8,1.6-2,2.8-3.4,3.7s-3.1,1.3-4.9,1.3c-1.8,0-3.3-0.4-4.7-1.3s-2.4-2-3.2-3.5S27,26.5,27,24.7c0-1.7,0.4-3.3,1.1-4.8
		s1.8-2.6,3.2-3.5s2.9-1.3,4.7-1.3c1.8,0,3.4,0.4,4.7,1.3s2.4,2.1,3.1,3.6S44.8,23.1,44.8,24.9z M28.8,23.2H43
		c-0.1-1.1-0.5-2.2-1.2-3.2s-1.5-1.8-2.5-2.4s-2.1-0.9-3.4-0.9s-2.4,0.3-3.4,0.9S30.6,19,29.9,20S28.9,22.1,28.8,23.2z"/>
	<path fill="#FFFFFF" d="M49,15.5l6.7,15.2l6.6-15.2h1.8L55.6,35l-8.5-19.5H49z"/>
	<path fill="#FFFFFF" d="M84.2,24.9h-16c0,1.6,0.3,2.9,1,4.1s1.5,2.1,2.7,2.7s2.4,1,3.8,1c1.4,0,2.7-0.4,3.8-1.1s2-1.8,2.7-3.1
		l1.5,0.9c-0.8,1.6-2,2.8-3.4,3.7s-3.1,1.3-4.9,1.3c-1.8,0-3.3-0.4-4.7-1.3s-2.4-2-3.2-3.5s-1.1-3.1-1.1-4.8c0-1.7,0.4-3.3,1.1-4.8
		s1.8-2.6,3.2-3.5s2.9-1.3,4.7-1.3c1.8,0,3.4,0.4,4.7,1.3s2.4,2.1,3.1,3.6S84.2,23.1,84.2,24.9z M68.2,23.2h14.2
		c-0.1-1.1-0.5-2.2-1.2-3.2s-1.5-1.8-2.5-2.4s-2.1-0.9-3.4-0.9S73,17.1,72,17.7S70,19,69.4,20S68.3,22.1,68.2,23.2z"/>
	<path fill="#FFFFFF" d="M91.6,1v33h-1.8V1H91.6z"/>
	<path fill="#FFFFFF" d="M106.9,15.1c1.4,0,2.6,0.2,3.8,0.7s2.2,1.2,3.1,2s1.6,1.9,2.1,3.1s0.7,2.4,0.7,3.8c0,1.8-0.4,3.4-1.3,4.9
		s-2,2.6-3.5,3.5s-3.1,1.3-4.9,1.3c-1.7,0-3.3-0.4-4.8-1.3s-2.6-2-3.5-3.5s-1.3-3.1-1.3-4.8c0-1.7,0.4-3.4,1.3-4.8s2-2.7,3.5-3.5
		S105.2,15.1,106.9,15.1z M106.8,16.8c-1.4,0-2.7,0.4-3.9,1.1s-2.1,1.7-2.8,2.9s-1,2.6-1,4c0,1.4,0.3,2.7,1,3.9s1.6,2.2,2.8,2.9
		s2.5,1.1,3.9,1.1c1.5,0,2.8-0.3,4.1-1s2.2-1.7,2.9-2.9s1.1-2.5,1.1-4c0-1.5-0.4-2.9-1.1-4.1s-1.7-2.2-2.9-2.9
		S108.3,16.8,106.8,16.8z"/>
	<path fill="#FFFFFF" d="M124.1,15.5v3.3h0.1c0.7-1.1,1.7-2.1,3-2.7s2.7-1,4.1-1c1.4,0,2.6,0.2,3.8,0.7s2.1,1.2,2.9,2.1
		s1.4,2,1.8,3.1s0.6,2.4,0.6,3.8c0,1.8-0.4,3.4-1.1,4.9s-1.8,2.6-3.2,3.4s-3,1.2-4.8,1.2c-1.5,0-2.8-0.3-4.1-0.9s-2.3-1.5-3-2.7
		h-0.1v14h-1.8V15.5H124.1z M131.3,16.8c-1.5,0-2.8,0.4-3.9,1.1s-1.9,1.8-2.5,3.1s-0.9,2.7-0.9,4.2c0,1.4,0.3,2.7,0.9,3.9
		s1.5,2.1,2.6,2.7s2.4,1,3.8,1c1.4,0,2.6-0.4,3.7-1.1s2-1.7,2.6-2.9s0.9-2.5,0.9-3.8c0-1.4-0.3-2.8-0.9-4s-1.4-2.2-2.5-3
		S132.7,16.8,131.3,16.8z"/>
	<path fill="#FFFFFF" d="M163.1,17.2V34h-1.8V17.2h-2v-1.7h2V8.9h1.8v6.6h3.2v1.7H163.1z"/>
	<path fill="#FFFFFF" d="M170.9,1h1.8v17.4h0.1c0.5-1,1.3-1.8,2.3-2.4s2-0.9,3.2-0.9c1.5,0,2.8,0.3,3.7,0.9s1.5,1.5,1.9,2.6
		s0.5,2.5,0.5,4.2V34h-1.8V22.8c0-1.3-0.1-2.4-0.3-3.2s-0.6-1.5-1.3-2.1s-1.6-0.8-2.9-0.8c-1.4,0-2.6,0.4-3.4,1.2s-1.3,1.8-1.6,2.9
		s-0.4,2.5-0.4,4V34h-1.8V1z"/>
	<path fill="#FFFFFF" d="M207.8,24.9h-16c0,1.6,0.3,2.9,1,4.1s1.5,2.1,2.7,2.7s2.4,1,3.8,1c1.4,0,2.7-0.4,3.8-1.1s2-1.8,2.7-3.1
		l1.5,0.9c-0.8,1.6-2,2.8-3.4,3.7s-3.1,1.3-4.9,1.3c-1.8,0-3.3-0.4-4.7-1.3s-2.4-2-3.2-3.5s-1.1-3.1-1.1-4.8c0-1.7,0.4-3.3,1.1-4.8
		s1.8-2.6,3.2-3.5s2.9-1.3,4.7-1.3c1.8,0,3.4,0.4,4.7,1.3s2.4,2.1,3.1,3.6S207.8,23.1,207.8,24.9z M191.8,23.2H206
		c-0.1-1.1-0.5-2.2-1.2-3.2s-1.5-1.8-2.5-2.4s-2.1-0.9-3.4-0.9s-2.4,0.3-3.4,0.9s-1.9,1.4-2.6,2.4S191.9,22.1,191.8,23.2z"/>
	<path fill="#FFFFFF" d="M230.4,17.2V34h-1.8V17.2h-2v-1.7h2V7.2c0-2.2,0.2-3.7,0.7-4.5c0.4-0.7,1-1.3,1.7-1.7s1.5-0.6,2.4-0.6
		c0.6,0,1.1,0.1,1.6,0.3v1.6c-0.2,0-0.4-0.1-0.6-0.1s-0.3-0.1-0.5-0.1s-0.3,0-0.4,0c-1.4,0-2.2,0.5-2.6,1.5s-0.6,2.3-0.6,4v7.9h4.6
		v1.7H230.4z"/>
	<path fill="#FFFFFF" d="M250.9,15.5h1.8v11.1c0,1.3-0.1,2.3-0.2,3.1s-0.4,1.5-0.9,2.2c-0.6,0.8-1.4,1.4-2.4,1.8s-2,0.6-3.1,0.6
		c-1.1,0-2.1-0.2-3.1-0.6s-1.8-1-2.4-1.8c-0.3-0.5-0.6-1-0.8-1.6s-0.3-1.1-0.3-1.7s-0.1-1.2-0.1-2.1V15.5h1.8V26
		c0,1,0.1,1.9,0.2,2.7s0.3,1.5,0.6,2.1s0.8,1.1,1.5,1.5s1.5,0.5,2.6,0.5c2,0,3.3-0.6,3.9-1.7s0.9-2.8,0.9-5V15.5z"/>
	<path fill="#FFFFFF" d="M261.7,17.2V34h-1.8V17.2h-2v-1.7h2V8.9h1.8v6.6h3.2v1.7H261.7z"/>
	<path fill="#FFFFFF" d="M280.8,15.5h1.8v11.1c0,1.3-0.1,2.3-0.2,3.1s-0.4,1.5-0.9,2.2c-0.6,0.8-1.4,1.4-2.4,1.8s-2,0.6-3.1,0.6
		c-1.1,0-2.1-0.2-3.1-0.6s-1.8-1-2.4-1.8c-0.3-0.5-0.6-1-0.8-1.6s-0.3-1.1-0.3-1.7s-0.1-1.2-0.1-2.1V15.5h1.8V26
		c0,1,0.1,1.9,0.2,2.7s0.3,1.5,0.6,2.1s0.8,1.1,1.5,1.5s1.5,0.5,2.6,0.5c2,0,3.3-0.6,3.9-1.7s0.9-2.8,0.9-5V15.5z"/>
	<path fill="#FFFFFF" d="M291.3,15.5v2.4h0.1c0.8-1.9,2.1-2.8,4-2.8c0.6,0,1.3,0.1,2,0.4l-1,1.6c-0.4-0.2-0.9-0.4-1.3-0.4
		c-1.1,0-1.9,0.3-2.5,1s-0.9,1.5-1.1,2.5s-0.2,2.1-0.2,3.3v0.9V34h-1.8V15.5H291.3z"/>
	<path fill="#FFFFFF" d="M317.1,24.9h-16c0,1.6,0.3,2.9,1,4.1s1.5,2.1,2.7,2.7s2.4,1,3.8,1c1.4,0,2.7-0.4,3.8-1.1s2-1.8,2.7-3.1
		l1.5,0.9c-0.8,1.6-2,2.8-3.4,3.7s-3.1,1.3-4.9,1.3c-1.8,0-3.3-0.4-4.7-1.3s-2.4-2-3.2-3.5s-1.1-3.1-1.1-4.8c0-1.7,0.4-3.3,1.1-4.8
		s1.8-2.6,3.2-3.5s2.9-1.3,4.7-1.3c1.8,0,3.4,0.4,4.7,1.3s2.4,2.1,3.1,3.6S317.1,23.1,317.1,24.9z M301,23.2h14.2
		c-0.1-1.1-0.5-2.2-1.2-3.2s-1.5-1.8-2.5-2.4s-2.1-0.9-3.4-0.9s-2.4,0.3-3.4,0.9s-1.9,1.4-2.6,2.4S301.1,22.1,301,23.2z"/>
	<path fill="#FFFFFF" d="M345.6,15.1c1.4,0,2.6,0.2,3.8,0.7s2.2,1.2,3.1,2s1.6,1.9,2.1,3.1s0.7,2.4,0.7,3.8c0,1.8-0.4,3.4-1.3,4.9
		s-2,2.6-3.5,3.5s-3.1,1.3-4.9,1.3c-1.7,0-3.3-0.4-4.8-1.3s-2.6-2-3.5-3.5s-1.3-3.1-1.3-4.8c0-1.7,0.4-3.4,1.3-4.8s2-2.7,3.5-3.5
		S343.9,15.1,345.6,15.1z M345.5,16.8c-1.4,0-2.7,0.4-3.9,1.1s-2.1,1.7-2.8,2.9s-1,2.6-1,4c0,1.4,0.3,2.7,1,3.9s1.6,2.2,2.8,2.9
		s2.5,1.1,3.9,1.1c1.5,0,2.8-0.3,4.1-1s2.2-1.7,2.9-2.9s1.1-2.5,1.1-4c0-1.5-0.4-2.9-1.1-4.1s-1.7-2.2-2.9-2.9S347,16.8,345.5,16.8z
		"/>
	<path fill="#FFFFFF" d="M362.8,17.2V34H361V17.2h-2v-1.7h2V7.2c0-2.2,0.2-3.7,0.7-4.5c0.4-0.7,1-1.3,1.7-1.7s1.5-0.6,2.4-0.6
		c0.6,0,1.1,0.1,1.6,0.3v1.6c-0.2,0-0.4-0.1-0.6-0.1s-0.3-0.1-0.5-0.1s-0.3,0-0.4,0c-1.4,0-2.2,0.5-2.6,1.5s-0.6,2.3-0.6,4v7.9h4.6
		v1.7H362.8z"/>
	<path fill="#FFFFFF" d="M401.4,34v-3.3h-0.1c-0.7,1.1-1.6,2-3,2.7s-2.7,1-4.1,1c-1.8,0-3.4-0.4-4.8-1.3s-2.5-2-3.2-3.5
		s-1.1-3.1-1.1-4.9c0-1.4,0.2-2.6,0.6-3.8s1-2.2,1.8-3s1.7-1.5,2.9-2s2.4-0.7,3.7-0.7c1.4,0,2.8,0.3,4.1,0.9s2.3,1.5,3.1,2.7h0.1V1
		h1.8v33H401.4z M394.3,32.7c1.5,0,2.8-0.4,3.9-1.1s1.9-1.8,2.5-3s0.8-2.6,0.8-4.1c0-1.1-0.2-2-0.5-3s-0.8-1.7-1.5-2.4
		s-1.4-1.2-2.3-1.6s-1.9-0.6-3-0.6c-1,0-2,0.2-2.9,0.6s-1.6,1-2.3,1.8s-1.1,1.6-1.5,2.5s-0.5,1.9-0.5,2.9c0,1.4,0.3,2.8,0.9,4
		s1.5,2.2,2.6,3S392.8,32.7,394.3,32.7z"/>
	<path fill="#FFFFFF" d="M411.6,7.7c0.5,0,0.9,0.2,1.2,0.5s0.5,0.7,0.5,1.2c0,0.5-0.2,0.9-0.5,1.2S412,11,411.6,11s-0.8-0.2-1.2-0.5
		s-0.5-0.7-0.5-1.2c0-0.4,0.2-0.8,0.5-1.1S411.1,7.7,411.6,7.7z M412.4,15.5V34h-1.8V15.5H412.4z"/>
	<path fill="#FFFFFF" d="M436.5,15.5v17.6c0,1.8-0.1,3.3-0.3,4.4s-0.7,2.3-1.5,3.4c-0.8,1.2-1.9,2-3.2,2.6s-2.7,0.9-4.2,0.9
		c-1.6,0-3.1-0.3-4.5-0.9c-1.4-0.6-2.4-1.5-3.3-2.7s-1.3-2.6-1.4-4.3h1.8c0.1,1.2,0.4,2.3,1.1,3.3s1.5,1.7,2.6,2.2s2.2,0.8,3.5,0.8
		c1.2,0,2.3-0.2,3.4-0.7s1.9-1.1,2.5-2.1c0.7-1,1.1-2,1.3-3.1s0.3-2.4,0.3-3.9v-2.3h-0.1c-0.8,1.1-1.9,2-3.2,2.6s-2.6,1-4,1
		c-1.7,0-3.3-0.4-4.7-1.3s-2.4-2.1-3.2-3.6s-1.1-3.1-1.1-4.8c0-1.8,0.4-3.4,1.2-4.8s1.9-2.6,3.3-3.5s3-1.3,4.8-1.3
		c2.9,0,5.2,1.2,7,3.6h0.1v-3.2H436.5z M427.4,16.8c-1,0-2,0.2-2.9,0.6s-1.6,1-2.3,1.8s-1.1,1.6-1.5,2.5s-0.5,1.9-0.5,2.9
		c0,1.4,0.3,2.8,0.9,4s1.5,2.2,2.6,3s2.4,1.1,3.8,1.1c1.5,0,2.8-0.4,3.9-1.1s1.9-1.8,2.5-3s0.8-2.6,0.8-4.1c0-1.4-0.3-2.7-0.9-3.9
		s-1.5-2.1-2.6-2.8S428.9,16.8,427.4,16.8z"/>
	<path fill="#FFFFFF" d="M444.8,7.7c0.5,0,0.9,0.2,1.2,0.5s0.5,0.7,0.5,1.2c0,0.5-0.2,0.9-0.5,1.2s-0.7,0.5-1.2,0.5
		s-0.8-0.2-1.2-0.5s-0.5-0.7-0.5-1.2c0-0.4,0.2-0.8,0.5-1.1S444.4,7.7,444.8,7.7z M445.7,15.5V34h-1.8V15.5H445.7z"/>
	<path fill="#FFFFFF" d="M455.2,17.2V34h-1.8V17.2h-2v-1.7h2V8.9h1.8v6.6h3.2v1.7H455.2z"/>
	<path fill="#FFFFFF" d="M479.1,15.5V34h-1.8v-3.3h-0.1c-0.7,1.1-1.6,2-3,2.7s-2.7,1-4.1,1c-1.8,0-3.4-0.4-4.8-1.3s-2.5-2-3.2-3.5
		s-1.1-3.1-1.1-4.9c0-1.4,0.2-2.6,0.6-3.8s1-2.2,1.8-3s1.7-1.5,2.9-2s2.4-0.7,3.7-0.7c1.4,0,2.8,0.3,4.1,0.9s2.3,1.5,3.1,2.7h0.1
		v-3.2H479.1z M470,16.8c-1,0-2,0.2-2.9,0.6s-1.6,1-2.3,1.8s-1.1,1.6-1.5,2.5s-0.5,1.9-0.5,2.9c0,1.4,0.3,2.8,0.9,4s1.5,2.2,2.6,3
		s2.4,1.1,3.8,1.1c1.5,0,2.8-0.4,3.9-1.1s1.9-1.8,2.5-3s0.8-2.6,0.8-4.1c0-1.1-0.2-2-0.5-3s-0.8-1.7-1.5-2.4s-1.4-1.2-2.3-1.6
		S471.1,16.8,470,16.8z"/>
	<path fill="#FFFFFF" d="M487.9,1v33h-1.8V1H487.9z"/>
	<path fill="#FFFFFF" d="M526.7,15.5V34h-1.8v-3.3h-0.1c-0.7,1.1-1.6,2-3,2.7s-2.7,1-4.1,1c-1.8,0-3.4-0.4-4.8-1.3s-2.5-2-3.2-3.5
		s-1.1-3.1-1.1-4.9c0-1.4,0.2-2.6,0.6-3.8s1-2.2,1.8-3s1.7-1.5,2.9-2s2.4-0.7,3.7-0.7c1.4,0,2.8,0.3,4.1,0.9s2.3,1.5,3.1,2.7h0.1
		v-3.2H526.7z M517.7,16.8c-1,0-2,0.2-2.9,0.6s-1.6,1-2.3,1.8s-1.1,1.6-1.5,2.5s-0.5,1.9-0.5,2.9c0,1.4,0.3,2.8,0.9,4s1.5,2.2,2.6,3
		s2.4,1.1,3.8,1.1c1.5,0,2.8-0.4,3.9-1.1s1.9-1.8,2.5-3s0.8-2.6,0.8-4.1c0-1.1-0.2-2-0.5-3s-0.8-1.7-1.5-2.4s-1.4-1.2-2.3-1.6
		S518.8,16.8,517.7,16.8z"/>
	<path fill="#FFFFFF" d="M545.1,15.5h1.8v11.1c0,1.3-0.1,2.3-0.2,3.1s-0.4,1.5-0.9,2.2c-0.6,0.8-1.4,1.4-2.4,1.8s-2,0.6-3.1,0.6
		c-1.1,0-2.1-0.2-3.1-0.6s-1.8-1-2.4-1.8c-0.3-0.5-0.6-1-0.8-1.6s-0.3-1.1-0.3-1.7s-0.1-1.2-0.1-2.1V15.5h1.8V26
		c0,1,0.1,1.9,0.2,2.7s0.3,1.5,0.6,2.1s0.8,1.1,1.5,1.5s1.5,0.5,2.6,0.5c2,0,3.3-0.6,3.9-1.7s0.9-2.8,0.9-5V15.5z"/>
	<path fill="#FFFFFF" d="M568.6,34v-3.3h-0.1c-0.7,1.1-1.6,2-3,2.7s-2.7,1-4.1,1c-1.8,0-3.4-0.4-4.8-1.3s-2.5-2-3.2-3.5
		s-1.1-3.1-1.1-4.9c0-1.4,0.2-2.6,0.6-3.8s1-2.2,1.8-3s1.7-1.5,2.9-2s2.4-0.7,3.7-0.7c1.4,0,2.8,0.3,4.1,0.9s2.3,1.5,3.1,2.7h0.1V1
		h1.8v33H568.6z M561.5,32.7c1.5,0,2.8-0.4,3.9-1.1s1.9-1.8,2.5-3s0.8-2.6,0.8-4.1c0-1.1-0.2-2-0.5-3s-0.8-1.7-1.5-2.4
		s-1.4-1.2-2.3-1.6s-1.9-0.6-3-0.6c-1,0-2,0.2-2.9,0.6s-1.6,1-2.3,1.8s-1.1,1.6-1.5,2.5s-0.5,1.9-0.5,2.9c0,1.4,0.3,2.8,0.9,4
		s1.5,2.2,2.6,3S560,32.7,561.5,32.7z"/>
	<path fill="#FFFFFF" d="M578.8,7.7c0.5,0,0.9,0.2,1.2,0.5s0.5,0.7,0.5,1.2c0,0.5-0.2,0.9-0.5,1.2s-0.7,0.5-1.2,0.5
		s-0.8-0.2-1.2-0.5s-0.5-0.7-0.5-1.2c0-0.4,0.2-0.8,0.5-1.1S578.3,7.7,578.8,7.7z M579.7,15.5V34h-1.8V15.5H579.7z"/>
	<path fill="#FFFFFF" d="M595.1,15.1c1.4,0,2.6,0.2,3.8,0.7s2.2,1.2,3.1,2s1.6,1.9,2.1,3.1s0.7,2.4,0.7,3.8c0,1.8-0.4,3.4-1.3,4.9
		s-2,2.6-3.5,3.5s-3.1,1.3-4.9,1.3c-1.7,0-3.3-0.4-4.8-1.3s-2.6-2-3.5-3.5s-1.3-3.1-1.3-4.8c0-1.7,0.4-3.4,1.3-4.8s2-2.7,3.5-3.5
		S593.3,15.1,595.1,15.1z M595,16.8c-1.4,0-2.7,0.4-3.9,1.1s-2.1,1.7-2.8,2.9s-1,2.6-1,4c0,1.4,0.3,2.7,1,3.9s1.6,2.2,2.8,2.9
		s2.5,1.1,3.9,1.1c1.5,0,2.8-0.3,4.1-1s2.2-1.7,2.9-2.9s1.1-2.5,1.1-4c0-1.5-0.4-2.9-1.1-4.1s-1.7-2.2-2.9-2.9S596.5,16.8,595,16.8z
		"/>
	<path fill="#FFFFFF" d="M627.7,3.8V34h-1.9V3.8H627.7z"/>
	<path fill="#FFFFFF" d="M637,15.5v2.9h0.1c0.5-1,1.3-1.8,2.3-2.4s2-0.9,3.2-0.9c1.5,0,2.8,0.3,3.7,0.9s1.5,1.5,1.9,2.6
		s0.5,2.5,0.5,4.2V34h-1.8V22.8c0-1.3-0.1-2.4-0.3-3.2s-0.6-1.5-1.3-2.1s-1.6-0.8-2.9-0.8c-1.4,0-2.6,0.4-3.4,1.2s-1.3,1.8-1.6,2.9
		s-0.4,2.5-0.4,4V34h-1.8V15.5H637z"/>
	<path fill="#FFFFFF" d="M657.5,15.5v2.9h0.1c0.5-1,1.3-1.8,2.3-2.4s2-0.9,3.2-0.9c1.5,0,2.8,0.3,3.7,0.9s1.5,1.5,1.9,2.6
		s0.5,2.5,0.5,4.2V34h-1.8V22.8c0-1.3-0.1-2.4-0.3-3.2s-0.6-1.5-1.3-2.1s-1.6-0.8-2.9-0.8c-1.4,0-2.6,0.4-3.4,1.2s-1.3,1.8-1.6,2.9
		s-0.4,2.5-0.4,4V34h-1.8V15.5H657.5z"/>
	<path fill="#FFFFFF" d="M684.3,15.1c1.4,0,2.6,0.2,3.8,0.7s2.2,1.2,3.1,2s1.6,1.9,2.1,3.1s0.7,2.4,0.7,3.8c0,1.8-0.4,3.4-1.3,4.9
		s-2,2.6-3.5,3.5s-3.1,1.3-4.9,1.3c-1.7,0-3.3-0.4-4.8-1.3s-2.6-2-3.5-3.5s-1.3-3.1-1.3-4.8c0-1.7,0.4-3.4,1.3-4.8s2-2.7,3.5-3.5
		S682.5,15.1,684.3,15.1z M684.2,16.8c-1.4,0-2.7,0.4-3.9,1.1s-2.1,1.7-2.8,2.9s-1,2.6-1,4c0,1.4,0.3,2.7,1,3.9s1.6,2.2,2.8,2.9
		s2.5,1.1,3.9,1.1c1.5,0,2.8-0.3,4.1-1s2.2-1.7,2.9-2.9s1.1-2.5,1.1-4c0-1.5-0.4-2.9-1.1-4.1s-1.7-2.2-2.9-2.9
		S685.7,16.8,684.2,16.8z"/>
	<path fill="#FFFFFF" d="M698.1,15.5l6.7,15.2l6.6-15.2h1.8L704.8,35l-8.5-19.5H698.1z"/>
	<path fill="#FFFFFF" d="M733.6,15.5V34h-1.8v-3.3h-0.1c-0.7,1.1-1.6,2-3,2.7s-2.7,1-4.1,1c-1.8,0-3.4-0.4-4.8-1.3s-2.5-2-3.2-3.5
		s-1.1-3.1-1.1-4.9c0-1.4,0.2-2.6,0.6-3.8s1-2.2,1.8-3s1.7-1.5,2.9-2s2.4-0.7,3.7-0.7c1.4,0,2.8,0.3,4.1,0.9s2.3,1.5,3.1,2.7h0.1
		v-3.2H733.6z M724.6,16.8c-1,0-2,0.2-2.9,0.6s-1.6,1-2.3,1.8s-1.1,1.6-1.5,2.5s-0.5,1.9-0.5,2.9c0,1.4,0.3,2.8,0.9,4s1.5,2.2,2.6,3
		s2.4,1.1,3.8,1.1c1.5,0,2.8-0.4,3.9-1.1s1.9-1.8,2.5-3s0.8-2.6,0.8-4.1c0-1.1-0.2-2-0.5-3s-0.8-1.7-1.5-2.4s-1.4-1.2-2.3-1.6
		S725.7,16.8,724.6,16.8z"/>
	<path fill="#FFFFFF" d="M742.8,17.2V34H741V17.2h-2v-1.7h2V8.9h1.8v6.6h3.2v1.7H742.8z"/>
	<path fill="#FFFFFF" d="M751.8,7.7c0.5,0,0.9,0.2,1.2,0.5s0.5,0.7,0.5,1.2c0,0.5-0.2,0.9-0.5,1.2s-0.7,0.5-1.2,0.5
		s-0.8-0.2-1.2-0.5s-0.5-0.7-0.5-1.2c0-0.4,0.2-0.8,0.5-1.1S751.4,7.7,751.8,7.7z M752.7,15.5V34h-1.8V15.5H752.7z"/>
	<path fill="#FFFFFF" d="M768.2,15.1c1.4,0,2.6,0.2,3.8,0.7s2.2,1.2,3.1,2s1.6,1.9,2.1,3.1s0.7,2.4,0.7,3.8c0,1.8-0.4,3.4-1.3,4.9
		s-2,2.6-3.5,3.5s-3.1,1.3-4.9,1.3c-1.7,0-3.3-0.4-4.8-1.3s-2.6-2-3.5-3.5s-1.3-3.1-1.3-4.8c0-1.7,0.4-3.4,1.3-4.8s2-2.7,3.5-3.5
		S766.4,15.1,768.2,15.1z M768,16.8c-1.4,0-2.7,0.4-3.9,1.1s-2.1,1.7-2.8,2.9s-1,2.6-1,4c0,1.4,0.3,2.7,1,3.9s1.6,2.2,2.8,2.9
		s2.5,1.1,3.9,1.1c1.5,0,2.8-0.3,4.1-1s2.2-1.7,2.9-2.9s1.1-2.5,1.1-4c0-1.5-0.4-2.9-1.1-4.1s-1.7-2.2-2.9-2.9S769.5,16.8,768,16.8z
		"/>
	<path fill="#FFFFFF" d="M785.4,15.5v2.9h0.1c0.5-1,1.3-1.8,2.3-2.4s2-0.9,3.2-0.9c1.5,0,2.8,0.3,3.7,0.9s1.5,1.5,1.9,2.6
		s0.5,2.5,0.5,4.2V34h-1.8V22.8c0-1.3-0.1-2.4-0.3-3.2s-0.6-1.5-1.3-2.1s-1.6-0.8-2.9-0.8c-1.4,0-2.6,0.4-3.4,1.2s-1.3,1.8-1.6,2.9
		s-0.4,2.5-0.4,4V34h-1.8V15.5H785.4z"/>
	<path fill="#FFFFFF" d="M806.1,31.1c0.5,0,0.9,0.2,1.2,0.5s0.5,0.7,0.5,1.2s-0.2,0.9-0.5,1.2s-0.7,0.5-1.2,0.5s-0.8-0.2-1.2-0.5
		s-0.5-0.7-0.5-1.2s0.2-0.8,0.5-1.2S805.7,31.1,806.1,31.1z"/>
</g>
</svg>
