<?xml version="1.0" encoding="utf-8"?>
<!-- Generator: Adobe Illustrator 18.1.1, SVG Export Plug-In . SVG Version: 6.00 Build 0)  -->
<!DOCTYPE svg PUBLIC "-//W3C//DTD SVG 1.1//EN" "http://www.w3.org/Graphics/SVG/1.1/DTD/svg11.dtd">
<svg version="1.1" id="レイヤー_1" xmlns="http://www.w3.org/2000/svg" xmlns:xlink="http://www.w3.org/1999/xlink" x="0px"
	 y="0px" width="200px" height="51px" viewBox="-90 -5.5 200 51" enable-background="new -90 -5.5 200 51" xml:space="preserve">
<g id="レイヤー_5">
	<path fill="#FFFFFF" d="M-68.3,25l-0.8,0.8c1.4,1.2,3.1,2,5.1,2.1v-1.2C-65.7,26.6-67.2,26-68.3,25z"/>
	<path fill="#FFFFFF" d="M-63.4,26.7v1.2c1.9-0.1,3.7-0.8,5.1-2.1l-0.9-0.8C-60.4,26-61.8,26.6-63.4,26.7z"/>
	<path fill="#FFFFFF" d="M-64,13.2V12c-2,0.1-3.9,0.9-5.2,2.2l0.8,0.8C-67.2,14-65.8,13.2-64,13.2z"/>
	<path fill="#FFFFFF" d="M-70.6,19.8c0.1-1.7,0.7-3.2,1.7-4.3l-0.8-0.9c-1.2,1.4-2,3.2-2.1,5.2H-70.6z"/>
	<path fill="#FFFFFF" d="M-59.1,15l0.8-0.8c-1.4-1.3-3.2-2.1-5.2-2.2v1.2C-61.8,13.2-60.2,14-59.1,15z"/>
	<path fill="#FFFFFF" d="M-70.6,20.4h-1.2c0.1,1.9,0.9,3.7,2.2,5.1l0.8-0.8C-69.8,23.4-70.4,22-70.6,20.4z"/>
	<path fill="#FFFFFF" d="M-74.6,20.4H-76c0.1,3.1,1.4,5.9,3.5,8l1-1C-73.4,25.7-74.5,23.1-74.6,20.4z"/>
	<path fill="#FFFFFF" d="M-71.7,12.5l-1-0.9c-2,2.2-3.3,5.1-3.3,8.2h1.4C-74.6,16.9-73.5,14.4-71.7,12.5z"/>
	<path fill="#FFFFFF" d="M-56.2,12.1l1-1c-2.2-2.1-5.1-3.3-8.2-3.5v1.4C-60.6,9.1-58.1,10.4-56.2,12.1z"/>
	<path fill="#FFFFFF" d="M-63.4,30.9v1.4c3.1-0.1,5.9-1.3,8-3.3l-1-1C-58.2,29.7-60.7,30.7-63.4,30.9z"/>
	<path fill="#FFFFFF" d="M-71.2,27.9l-1,1c2.2,2,5,3.3,8,3.3v-1.4C-66.8,30.7-69.3,29.7-71.2,27.9z"/>
	<path fill="#FFFFFF" d="M-71.2,12.1c1.9-1.8,4.4-3,7.2-3.1V7.7c-3.2,0.1-6,1.4-8.2,3.5L-71.2,12.1z"/>
	<path fill="#FFFFFF" d="M-64,5.1V3.6c-4.3,0.1-8.3,1.8-11.2,4.7l1,1C-71.5,6.7-68,5.1-64,5.1z"/>
	<path fill="#FFFFFF" d="M-63.4,5.1c3.9,0.1,7.5,1.7,10.1,4.3l1-1c-2.9-2.8-6.8-4.6-11.2-4.7C-63.4,3.6-63.4,5.1-63.4,5.1z"/>
	<path fill="#FFFFFF" d="M-78.7,20.4h-1.4c0.1,4.3,1.8,8.2,4.7,11.1l1-1C-77,27.8-78.6,24.2-78.7,20.4z"/>
	<path fill="#FFFFFF" d="M-74.1,30.8l-1,1c2.9,2.8,6.8,4.5,11.1,4.6V35C-67.9,34.9-71.5,33.3-74.1,30.8z"/>
	<path fill="#FFFFFF" d="M-74.6,9.7l-1-1c-2.8,2.9-4.5,6.8-4.6,11.2h1.5C-78.6,15.8-77.1,12.3-74.6,9.7z"/>
	<path fill="#FFFFFF" d="M-63.4,34.9v1.4c4.3-0.1,8.2-1.8,11.1-4.6l-1-1C-56.1,33.3-59.6,34.9-63.4,34.9z"/>
	<path fill="#FFFFFF" d="M-76.9,33.7l-1.2,1.2c3.7,3.5,8.6,5.7,14,5.8V39C-69.1,39-73.6,37-76.9,33.7z"/>
	<path fill="#FFFFFF" d="M-82.8,20.4h-1.7c0.1,5.5,2.3,10.4,5.9,14l1.2-1.2C-80.7,29.9-82.7,25.4-82.8,20.4z"/>
	<path fill="#FFFFFF" d="M-64,1v-1.7c-5.5,0.1-10.5,2.3-14.2,5.9l1.1,1.1C-73.7,3-69.1,1-64,1z"/>
	<path fill="#FFFFFF" d="M-50.4,6.3l1.2-1.2c-3.7-3.5-8.7-5.7-14.2-5.9V1C-58.4,1-53.8,3-50.4,6.3z"/>
	<path fill="#FFFFFF" d="M-63.4,39v1.7c5.5-0.1,10.4-2.2,14-5.8l-1.2-1.2C-53.9,37-58.5,39-63.4,39z"/>
	<path fill="#FFFFFF" d="M-77.5,6.8l-1.2-1.2c-3.5,3.7-5.7,8.7-5.8,14.2h1.7C-82.8,14.7-80.7,10.2-77.5,6.8z"/>
	<path fill="#FFFFFF" d="M-63.4,43.1v1.8c6.7-0.1,12.7-2.7,17-7.1l-1.2-1.2C-51.7,40.5-57.3,43-63.4,43.1z"/>
	<path fill="#FFFFFF" d="M-79.8,36.6l-1.3,1.3c4.4,4.3,10.4,7,17,7.1v-1.8C-70.2,43-75.7,40.5-79.8,36.6z"/>
	<path fill="#FFFFFF" d="M-80.4,3.9l-1.2-1.2c-4.3,4.4-7,10.4-7.1,17.2h1.8C-86.9,13.6-84.4,8-80.4,3.9z"/>
	<path fill="#FFFFFF" d="M-64-3.1v-1.8c-6.7,0-12.8,2.7-17.2,7.1l1.2,1.2C-75.9-0.6-70.3-3.1-64-3.1z"/>
	<path fill="#FFFFFF" d="M-47.5,3.5l1.2-1.2c-4.4-4.4-10.4-7.1-17.1-7.1v1.8C-57.3-3.1-51.6-0.6-47.5,3.5z"/>
	<path fill="#FFFFFF" d="M-86.9,20.4h-1.8c0.1,6.7,2.8,12.7,7.1,17l1.2-1.2C-84.3,32.1-86.8,26.6-86.9,20.4z"/>
	<g>
		<g>
			<path fill="#FFFFFF" d="M-21.3,19.7V5.5h9.5c2.7,0,4.8,0.6,6.2,1.8c1.4,1.2,2.2,3,2.2,5.2c0,1.3-0.3,2.6-0.8,3.6
				c-0.6,1-1.4,1.9-2.4,2.5c-0.6,0.4-1.4,0.6-2.3,0.8c-1,0.2-2.2,0.2-3.7,0.2C-12.7,19.7-21.3,19.7-21.3,19.7z M-17.8,17.1h4.4
				c2.3,0,4-0.3,5.1-1c1-0.7,1.4-1.9,1.4-3.5c0-1.4-0.4-2.6-1.2-3.3c-0.8-0.8-2-1.1-3.6-1.1h-6.1C-17.8,8.1-17.8,17.1-17.8,17.1z"/>
			<path fill="#FFFFFF" d="M-29.2,5.5v11.6h-6.7v-4.3l0,0l-3.5,3.3v0.2c0,1.3,0.2,2.2,0.8,2.6c0.5,0.5,1.4,0.7,2.9,0.7h6.3
				c1.4,0,2.3-0.2,2.9-0.7c0.6-0.5,0.8-1.4,0.8-2.6V5.5H-29.2z"/>
			<g>
				<rect x="51.8" y="2.8" fill="#FFFFFF" width="2.1" height="2"/>
				<rect x="54.6" y="6.6" fill="#FFFFFF" width="3.1" height="3.1"/>
				<path fill="#FFFFFF" d="M24.9,8.9c0-1.3,0.2-2.2,0.8-2.6c0.5-0.5,1.4-0.7,2.9-0.7h10.8c1.4,0,2.3,0.2,2.9,0.7
					C42.8,6.7,43,7.6,43,8.9v7.5c0,1.3-0.2,2.2-0.8,2.6c-0.5,0.5-1.4,0.7-2.9,0.7H28.5c-1.4,0-2.4-0.2-2.9-0.7s-0.8-1.4-0.8-2.6
					L24.9,8.9L24.9,8.9z M28.2,17.1h11.3v-9H28.2V17.1z"/>
				<path fill="#FFFFFF" d="M90.8,19.7V5.5h9.5c2.7,0,4.8,0.6,6.2,1.8c1.4,1.2,2.2,3,2.2,5.2c0,1.3-0.3,2.6-0.8,3.6
					c-0.6,1-1.4,1.9-2.4,2.5c-0.6,0.4-1.4,0.6-2.3,0.8c-1,0.2-2.2,0.2-3.7,0.2C99.3,19.7,90.8,19.7,90.8,19.7z M94.1,17.1h4.4
					c2.3,0,4-0.3,5.1-1c1-0.7,1.4-1.9,1.4-3.5c0-1.4-0.4-2.6-1.2-3.3c-0.8-0.8-2-1.1-3.6-1.1h-6.1V17.1z"/>
				<path fill="#FFFFFF" d="M83,5.6V13c0,0.2,0,0.4,0,0.8c0,0.3,0.1,0.9,0.1,1.7c-0.2-0.2-0.5-0.6-0.7-0.8c-0.3-0.2-0.6-0.6-1-0.8
					L71.1,5.5h-2.3v14.2h0.1l3.1-3V12c0-0.3,0-0.6-0.1-1c0-0.4-0.1-0.8-0.1-1.2c0.2,0.2,0.3,0.3,0.6,0.6c0.2,0.2,0.4,0.3,0.7,0.6
					l10.8,8.7h2.3V8.6L83,5.6z"/>
				<path fill="#FFFFFF" d="M60.7,8.8v8.3h-9.8V8.8l-3.4-3.3h-0.1v10.8c0,1.3,0.2,2.2,0.8,2.6c0.6,0.5,1.4,0.7,2.9,0.7h9.3
					c1.4,0,2.4-0.2,2.9-0.7s0.8-1.4,0.8-2.6V5.5l0,0L60.7,8.8z"/>
				<path fill="#FFFFFF" d="M20.1,11.8c-0.6-0.5-1.4-0.7-2.9-0.7H8V8h9.6v1.5L20.4,7c-0.1-0.3-0.3-0.6-0.5-0.7
					c-0.6-0.5-1.4-0.7-2.8-0.7H8.7c-1.4,0-2.4,0.2-2.9,0.7C5.3,6.7,5,7.6,5,8.9v1.6c0,1.3,0.2,2.2,0.8,2.6c0.5,0.5,1.4,0.7,2.9,0.7
					h9.2v3.3H7.4v-1.7l-2.8,2.7c0.1,0.4,0.3,0.7,0.6,1c0.6,0.5,1.4,0.7,2.9,0.7h9.2c1.4,0,2.4-0.2,2.9-0.7c0.6-0.5,0.8-1.4,0.8-2.6
					v-1.9C20.8,13.2,20.6,12.3,20.1,11.8z"/>
			</g>
		</g>
		<g>
			<path fill="#FFFFFF" d="M-34.3,27.9h-2.1v6.3h-0.8v-6.3h-2.1v-0.7h4.9L-34.3,27.9L-34.3,27.9z"/>
			<path fill="#FFFFFF" d="M-29.1,34.3h-0.8v-2.9c0-1-0.4-1.6-1.2-1.6c-0.4,0-0.8,0.2-1,0.5c-0.3,0.3-0.4,0.7-0.4,1.2v2.8h-0.8v-7.5
				h0.8v3.3l0,0c0.4-0.6,1-1,1.7-1c1.1,0,1.7,0.7,1.7,2.1L-29.1,34.3L-29.1,34.3z"/>
			<path fill="#FFFFFF" d="M-23.4,31.9H-27c0,0.6,0.2,1,0.5,1.4s0.7,0.5,1.2,0.5c0.6,0,1.1-0.2,1.6-0.6V34c-0.5,0.3-1,0.5-1.8,0.5
				c-0.7,0-1.3-0.2-1.7-0.7c-0.4-0.5-0.6-1.1-0.6-1.9s0.2-1.4,0.6-1.9c0.5-0.5,1-0.8,1.7-0.8c0.6,0,1.2,0.2,1.5,0.6
				c0.3,0.4,0.6,1,0.6,1.8L-23.4,31.9L-23.4,31.9z M-24.2,31.2c0-0.5-0.1-0.8-0.3-1.1c-0.2-0.2-0.6-0.4-1-0.4c-0.4,0-0.7,0.1-1,0.4
				s-0.5,0.6-0.6,1L-24.2,31.2L-24.2,31.2z"/>
			<path fill="#FFFFFF" d="M-17.8,33.6v3.1h-0.8v-7.4h0.8v0.9l0,0c0.4-0.6,1-1,1.8-1c0.6,0,1.2,0.2,1.5,0.6c0.3,0.5,0.6,1,0.6,1.8
				s-0.2,1.5-0.6,2c-0.4,0.6-1,0.8-1.7,0.8C-17,34.4-17.4,34-17.8,33.6L-17.8,33.6z M-17.8,32.2c0,0.4,0.1,0.8,0.4,1
				c0.3,0.3,0.6,0.5,1,0.5c0.6,0,0.9-0.2,1.2-0.6c0.3-0.3,0.4-0.9,0.4-1.6c0-0.6-0.1-1-0.4-1.4c-0.3-0.3-0.6-0.5-1-0.5
				c-0.5,0-0.9,0.2-1.2,0.5c-0.3,0.3-0.5,0.8-0.5,1.2L-17.8,32.2L-17.8,32.2z"/>
			<path fill="#FFFFFF" d="M-10.1,30c-0.1-0.1-0.3-0.2-0.6-0.2c-0.3,0-0.6,0.2-0.9,0.6c-0.2,0.3-0.3,0.8-0.3,1.4v2.6h-0.8v-5.1h0.8
				v1l0,0c0.1-0.3,0.3-0.6,0.6-0.8c0.2-0.2,0.6-0.3,0.8-0.3s0.3,0,0.5,0.1C-10.1,29.3-10.1,30-10.1,30z"/>
			<path fill="#FFFFFF" d="M-9.6,31.8c0-0.8,0.2-1.4,0.7-1.9c0.5-0.5,1.1-0.7,1.9-0.7s1.4,0.2,1.8,0.7c0.4,0.5,0.6,1.1,0.6,1.9
				c0,0.8-0.2,1.4-0.7,1.9s-1,0.7-1.8,0.7s-1.4-0.2-1.8-0.7C-9.3,33.2-9.6,32.6-9.6,31.8z M-8.9,31.8c0,0.6,0.2,1,0.5,1.4
				c0.3,0.4,0.8,0.6,1.2,0.6c0.6,0,1-0.2,1.2-0.6c0.2-0.4,0.4-0.8,0.4-1.4s-0.1-1.1-0.4-1.4c-0.3-0.3-0.7-0.6-1.2-0.6
				c-0.6,0-1,0.2-1.2,0.6C-8.7,30.7-8.9,31.1-8.9,31.8z"/>
			<path fill="#FFFFFF" d="M-1,27.5c-0.2-0.1-0.3-0.1-0.6-0.1c-0.6,0-0.9,0.3-0.9,1v0.8h1.2v0.6h-1.2v4.4h-0.8v-4.4H-4v-0.6h0.9
				v-0.8c0-0.6,0.2-1,0.5-1.2c0.3-0.2,0.7-0.5,1.1-0.5c0.2,0,0.5,0,0.6,0.1C-1,26.8-1,27.5-1,27.5z"/>
			<path fill="#FFFFFF" d="M3.7,31.9H0.1c0,0.6,0.2,1,0.5,1.4s0.7,0.5,1.2,0.5c0.6,0,1.1-0.2,1.6-0.6V34c-0.5,0.3-1,0.5-1.8,0.5
				S0.4,34.2,0,33.7c-0.4-0.5-0.6-1.1-0.6-1.9s0.2-1.4,0.6-1.9c0.5-0.5,1-0.8,1.7-0.8c0.6,0,1.2,0.2,1.5,0.6c0.3,0.4,0.6,1,0.6,1.8
				L3.7,31.9L3.7,31.9z M3,31.2c0-0.5-0.1-0.8-0.3-1.1c-0.2-0.2-0.6-0.4-1-0.4s-0.7,0.1-1,0.4s-0.5,0.6-0.6,1L3,31.2L3,31.2z"/>
			<path fill="#FFFFFF" d="M4.7,33.2c0.5,0.3,1,0.5,1.4,0.5c0.7,0,1-0.2,1-0.7c0-0.2-0.1-0.3-0.2-0.6c-0.2-0.1-0.5-0.3-1-0.5
				c-0.6-0.2-0.9-0.4-1-0.6c-0.2-0.2-0.3-0.5-0.3-0.8c0-0.4,0.2-0.8,0.6-1c0.3-0.3,0.8-0.4,1.4-0.4c0.4,0,0.8,0.1,1.2,0.2v0.8
				c-0.3-0.2-0.8-0.3-1.3-0.3c-0.3,0-0.6,0.1-0.8,0.2c-0.2,0.1-0.3,0.3-0.3,0.6c0,0.2,0.1,0.4,0.2,0.6c0.1,0.1,0.4,0.3,0.9,0.4
				c0.6,0.2,1,0.5,1.2,0.7c0.2,0.2,0.3,0.5,0.3,0.8c0,0.5-0.2,0.8-0.6,1c-0.3,0.2-0.8,0.4-1.4,0.4c-0.6,0-1-0.1-1.4-0.3L4.7,33.2
				L4.7,33.2z"/>
			<path fill="#FFFFFF" d="M9,33.2c0.5,0.3,1,0.5,1.4,0.5c0.7,0,1-0.2,1-0.7c0-0.2-0.1-0.3-0.2-0.6c-0.2-0.1-0.5-0.3-1-0.5
				c-0.6-0.2-0.9-0.4-1-0.6C9.1,31.1,9,30.8,9,30.5c0-0.4,0.2-0.8,0.6-1c0.3-0.3,0.8-0.4,1.4-0.4c0.4,0,0.8,0.1,1.2,0.2v0.8
				c-0.3-0.2-0.8-0.3-1.3-0.3c-0.3,0-0.6,0.1-0.8,0.2c-0.2,0.1-0.3,0.3-0.3,0.6c0,0.2,0.1,0.4,0.2,0.6c0.1,0.1,0.4,0.3,0.9,0.4
				c0.6,0.2,1,0.5,1.2,0.7c0.2,0.2,0.3,0.5,0.3,0.8c0,0.5-0.2,0.8-0.6,1c-0.3,0.2-0.8,0.4-1.4,0.4c-0.6,0-1-0.1-1.4-0.3L9,33.2
				L9,33.2z"/>
			<path fill="#FFFFFF" d="M13.6,27.4c0-0.1,0.1-0.2,0.1-0.3C13.8,27,13.9,27,14,27c0.1,0,0.3,0.1,0.3,0.2c0.1,0.1,0.2,0.2,0.2,0.3
				c0,0.1-0.1,0.2-0.2,0.3c-0.1,0.1-0.2,0.1-0.3,0.1s-0.2-0.1-0.3-0.1C13.6,27.7,13.6,27.5,13.6,27.4z M13.7,34.3v-5.1h0.8v5.1H13.7
				z"/>
			<path fill="#FFFFFF" d="M15.8,31.8c0-0.8,0.2-1.4,0.7-1.9c0.5-0.5,1.1-0.7,1.9-0.7s1.4,0.2,1.8,0.7c0.4,0.5,0.6,1.1,0.6,1.9
				c0,0.8-0.2,1.4-0.7,1.9c-0.5,0.5-1,0.7-1.8,0.7s-1.4-0.2-1.8-0.7C16,33.2,15.8,32.6,15.8,31.8z M16.6,31.8c0,0.6,0.2,1,0.5,1.4
				c0.3,0.3,0.7,0.6,1.2,0.6s1-0.2,1.2-0.6c0.2-0.4,0.4-0.8,0.4-1.4s-0.1-1.1-0.4-1.4c-0.3-0.3-0.7-0.6-1.2-0.6
				c-0.6,0-1,0.2-1.2,0.6C16.7,30.7,16.6,31.1,16.6,31.8z"/>
			<path fill="#FFFFFF" d="M26.3,34.3h-0.8v-2.9c0-1-0.4-1.7-1.2-1.7c-0.4,0-0.8,0.2-1,0.5c-0.3,0.3-0.4,0.7-0.4,1.2v2.9H22v-5.1
				h0.8V30l0,0c0.3-0.6,1-1,1.7-1c0.6,0,1,0.2,1.3,0.6c0.3,0.3,0.5,0.9,0.5,1.5C26.3,31.1,26.3,34.3,26.3,34.3z"/>
			<path fill="#FFFFFF" d="M28,29.5c0.5-0.3,1-0.5,1.7-0.5c1.2,0,1.8,0.6,1.8,1.9v3.3h-0.8v-0.8l0,0c-0.3,0.6-0.9,0.9-1.6,0.9
				c-0.5,0-0.9-0.1-1.2-0.4c-0.3-0.2-0.4-0.6-0.4-1c0-1,0.6-1.4,1.7-1.7l1.5-0.2c0-0.9-0.3-1.3-1-1.3c-0.6,0-1.2,0.2-1.7,0.6
				L28,29.5L28,29.5z M29.5,31.9c-0.4,0.1-0.7,0.1-0.9,0.3c-0.2,0.1-0.3,0.3-0.3,0.7c0,0.2,0.1,0.5,0.3,0.6c0.2,0.2,0.4,0.2,0.7,0.2
				c0.4,0,0.8-0.1,1-0.4c0.3-0.3,0.4-0.6,0.4-1v-0.6L29.5,31.9z"/>
			<path fill="#FFFFFF" d="M33.1,34.3v-7.5h0.8v7.5H33.1z"/>
			<path fill="#FFFFFF" d="M39.1,29.5c0.5-0.3,1-0.5,1.7-0.5c1.2,0,1.8,0.6,1.8,1.9v3.3h-0.8v-0.8l0,0c-0.3,0.6-0.9,0.9-1.6,0.9
				c-0.5,0-0.9-0.1-1.2-0.4c-0.3-0.2-0.4-0.6-0.4-1c0-1,0.6-1.4,1.7-1.7l1.5-0.2c0-0.9-0.3-1.3-1-1.3c-0.6,0-1.2,0.2-1.7,0.6
				L39.1,29.5L39.1,29.5z M40.6,31.9c-0.4,0.1-0.7,0.1-0.9,0.3c-0.2,0.1-0.3,0.3-0.3,0.7c0,0.2,0.1,0.5,0.3,0.6
				c0.2,0.2,0.4,0.2,0.7,0.2c0.4,0,0.8-0.1,1-0.4c0.3-0.3,0.4-0.6,0.4-1v-0.6L40.6,31.9z"/>
			<path fill="#FFFFFF" d="M48.3,34.3h-0.8v-0.8l0,0c-0.3,0.6-0.9,1-1.6,1c-1.2,0-1.8-0.7-1.8-2.2v-3.1h0.8V32c0,1,0.4,1.7,1.2,1.7
				c0.4,0,0.8-0.2,1-0.5c0.3-0.3,0.4-0.7,0.4-1.2v-2.9h0.8V34.3z"/>
			<path fill="#FFFFFF" d="M54.3,34.3h-0.8v-0.9l0,0c-0.3,0.6-1,1-1.8,1c-0.6,0-1.2-0.2-1.5-0.6c-0.3-0.5-0.6-1-0.6-1.8
				s0.2-1.4,0.6-2c0.4-0.6,1-0.8,1.7-0.8c0.6,0,1.2,0.3,1.5,0.8l0,0v-3.1h0.8C54.3,26.8,54.3,34.3,54.3,34.3z M53.6,31.2
				c0-0.4-0.1-0.8-0.4-1c-0.3-0.3-0.6-0.4-1-0.4c-0.6,0-0.9,0.2-1.2,0.6c-0.3,0.3-0.4,0.9-0.4,1.5c0,0.6,0.1,1,0.4,1.4
				c0.3,0.3,0.6,0.6,1.1,0.6c0.5,0,0.8-0.2,1.1-0.5c0.3-0.3,0.5-0.8,0.5-1.2L53.6,31.2L53.6,31.2z"/>
			<path fill="#FFFFFF" d="M55.9,27.4c0-0.1,0.1-0.2,0.1-0.3c0.1-0.1,0.2-0.1,0.3-0.1c0.1,0,0.3,0.1,0.3,0.2
				c0.1,0.1,0.2,0.2,0.2,0.3c0,0.1-0.1,0.2-0.2,0.3c-0.1,0.1-0.2,0.1-0.3,0.1s-0.2-0.1-0.3-0.1C55.9,27.7,55.9,27.5,55.9,27.4z
				 M56,34.3v-5.1h0.8v5.1H56z"/>
			<path fill="#FFFFFF" d="M58.2,31.8c0-0.8,0.2-1.4,0.7-1.9c0.5-0.5,1.1-0.7,1.9-0.7c0.8,0,1.4,0.2,1.8,0.7
				c0.4,0.5,0.6,1.1,0.6,1.9c0,0.8-0.2,1.4-0.7,1.9c-0.5,0.5-1,0.7-1.8,0.7c-0.8,0-1.4-0.2-1.8-0.7C58.4,33.2,58.2,32.6,58.2,31.8z
				 M58.9,31.8c0,0.6,0.2,1,0.5,1.4c0.3,0.3,0.7,0.6,1.2,0.6c0.6,0,1-0.2,1.2-0.6c0.3-0.3,0.4-0.8,0.4-1.4s-0.1-1.1-0.4-1.4
				c-0.3-0.3-0.7-0.6-1.2-0.6c-0.6,0-1,0.2-1.2,0.6C59.1,30.7,58.9,31.1,58.9,31.8z"/>
			<path fill="#FFFFFF" d="M71.4,34c-0.4,0.2-0.9,0.3-1.4,0.3c-0.7,0-1.3-0.2-1.8-0.7s-0.6-1-0.6-1.8c0-0.8,0.2-1.4,0.7-2
				c0.5-0.5,1.1-0.8,1.9-0.8c0.4,0,0.8,0.1,1.2,0.2V30c-0.3-0.2-0.8-0.4-1.2-0.4c-0.6,0-1,0.2-1.3,0.6c-0.3,0.4-0.6,0.9-0.6,1.4
				s0.2,1,0.5,1.4c0.3,0.3,0.8,0.6,1.3,0.6c0.5,0,0.9-0.1,1.2-0.4V34L71.4,34z"/>
			<path fill="#FFFFFF" d="M72.3,31.8c0-0.8,0.2-1.4,0.7-1.9c0.5-0.5,1.1-0.7,1.9-0.7s1.4,0.2,1.8,0.7c0.4,0.5,0.6,1.1,0.6,1.9
				c0,0.8-0.2,1.4-0.7,1.9c-0.5,0.5-1,0.7-1.8,0.7s-1.4-0.2-1.8-0.7C72.5,33.2,72.3,32.6,72.3,31.8z M73.1,31.8c0,0.6,0.2,1,0.5,1.4
				c0.3,0.3,0.8,0.6,1.2,0.6c0.6,0,1-0.2,1.2-0.6c0.3-0.3,0.4-0.8,0.4-1.4s-0.1-1.1-0.4-1.4c-0.3-0.3-0.7-0.6-1.2-0.6
				c-0.6,0-1,0.2-1.2,0.6C73.3,30.7,73.1,31.1,73.1,31.8z"/>
			<path fill="#FFFFFF" d="M85.9,34.3h-0.8v-2.9c0-0.6-0.1-1-0.3-1.2c-0.2-0.2-0.5-0.3-0.9-0.3c-0.3,0-0.6,0.2-0.9,0.5
				c-0.2,0.3-0.3,0.7-0.3,1.1v2.9h-0.8v-3.1c0-1-0.4-1.5-1.2-1.5c-0.3,0-0.6,0.2-0.9,0.5c-0.2,0.3-0.3,0.7-0.3,1.2v2.9h-0.8v-5.1
				h0.8V30l0,0c0.3-0.6,0.9-1,1.6-1c0.3,0,0.6,0.1,0.9,0.3c0.2,0.2,0.5,0.5,0.6,0.8c0.3-0.7,1-1,1.7-1c1.1,0,1.7,0.7,1.7,2.1
				L85.9,34.3L85.9,34.3z"/>
			<path fill="#FFFFFF" d="M88.3,33.6v3.1h-0.8v-7.4h0.8v0.9l0,0c0.4-0.6,1-1,1.8-1c0.6,0,1.2,0.2,1.5,0.6c0.3,0.5,0.6,1,0.6,1.8
				s-0.2,1.5-0.6,2c-0.4,0.6-1,0.8-1.7,0.8C89.2,34.4,88.6,34,88.3,33.6L88.3,33.6z M88.3,32.2c0,0.4,0.1,0.8,0.4,1
				c0.3,0.3,0.6,0.5,1,0.5c0.6,0,0.9-0.2,1.2-0.6c0.3-0.3,0.4-0.9,0.4-1.6c0-0.6-0.1-1-0.4-1.4c-0.3-0.3-0.6-0.5-1-0.5
				c-0.5,0-0.8,0.2-1.2,0.5c-0.3,0.3-0.5,0.8-0.5,1.2L88.3,32.2L88.3,32.2z"/>
			<path fill="#FFFFFF" d="M93.4,29.5c0.5-0.3,1-0.5,1.7-0.5c1.2,0,1.8,0.6,1.8,1.9v3.3h-0.8v-0.8l0,0c-0.3,0.6-0.9,0.9-1.6,0.9
				c-0.5,0-0.9-0.1-1.2-0.4c-0.3-0.2-0.4-0.6-0.4-1c0-1,0.6-1.4,1.7-1.7l1.5-0.2c0-0.9-0.3-1.3-1-1.3c-0.6,0-1.2,0.2-1.7,0.6
				L93.4,29.5L93.4,29.5z M94.9,31.9c-0.4,0.1-0.7,0.1-0.9,0.3c-0.2,0.1-0.3,0.3-0.3,0.7c0,0.2,0.1,0.5,0.3,0.6
				c0.2,0.2,0.4,0.2,0.7,0.2c0.4,0,0.8-0.1,1-0.4c0.3-0.3,0.4-0.6,0.4-1v-0.6L94.9,31.9z"/>
			<path fill="#FFFFFF" d="M102.7,34.3h-0.8v-2.9c0-1-0.4-1.7-1.2-1.7c-0.4,0-0.8,0.2-1,0.5c-0.3,0.3-0.4,0.7-0.4,1.2v2.9h-0.8v-5.1
				h0.8V30l0,0c0.3-0.6,1-1,1.7-1c0.6,0,1,0.2,1.3,0.6c0.3,0.3,0.5,0.9,0.5,1.5L102.7,34.3L102.7,34.3z"/>
			<path fill="#FFFFFF" d="M108.3,29.2l-2.3,5.9c-0.4,1-1,1.5-1.7,1.5c-0.2,0-0.3,0-0.6-0.1v-0.7c0.2,0.1,0.3,0.1,0.5,0.1
				c0.4,0,0.7-0.2,1-0.8l0.4-1l-2-5.1h0.8l1.4,3.9c0,0,0.1,0.1,0.1,0.3l0,0l0.1-0.3l1.4-3.9C107.5,29.2,108.3,29.2,108.3,29.2z"/>
		</g>
	</g>
</g>
</svg>
