<?xml version="1.0" encoding="utf-8"?>
<!-- Generator: Adobe Illustrator 18.1.1, SVG Export Plug-In . SVG Version: 6.00 Build 0)  -->
<!DOCTYPE svg PUBLIC "-//W3C//DTD SVG 1.1//EN" "http://www.w3.org/Graphics/SVG/1.1/DTD/svg11.dtd">
<svg version="1.1" xmlns="http://www.w3.org/2000/svg" xmlns:xlink="http://www.w3.org/1999/xlink" x="0px" y="0px" width="155.6px"
	 height="40px" viewBox="0 0 155.6 40" enable-background="new 0 0 155.6 40" xml:space="preserve">
<g id="レイヤー_1" display="none">
	<g id="レイヤー_5" display="inline">
		<path fill="#0C0C0C" d="M19,24.4l-0.7,0.7c1.2,1,2.7,1.7,4.4,1.8v-1C21.3,25.8,20,25.2,19,24.4z"/>
		<path fill="#0C0C0C" d="M23.3,25.8v1c1.7-0.1,3.2-0.7,4.4-1.8l-0.8-0.7C25.9,25.2,24.7,25.8,23.3,25.8z"/>
		<path fill="#0C0C0C" d="M22.8,14.1v-1c-1.7,0.1-3.3,0.8-4.5,1.9l0.7,0.7C20,14.8,21.3,14.2,22.8,14.1z"/>
		<path fill="#0C0C0C" d="M17.1,19.9c0.1-1.5,0.6-2.8,1.5-3.8l-0.7-0.8c-1,1.2-1.7,2.8-1.8,4.5H17.1z"/>
		<path fill="#0C0C0C" d="M27,15.7l0.7-0.7c-1.2-1.1-2.8-1.8-4.5-1.9v1C24.7,14.2,26.1,14.8,27,15.7z"/>
		<path fill="#0C0C0C" d="M17.1,20.3h-1c0.1,1.7,0.8,3.2,1.9,4.4l0.7-0.7C17.8,23,17.2,21.7,17.1,20.3z"/>
		<path fill="#0C0C0C" d="M13.6,20.3h-1.2c0.1,2.7,1.2,5.2,3,7l0.8-0.8C14.6,24.9,13.7,22.7,13.6,20.3z"/>
		<path fill="#0C0C0C" d="M16.1,13.5l-0.8-0.8c-1.7,1.9-2.9,4.4-2.9,7.1h1.2C13.6,17.4,14.6,15.2,16.1,13.5z"/>
		<path fill="#0C0C0C" d="M29.5,13.2l0.8-0.8c-1.9-1.8-4.4-2.9-7.1-3v1.2C25.7,10.6,27.9,11.6,29.5,13.2z"/>
		<path fill="#0C0C0C" d="M23.3,29.5v1.2c2.7-0.1,5.2-1.1,7-2.9L29.4,27C27.8,28.4,25.6,29.3,23.3,29.5z"/>
		<path fill="#0C0C0C" d="M16.5,26.9l-0.8,0.8c1.9,1.7,4.3,2.9,7,2.9v-1.2C20.3,29.3,18.2,28.4,16.5,26.9z"/>
		<path fill="#0C0C0C" d="M16.5,13.2c1.7-1.6,3.8-2.6,6.3-2.6V9.4c-2.8,0.1-5.2,1.2-7.1,3L16.5,13.2z"/>
		<path fill="#0C0C0C" d="M22.8,7.1V5.8c-3.8,0.1-7.2,1.6-9.7,4l0.9,0.9C16.2,8.4,19.3,7.1,22.8,7.1z"/>
		<path fill="#0C0C0C" d="M23.3,7.1c3.4,0.1,6.5,1.5,8.8,3.7l0.9-0.9c-2.5-2.4-5.9-4-9.7-4C23.3,5.8,23.3,7.1,23.3,7.1z"/>
		<path fill="#0C0C0C" d="M10,20.3H8.8c0.1,3.8,1.6,7.1,4,9.6l0.9-0.9C11.5,26.8,10.1,23.7,10,20.3z"/>
		<path fill="#0C0C0C" d="M14,29.4l-0.9,0.9c2.5,2.4,5.9,3.9,9.6,4V33C19.4,32.9,16.3,31.6,14,29.4z"/>
		<path fill="#0C0C0C" d="M13.6,11.1l-0.9-0.9c-2.4,2.5-3.9,5.9-4,9.7H10C10.1,16.4,11.4,13.3,13.6,11.1z"/>
		<path fill="#0C0C0C" d="M23.3,32.9v1.3c3.8-0.1,7.1-1.5,9.6-4L32,29.3C29.7,31.6,26.6,32.9,23.3,32.9z"/>
		<path fill="#0C0C0C" d="M11.6,31.9l-1,1c3.2,3.1,7.4,4.9,12.2,5v-1.5C18.4,36.5,14.4,34.8,11.6,31.9z"/>
		<path fill="#0C0C0C" d="M6.5,20.3H5c0.1,4.8,2,9,5.2,12.2l1-1C8.3,28.6,6.6,24.7,6.5,20.3z"/>
		<path fill="#0C0C0C" d="M22.8,3.5V2c-4.8,0.1-9.1,2-12.3,5.2l1,1C14.4,5.3,18.3,3.5,22.8,3.5z"/>
		<path fill="#0C0C0C" d="M34.5,8.2l1-1C32.4,4.1,28.1,2.2,23.3,2v1.5C27.7,3.5,31.6,5.3,34.5,8.2z"/>
		<path fill="#0C0C0C" d="M23.3,36.5V38c4.7-0.1,9-1.9,12.2-5l-1-1C31.6,34.8,27.6,36.5,23.3,36.5z"/>
		<path fill="#0C0C0C" d="M11.1,8.6l-1-1C7,10.7,5.1,15.1,5,19.9h1.5C6.5,15.4,8.3,11.5,11.1,8.6z"/>
		<path fill="#0C0C0C" d="M23.3,40v1.5c5.8-0.1,11-2.4,14.8-6.1l-1-1C33.4,37.8,28.6,40,23.3,40z"/>
		<path fill="#0C0C0C" d="M9.1,34.4L8,35.5c3.8,3.8,9,6.1,14.8,6.1v-1.5C17.4,40,12.6,37.8,9.1,34.4z"/>
		<path fill="#0C0C0C" d="M8.6,6.1l-1-1c-3.8,3.8-6.1,9-6.1,14.9h1.5C2.9,14.4,5.1,9.6,8.6,6.1z"/>
		<path fill="#0C0C0C" d="M22.8,0v-1.5c-5.8,0-11.1,2.4-14.9,6.2l1,1C12.5,2.2,17.4,0,22.8,0z"/>
		<path fill="#0C0C0C" d="M37.1,5.7l1-1c-3.8-3.8-9-6.2-14.8-6.2V0C28.6,0,33.5,2.2,37.1,5.7z"/>
		<path fill="#0C0C0C" d="M2.9,20.3H1.4c0.1,5.8,2.4,11,6.1,14.8l1-1C5.2,30.5,3,25.7,2.9,20.3z"/>
		<g>
			<g>
				<path fill="#0C0C0C" d="M59.8,19.8V7.5H68c2.4,0,4.2,0.5,5.4,1.6c1.3,1,1.9,2.6,1.9,4.5c0,1.1-0.3,2.2-0.7,3.1
					c-0.5,0.9-1.2,1.7-2.1,2.2c-0.6,0.3-1.3,0.6-2,0.7c-0.8,0.1-1.9,0.2-3.2,0.2C67.3,19.8,59.8,19.8,59.8,19.8z M62.8,17.5h3.8
					c2,0,3.5-0.3,4.4-0.9c0.9-0.6,1.3-1.7,1.3-3c0-1.3-0.3-2.2-1-2.9c-0.7-0.7-1.7-1-3.1-1h-5.3C62.8,9.7,62.8,17.5,62.8,17.5z"/>
				<path fill="#0C0C0C" d="M53,7.5v10h-5.8v-3.7l0,0l-3.1,2.9v0.2c0,1.1,0.2,1.9,0.7,2.3c0.4,0.4,1.3,0.6,2.5,0.6h5.5
					c1.3,0,2-0.2,2.5-0.6c0.5-0.4,0.7-1.2,0.7-2.3V7.5H53z"/>
				<g>
					<rect x="123.2" y="5.1" fill="#0C0C0C" width="1.8" height="1.7"/>
					<rect x="125.7" y="8.4" fill="#0C0C0C" width="2.6" height="2.6"/>
					<path fill="#0C0C0C" d="M99.8,10.4c0-1.1,0.2-1.9,0.7-2.3c0.4-0.4,1.3-0.6,2.5-0.6h9.3c1.3,0,2,0.2,2.5,0.6
						c0.5,0.4,0.7,1.2,0.7,2.3v6.5c0,1.1-0.2,1.9-0.7,2.3c-0.4,0.4-1.3,0.6-2.5,0.6H103c-1.3,0-2.1-0.2-2.5-0.6
						c-0.4-0.4-0.7-1.2-0.7-2.3L99.8,10.4L99.8,10.4z M102.8,17.5h9.8V9.7h-9.8V17.5z"/>
					<path fill="#0C0C0C" d="M157,19.8V7.5h8.2c2.4,0,4.2,0.5,5.4,1.6c1.3,1,1.9,2.6,1.9,4.5c0,1.1-0.3,2.2-0.7,3.1
						c-0.5,0.9-1.2,1.7-2.1,2.2c-0.6,0.3-1.3,0.6-2,0.7c-0.8,0.1-1.9,0.2-3.2,0.2C164.4,19.8,157,19.8,157,19.8z M159.9,17.5h3.8
						c2,0,3.5-0.3,4.4-0.9c0.9-0.6,1.3-1.7,1.3-3c0-1.3-0.3-2.2-1-2.9c-0.7-0.7-1.7-1-3.1-1h-5.3V17.5z"/>
					<path fill="#0C0C0C" d="M150.2,7.5v6.4c0,0.1,0,0.3,0,0.7c0,0.3,0.1,0.8,0.1,1.5c-0.2-0.2-0.4-0.5-0.6-0.7
						c-0.3-0.2-0.5-0.5-0.8-0.7l-8.9-7.2h-2v12.3h0.1l2.6-2.6v-4.1c0-0.3,0-0.6-0.1-0.9c0-0.3-0.1-0.7-0.1-1
						c0.1,0.1,0.3,0.3,0.5,0.5c0.1,0.1,0.3,0.3,0.6,0.5l9.4,7.6h2v-9.6L150.2,7.5z"/>
					<path fill="#0C0C0C" d="M130.9,10.3v7.2h-8.5v-7.2l-2.9-2.9h-0.1v9.4c0,1.1,0.2,1.9,0.7,2.3c0.5,0.4,1.3,0.6,2.5,0.6h8.1
						c1.3,0,2.1-0.2,2.5-0.6c0.4-0.4,0.7-1.2,0.7-2.3V7.5l0,0L130.9,10.3z"/>
					<path fill="#0C0C0C" d="M95.7,12.9c-0.5-0.4-1.3-0.6-2.5-0.6h-8V9.6h8.4V11l2.4-2.2c-0.1-0.3-0.3-0.5-0.4-0.6
						c-0.5-0.4-1.3-0.6-2.4-0.6h-7.2c-1.3,0-2.1,0.2-2.5,0.6c-0.5,0.4-0.7,1.2-0.7,2.3v1.4c0,1.1,0.2,1.9,0.7,2.3
						c0.4,0.4,1.3,0.6,2.5,0.6h7.9v2.9h-9v-1.5l-2.4,2.4c0.1,0.3,0.3,0.6,0.5,0.8c0.5,0.4,1.3,0.6,2.5,0.6h7.9
						c1.3,0,2.1-0.2,2.5-0.6c0.5-0.4,0.7-1.2,0.7-2.3v-1.7C96.3,14.1,96.1,13.3,95.7,12.9z"/>
				</g>
			</g>
			<g>
				<path fill="#0C0C0C" d="M48.5,26.9h-1.8v5.5H46v-5.5h-1.8v-0.6h4.2L48.5,26.9L48.5,26.9z"/>
				<path fill="#0C0C0C" d="M53.1,32.4h-0.7v-2.5c0-0.9-0.3-1.4-1-1.4c-0.3,0-0.7,0.1-0.9,0.4c-0.3,0.3-0.3,0.6-0.3,1v2.4h-0.7v-6.5
					h0.7v2.9l0,0c0.3-0.6,0.8-0.8,1.5-0.8c1,0,1.5,0.6,1.5,1.8L53.1,32.4L53.1,32.4z"/>
				<path fill="#0C0C0C" d="M58,30.4h-3.1c0,0.5,0.1,0.9,0.4,1.2c0.3,0.3,0.6,0.4,1,0.4c0.5,0,1-0.1,1.4-0.5v0.6
					c-0.4,0.3-0.9,0.4-1.5,0.4c-0.6,0-1.1-0.2-1.5-0.6c-0.3-0.4-0.5-1-0.5-1.7c0-0.7,0.2-1.3,0.6-1.7c0.4-0.4,0.9-0.7,1.5-0.7
					s1,0.2,1.3,0.6s0.5,0.9,0.5,1.5L58,30.4L58,30.4z M57.3,29.7c0-0.4-0.1-0.7-0.3-1c-0.2-0.2-0.5-0.3-0.8-0.3
					c-0.3,0-0.6,0.1-0.9,0.3c-0.3,0.3-0.4,0.6-0.5,0.9L57.3,29.7L57.3,29.7z"/>
				<path fill="#0C0C0C" d="M62.8,31.8v2.6h-0.7V28h0.7v0.8l0,0c0.3-0.6,0.9-0.9,1.5-0.9c0.6,0,1,0.2,1.3,0.6
					c0.3,0.4,0.5,0.9,0.5,1.6c0,0.7-0.2,1.3-0.6,1.7c-0.3,0.5-0.9,0.7-1.5,0.7C63.6,32.5,63.2,32.2,62.8,31.8L62.8,31.8z M62.8,30.6
					c0,0.3,0.1,0.7,0.3,0.9c0.3,0.3,0.6,0.4,0.9,0.4c0.5,0,0.8-0.1,1-0.5c0.3-0.3,0.3-0.8,0.3-1.4c0-0.5-0.1-0.9-0.3-1.2
					c-0.3-0.3-0.6-0.4-0.9-0.4c-0.4,0-0.8,0.1-1,0.4c-0.3,0.3-0.4,0.7-0.4,1L62.8,30.6L62.8,30.6z"/>
				<path fill="#0C0C0C" d="M69.6,28.7c-0.1-0.1-0.3-0.1-0.5-0.1c-0.3,0-0.6,0.1-0.8,0.5c-0.2,0.3-0.3,0.7-0.3,1.2v2.2h-0.7v-4.4H68
					V29l0,0c0.1-0.3,0.3-0.6,0.5-0.7c0.2-0.1,0.5-0.3,0.7-0.3s0.3,0,0.4,0.1C69.6,28.1,69.6,28.7,69.6,28.7z"/>
				<path fill="#0C0C0C" d="M70,30.2c0-0.7,0.2-1.3,0.6-1.7c0.4-0.4,1-0.6,1.7-0.6s1.2,0.2,1.5,0.6c0.3,0.4,0.6,1,0.6,1.7
					c0,0.7-0.2,1.3-0.6,1.7c-0.4,0.4-0.9,0.6-1.6,0.6s-1.2-0.2-1.5-0.6C70.2,31.4,70,30.9,70,30.2z M70.6,30.2
					c0,0.5,0.1,0.9,0.4,1.3c0.3,0.3,0.7,0.5,1,0.5c0.5,0,0.8-0.1,1-0.5s0.3-0.7,0.3-1.3c0-0.6-0.1-1-0.3-1.3c-0.3-0.3-0.6-0.5-1-0.5
					c-0.5,0-0.8,0.1-1,0.5C70.7,29.3,70.6,29.7,70.6,30.2z"/>
				<path fill="#0C0C0C" d="M77.4,26.5c-0.1-0.1-0.3-0.1-0.5-0.1c-0.5,0-0.8,0.3-0.8,0.9V28h1v0.6h-1v3.8h-0.7v-3.8h-0.7V28h0.8
					v-0.7c0-0.5,0.1-0.8,0.4-1c0.3-0.2,0.6-0.4,1-0.4c0.2,0,0.4,0,0.5,0.1C77.4,25.9,77.4,26.5,77.4,26.5z"/>
				<path fill="#0C0C0C" d="M81.5,30.4h-3.1c0,0.5,0.1,0.9,0.4,1.2c0.3,0.3,0.6,0.4,1,0.4c0.5,0,1-0.1,1.4-0.5v0.6
					c-0.4,0.3-0.9,0.4-1.5,0.4s-1.1-0.2-1.5-0.6c-0.3-0.4-0.5-1-0.5-1.7c0-0.7,0.2-1.3,0.6-1.7c0.4-0.4,0.9-0.7,1.5-0.7
					c0.6,0,1,0.2,1.3,0.6c0.3,0.3,0.5,0.9,0.5,1.5L81.5,30.4L81.5,30.4z M80.9,29.7c0-0.4-0.1-0.7-0.3-1c-0.2-0.2-0.5-0.3-0.8-0.3
					s-0.6,0.1-0.9,0.3c-0.3,0.3-0.4,0.6-0.5,0.9L80.9,29.7L80.9,29.7z"/>
				<path fill="#0C0C0C" d="M82.4,31.5c0.4,0.3,0.8,0.4,1.3,0.4c0.6,0,0.9-0.2,0.9-0.6c0-0.2-0.1-0.3-0.2-0.5
					c-0.1-0.1-0.4-0.3-0.8-0.4c-0.5-0.2-0.8-0.3-0.9-0.6c-0.1-0.2-0.3-0.4-0.3-0.7c0-0.3,0.1-0.7,0.5-0.9c0.3-0.3,0.7-0.3,1.2-0.3
					c0.3,0,0.7,0.1,1,0.2v0.7c-0.3-0.2-0.7-0.3-1.1-0.3c-0.3,0-0.5,0.1-0.7,0.2c-0.1,0.1-0.3,0.3-0.3,0.5c0,0.2,0.1,0.3,0.1,0.5
					c0.1,0.1,0.3,0.3,0.8,0.3c0.5,0.2,0.9,0.4,1,0.6c0.1,0.2,0.3,0.4,0.3,0.7c0,0.4-0.1,0.7-0.5,0.9c-0.3,0.2-0.7,0.3-1.3,0.3
					c-0.5,0-0.9-0.1-1.2-0.3L82.4,31.5L82.4,31.5z"/>
				<path fill="#0C0C0C" d="M86.1,31.5c0.4,0.3,0.8,0.4,1.3,0.4c0.6,0,0.9-0.2,0.9-0.6c0-0.2-0.1-0.3-0.2-0.5
					c-0.1-0.1-0.4-0.3-0.8-0.4c-0.5-0.2-0.8-0.3-0.9-0.6c-0.1-0.2-0.3-0.4-0.3-0.7c0-0.3,0.1-0.7,0.5-0.9c0.3-0.3,0.7-0.3,1.2-0.3
					c0.3,0,0.7,0.1,1,0.2v0.7c-0.3-0.2-0.7-0.3-1.1-0.3c-0.3,0-0.5,0.1-0.7,0.2c-0.1,0.1-0.3,0.3-0.3,0.5c0,0.2,0.1,0.3,0.1,0.5
					c0.1,0.1,0.3,0.3,0.8,0.3c0.5,0.2,0.9,0.4,1,0.6c0.1,0.2,0.3,0.4,0.3,0.7c0,0.4-0.1,0.7-0.5,0.9c-0.3,0.2-0.7,0.3-1.3,0.3
					c-0.5,0-0.9-0.1-1.2-0.3L86.1,31.5L86.1,31.5z"/>
				<path fill="#0C0C0C" d="M90.1,26.4c0-0.1,0.1-0.2,0.1-0.3c0.1-0.1,0.2-0.1,0.3-0.1c0.1,0,0.3,0.1,0.3,0.1
					c0.1,0.1,0.1,0.2,0.1,0.3c0,0.1-0.1,0.2-0.1,0.3c-0.1,0.1-0.2,0.1-0.3,0.1s-0.2-0.1-0.3-0.1C90.1,26.7,90.1,26.5,90.1,26.4z
					 M90.2,32.4V28h0.7v4.4H90.2z"/>
				<path fill="#0C0C0C" d="M92,30.2c0-0.7,0.2-1.3,0.6-1.7c0.4-0.4,1-0.6,1.7-0.6s1.2,0.2,1.5,0.6c0.3,0.4,0.6,1,0.6,1.7
					c0,0.7-0.2,1.3-0.6,1.7c-0.4,0.4-0.9,0.6-1.6,0.6s-1.2-0.2-1.5-0.6C92.2,31.4,92,30.9,92,30.2z M92.7,30.2
					c0,0.5,0.1,0.9,0.4,1.3c0.3,0.3,0.6,0.5,1,0.5c0.4,0,0.8-0.1,1-0.5s0.3-0.7,0.3-1.3c0-0.6-0.1-1-0.3-1.3s-0.6-0.5-1-0.5
					c-0.5,0-0.8,0.1-1,0.5C92.8,29.3,92.7,29.7,92.7,30.2z"/>
				<path fill="#0C0C0C" d="M101.1,32.4h-0.7v-2.5c0-0.9-0.3-1.5-1-1.5c-0.3,0-0.7,0.1-0.9,0.4c-0.3,0.3-0.3,0.6-0.3,1v2.5h-0.7V28
					h0.7v0.7l0,0c0.3-0.6,0.8-0.8,1.5-0.8c0.5,0,0.9,0.1,1.1,0.5c0.3,0.3,0.4,0.8,0.4,1.3L101.1,32.4L101.1,32.4z"/>
				<path fill="#0C0C0C" d="M102.5,28.3c0.4-0.3,0.9-0.4,1.5-0.4c1,0,1.5,0.6,1.5,1.7v2.9h-0.7v-0.7l0,0c-0.3,0.5-0.8,0.8-1.4,0.8
					c-0.4,0-0.8-0.1-1-0.3c-0.3-0.2-0.3-0.5-0.3-0.9c0-0.8,0.5-1.3,1.5-1.5l1.3-0.2c0-0.8-0.3-1.1-0.9-1.1c-0.6,0-1,0.2-1.5,0.6
					L102.5,28.3L102.5,28.3z M103.9,30.3c-0.3,0.1-0.6,0.1-0.8,0.3c-0.1,0.1-0.3,0.3-0.3,0.6c0,0.2,0.1,0.4,0.3,0.5
					c0.1,0.1,0.3,0.2,0.6,0.2c0.3,0,0.7-0.1,0.9-0.3c0.3-0.3,0.3-0.6,0.3-0.9v-0.5L103.9,30.3z"/>
				<path fill="#0C0C0C" d="M107,32.4v-6.5h0.7v6.5H107z"/>
				<path fill="#0C0C0C" d="M112.2,28.3c0.4-0.3,0.9-0.4,1.5-0.4c1,0,1.5,0.6,1.5,1.7v2.9h-0.7v-0.7l0,0c-0.3,0.5-0.8,0.8-1.4,0.8
					c-0.4,0-0.8-0.1-1-0.3c-0.3-0.2-0.3-0.5-0.3-0.9c0-0.8,0.5-1.3,1.5-1.5l1.3-0.2c0-0.8-0.3-1.1-0.9-1.1c-0.6,0-1,0.2-1.5,0.6
					L112.2,28.3L112.2,28.3z M113.5,30.3c-0.3,0.1-0.6,0.1-0.8,0.3c-0.1,0.1-0.3,0.3-0.3,0.6c0,0.2,0.1,0.4,0.3,0.5
					c0.1,0.1,0.3,0.2,0.6,0.2c0.3,0,0.7-0.1,0.9-0.3c0.3-0.3,0.3-0.6,0.3-0.9v-0.5L113.5,30.3z"/>
				<path fill="#0C0C0C" d="M120.2,32.4h-0.7v-0.7l0,0c-0.3,0.5-0.8,0.8-1.4,0.8c-1,0-1.6-0.6-1.6-1.9V28h0.7v2.4
					c0,0.9,0.3,1.5,1,1.5c0.3,0,0.7-0.1,0.9-0.4c0.3-0.3,0.3-0.6,0.3-1v-2.5h0.7V32.4z"/>
				<path fill="#0C0C0C" d="M125.4,32.4h-0.7v-0.8l0,0c-0.3,0.6-0.8,0.9-1.5,0.9c-0.6,0-1-0.2-1.3-0.6c-0.3-0.4-0.5-0.9-0.5-1.6
					c0-0.7,0.2-1.3,0.6-1.7c0.3-0.5,0.9-0.7,1.5-0.7s1,0.3,1.3,0.7l0,0v-2.7h0.7L125.4,32.4L125.4,32.4z M124.7,29.7
					c0-0.3-0.1-0.7-0.3-0.9c-0.3-0.3-0.6-0.3-0.9-0.3c-0.5,0-0.8,0.1-1,0.5c-0.3,0.3-0.3,0.8-0.3,1.3c0,0.5,0.1,0.9,0.3,1.3
					c0.3,0.3,0.6,0.5,1,0.5c0.4,0,0.7-0.1,1-0.4c0.3-0.3,0.4-0.7,0.4-1L124.7,29.7L124.7,29.7z"/>
				<path fill="#0C0C0C" d="M126.8,26.4c0-0.1,0.1-0.2,0.1-0.3c0.1-0.1,0.2-0.1,0.3-0.1c0.1,0,0.3,0.1,0.3,0.1
					c0.1,0.1,0.1,0.2,0.1,0.3c0,0.1-0.1,0.2-0.1,0.3c-0.1,0.1-0.2,0.1-0.3,0.1s-0.2-0.1-0.3-0.1C126.8,26.7,126.8,26.5,126.8,26.4z
					 M126.8,32.4V28h0.7v4.4H126.8z"/>
				<path fill="#0C0C0C" d="M128.7,30.2c0-0.7,0.2-1.3,0.6-1.7c0.4-0.4,1-0.6,1.7-0.6s1.2,0.2,1.5,0.6c0.3,0.4,0.6,1,0.6,1.7
					c0,0.7-0.2,1.3-0.6,1.7c-0.4,0.4-0.9,0.6-1.6,0.6s-1.2-0.2-1.5-0.6C128.9,31.4,128.7,30.9,128.7,30.2z M129.3,30.2
					c0,0.5,0.1,0.9,0.4,1.3c0.3,0.3,0.6,0.5,1,0.5c0.5,0,0.8-0.1,1-0.5c0.3-0.3,0.3-0.7,0.3-1.3c0-0.6-0.1-1-0.3-1.3
					c-0.3-0.3-0.6-0.5-1-0.5c-0.5,0-0.8,0.1-1,0.5C129.5,29.3,129.3,29.7,129.3,30.2z"/>
				<path fill="#0C0C0C" d="M140.2,32.2c-0.3,0.2-0.8,0.3-1.2,0.3c-0.6,0-1.1-0.2-1.5-0.6c-0.4-0.4-0.6-0.9-0.6-1.6
					c0-0.7,0.2-1.3,0.6-1.7c0.4-0.4,1-0.7,1.7-0.7c0.3,0,0.7,0.1,1,0.2v0.7c-0.3-0.2-0.7-0.3-1-0.3c-0.5,0-0.8,0.1-1.1,0.5
					c-0.3,0.3-0.5,0.8-0.5,1.3c0,0.5,0.1,0.9,0.4,1.3c0.3,0.3,0.7,0.5,1.1,0.5s0.8-0.1,1-0.3V32.2L140.2,32.2z"/>
				<path fill="#0C0C0C" d="M141,30.2c0-0.7,0.2-1.3,0.6-1.7c0.4-0.4,1-0.6,1.7-0.6s1.2,0.2,1.5,0.6c0.3,0.4,0.6,1,0.6,1.7
					c0,0.7-0.2,1.3-0.6,1.7c-0.4,0.4-0.9,0.6-1.6,0.6s-1.2-0.2-1.5-0.6C141.2,31.4,141,30.9,141,30.2z M141.7,30.2
					c0,0.5,0.1,0.9,0.4,1.3c0.3,0.3,0.7,0.5,1,0.5c0.5,0,0.8-0.1,1-0.5c0.3-0.3,0.3-0.7,0.3-1.3c0-0.6-0.1-1-0.3-1.3
					c-0.3-0.3-0.6-0.5-1-0.5c-0.5,0-0.8,0.1-1,0.5C141.8,29.3,141.7,29.7,141.7,30.2z"/>
				<path fill="#0C0C0C" d="M152.7,32.4H152v-2.5c0-0.5-0.1-0.9-0.3-1c-0.1-0.2-0.4-0.3-0.8-0.3c-0.3,0-0.6,0.1-0.8,0.4
					c-0.2,0.3-0.3,0.6-0.3,1v2.5h-0.7v-2.7c0-0.9-0.3-1.3-1-1.3c-0.3,0-0.6,0.1-0.8,0.4c-0.2,0.3-0.3,0.6-0.3,1v2.5h-0.7V28h0.7v0.7
					l0,0c0.3-0.5,0.8-0.8,1.4-0.8c0.3,0,0.6,0.1,0.8,0.3c0.2,0.2,0.4,0.4,0.5,0.7c0.3-0.6,0.8-0.9,1.5-0.9c1,0,1.5,0.6,1.5,1.8
					L152.7,32.4L152.7,32.4z"/>
				<path fill="#0C0C0C" d="M154.8,31.8v2.6h-0.7V28h0.7v0.8l0,0c0.3-0.6,0.9-0.9,1.5-0.9c0.6,0,1,0.2,1.3,0.6
					c0.3,0.4,0.5,0.9,0.5,1.6c0,0.7-0.2,1.3-0.6,1.7c-0.3,0.5-0.9,0.7-1.5,0.7C155.6,32.5,155.1,32.2,154.8,31.8L154.8,31.8z
					 M154.8,30.6c0,0.3,0.1,0.7,0.3,0.9c0.3,0.3,0.6,0.4,0.9,0.4c0.5,0,0.8-0.1,1-0.5c0.3-0.3,0.3-0.8,0.3-1.4
					c0-0.5-0.1-0.9-0.3-1.2c-0.3-0.3-0.6-0.4-0.9-0.4c-0.4,0-0.7,0.1-1,0.4c-0.3,0.3-0.4,0.7-0.4,1L154.8,30.6L154.8,30.6z"/>
				<path fill="#0C0C0C" d="M159.3,28.3c0.4-0.3,0.9-0.4,1.5-0.4c1,0,1.5,0.6,1.5,1.7v2.9h-0.7v-0.7l0,0c-0.3,0.5-0.8,0.8-1.4,0.8
					c-0.4,0-0.8-0.1-1-0.3c-0.3-0.2-0.3-0.5-0.3-0.9c0-0.8,0.5-1.3,1.5-1.5l1.3-0.2c0-0.8-0.3-1.1-0.9-1.1c-0.6,0-1,0.2-1.5,0.6
					L159.3,28.3L159.3,28.3z M160.5,30.3c-0.3,0.1-0.6,0.1-0.8,0.3c-0.1,0.1-0.3,0.3-0.3,0.6c0,0.2,0.1,0.4,0.3,0.5
					c0.1,0.1,0.3,0.2,0.6,0.2c0.3,0,0.7-0.1,0.9-0.3c0.3-0.3,0.3-0.6,0.3-0.9v-0.5L160.5,30.3z"/>
				<path fill="#0C0C0C" d="M167.3,32.4h-0.7v-2.5c0-0.9-0.3-1.5-1-1.5c-0.3,0-0.7,0.1-0.9,0.4c-0.3,0.3-0.3,0.6-0.3,1v2.5h-0.7V28
					h0.7v0.7l0,0c0.3-0.6,0.8-0.8,1.5-0.8c0.5,0,0.9,0.1,1.1,0.5c0.3,0.3,0.4,0.8,0.4,1.3L167.3,32.4L167.3,32.4z"/>
				<path fill="#0C0C0C" d="M172.2,28l-2,5.2c-0.3,0.9-0.9,1.3-1.5,1.3c-0.1,0-0.3,0-0.5-0.1v-0.6c0.1,0.1,0.3,0.1,0.4,0.1
					c0.3,0,0.6-0.2,0.8-0.7l0.3-0.8l-1.7-4.4h0.7l1.3,3.4c0,0,0.1,0.1,0.1,0.3l0,0l0.1-0.3l1.3-3.4C171.5,28,172.2,28,172.2,28z"/>
			</g>
		</g>
	</g>
</g>
<g id="レイヤー_2">
	<g>
		<path fill="#4D4D4D" d="M53.5,19.9V8.5h7.4c2.1,0,3.7,0.5,4.8,1.5c1.1,1,1.7,2.4,1.7,4.2c0,1.1-0.2,2-0.7,2.9
			c-0.4,0.9-1.1,1.5-1.9,2c-0.5,0.3-1.1,0.5-1.9,0.7c-0.7,0.1-1.7,0.2-2.8,0.2H53.5z M56.2,17.8h3.4c1.8,0,3.1-0.3,3.9-0.9
			c0.8-0.6,1.1-1.5,1.1-2.8c0-1.2-0.3-2-1-2.6c-0.6-0.6-1.6-0.9-2.8-0.9h-4.7V17.8z"/>
		<path fill="#4D4D4D" d="M47.4,8.5v9.2h-5.2v-3.4l0,0L39.5,17v0.2c0,1,0.2,1.7,0.6,2.1c0.4,0.4,1.1,0.6,2.3,0.6h4.9
			c1.1,0,1.9-0.2,2.2-0.6c0.4-0.4,0.6-1.1,0.6-2.1V8.5H47.4z"/>
		<g>
			<rect x="110.4" y="6.3" fill="#00B0D8" width="1.6" height="1.6"/>
			<rect x="112.5" y="9.4" fill="#00B0D8" width="2.4" height="2.4"/>
			<path fill="#4D4D4D" d="M89.3,11.2c0-1,0.2-1.7,0.6-2.1c0.4-0.4,1.1-0.6,2.2-0.6h8.4c1.1,0,1.9,0.2,2.2,0.6
				c0.4,0.4,0.6,1.1,0.6,2.1v6c0,1-0.2,1.7-0.6,2.1c-0.4,0.4-1.1,0.6-2.2,0.6h-8.4c-1.1,0-1.9-0.2-2.2-0.6c-0.4-0.4-0.6-1.1-0.6-2.1
				V11.2z M92,17.8h8.8v-7.2H92V17.8z"/>
			<path fill="#4D4D4D" d="M140.5,19.9V8.5h7.4c2.1,0,3.7,0.5,4.8,1.5c1.1,1,1.7,2.4,1.7,4.2c0,1.1-0.2,2-0.7,2.9
				c-0.4,0.9-1.1,1.5-1.9,2c-0.5,0.3-1.1,0.5-1.9,0.7c-0.7,0.1-1.7,0.2-2.8,0.2H140.5z M143.2,17.8h3.4c1.8,0,3.1-0.3,3.9-0.9
				c0.8-0.6,1.2-1.5,1.2-2.8c0-1.2-0.3-2-1-2.6c-0.6-0.6-1.6-0.9-2.8-0.9h-4.7V17.8z"/>
			<path fill="#4D4D4D" d="M134.5,8.6v5.9c0,0.1,0,0.3,0,0.6c0,0.3,0,0.7,0.1,1.4c-0.2-0.2-0.4-0.4-0.6-0.6
				c-0.2-0.2-0.5-0.4-0.7-0.6l-8.1-6.7h-1.8v11.4h0l2.4-2.3v-3.8c0-0.2,0-0.5,0-0.8c0-0.3,0-0.6-0.1-1c0.1,0.2,0.3,0.3,0.4,0.4
				c0.2,0.1,0.3,0.3,0.5,0.5l8.4,7h1.8v-9L134.5,8.6z"/>
			<path fill="#4D4D4D" d="M117.1,11.2v6.6h-7.6v-6.6l-2.6-2.6h-0.1v8.7c0,1,0.2,1.7,0.6,2.1c0.4,0.4,1.1,0.6,2.3,0.6h7.2
				c1.1,0,1.9-0.2,2.3-0.6c0.4-0.4,0.6-1.1,0.6-2.1V8.5h0L117.1,11.2z"/>
			<path fill="#4D4D4D" d="M85.6,13.5c-0.4-0.4-1.1-0.6-2.3-0.6h-7.1v-2.4h7.5v1.2l2.1-2.1c-0.1-0.2-0.2-0.4-0.4-0.6
				c-0.4-0.4-1.2-0.5-2.2-0.5h-6.5c-1.1,0-1.9,0.2-2.3,0.6c-0.4,0.4-0.6,1.1-0.6,2.1v1.3c0,1,0.2,1.7,0.6,2.1
				c0.4,0.4,1.1,0.6,2.3,0.6h7.1v2.6h-8.1v-1.3l-2.2,2.2c0.1,0.3,0.2,0.6,0.4,0.7c0.4,0.4,1.2,0.6,2.3,0.6h7.1
				c1.1,0,1.9-0.2,2.3-0.6c0.4-0.4,0.6-1.1,0.6-2.1v-1.6C86.2,14.6,86,13.9,85.6,13.5z"/>
		</g>
	</g>
	<g>
		<path fill="#929496" d="M42.9,26.4h-1.6v5.1h-0.6v-5.1h-1.6v-0.6h3.9V26.4z"/>
		<path fill="#929496" d="M47,31.5h-0.6v-2.3c0-0.9-0.3-1.3-1-1.3c-0.3,0-0.6,0.1-0.8,0.4c-0.2,0.3-0.3,0.6-0.3,1v2.3h-0.6v-6h0.6
			v2.6h0c0.3-0.5,0.7-0.8,1.3-0.8c0.9,0,1.4,0.6,1.4,1.7V31.5z"/>
		<path fill="#929496" d="M51.4,29.6h-2.8c0,0.5,0.1,0.8,0.4,1.1c0.2,0.2,0.5,0.4,1,0.4c0.5,0,0.9-0.1,1.2-0.5v0.6
			c-0.4,0.3-0.8,0.4-1.4,0.4c-0.6,0-1-0.2-1.3-0.6c-0.3-0.4-0.5-0.9-0.5-1.6c0-0.6,0.2-1.1,0.5-1.5c0.3-0.4,0.8-0.6,1.3-0.6
			c0.5,0,0.9,0.2,1.2,0.5c0.3,0.3,0.4,0.8,0.4,1.4V29.6z M50.8,29.1c0-0.4-0.1-0.7-0.3-0.9c-0.2-0.2-0.4-0.3-0.7-0.3
			c-0.3,0-0.6,0.1-0.8,0.3c-0.2,0.2-0.4,0.5-0.4,0.9H50.8z"/>
		<path fill="#929496" d="M55.7,30.9v2.5h-0.6v-5.9h0.6v0.7h0c0.3-0.5,0.8-0.8,1.4-0.8c0.5,0,0.9,0.2,1.2,0.5
			c0.3,0.4,0.4,0.8,0.4,1.5c0,0.7-0.2,1.2-0.5,1.6c-0.3,0.4-0.8,0.6-1.3,0.6C56.4,31.6,56,31.4,55.7,30.9L55.7,30.9z M55.7,29.9
			c0,0.3,0.1,0.6,0.3,0.9c0.2,0.2,0.5,0.4,0.8,0.4c0.4,0,0.7-0.1,0.9-0.5c0.2-0.3,0.3-0.7,0.3-1.3c0-0.5-0.1-0.8-0.3-1.1
			c-0.2-0.3-0.5-0.4-0.8-0.4c-0.4,0-0.7,0.1-0.9,0.4c-0.2,0.3-0.4,0.6-0.4,1V29.9z"/>
		<path fill="#929496" d="M61.9,28.1C61.8,28,61.6,28,61.4,28c-0.3,0-0.5,0.1-0.7,0.4c-0.2,0.3-0.3,0.6-0.3,1.1v2.1h-0.6v-4.1h0.6
			v0.8h0c0.1-0.3,0.2-0.5,0.4-0.7c0.2-0.2,0.4-0.2,0.6-0.2c0.2,0,0.3,0,0.4,0.1V28.1z"/>
		<path fill="#929496" d="M62.2,29.5c0-0.7,0.2-1.2,0.5-1.6c0.4-0.4,0.9-0.6,1.5-0.6c0.6,0,1,0.2,1.4,0.6c0.3,0.4,0.5,0.9,0.5,1.6
			c0,0.6-0.2,1.2-0.5,1.6c-0.4,0.4-0.8,0.6-1.4,0.6c-0.6,0-1-0.2-1.4-0.6C62.4,30.7,62.2,30.2,62.2,29.5z M62.8,29.5
			c0,0.5,0.1,0.9,0.4,1.2c0.3,0.3,0.6,0.4,1,0.4c0.4,0,0.8-0.1,1-0.4c0.2-0.3,0.3-0.7,0.3-1.2c0-0.5-0.1-0.9-0.3-1.2
			c-0.2-0.3-0.6-0.4-1-0.4c-0.4,0-0.7,0.1-1,0.4C62.9,28.6,62.8,29,62.8,29.5z"/>
		<path fill="#929496" d="M68.9,26.1c-0.1-0.1-0.3-0.1-0.4-0.1c-0.5,0-0.7,0.3-0.7,0.9v0.6h0.9V28h-0.9v3.5h-0.6V28h-0.7v-0.5h0.7
			v-0.7c0-0.4,0.1-0.8,0.4-1c0.2-0.2,0.5-0.4,0.9-0.4c0.2,0,0.3,0,0.5,0.1V26.1z"/>
		<path fill="#929496" d="M72.6,29.6h-2.8c0,0.5,0.1,0.8,0.4,1.1c0.2,0.2,0.5,0.4,0.9,0.4c0.5,0,0.9-0.1,1.3-0.5v0.6
			c-0.4,0.3-0.8,0.4-1.4,0.4c-0.6,0-1-0.2-1.3-0.6c-0.3-0.4-0.5-0.9-0.5-1.6c0-0.6,0.2-1.1,0.5-1.5c0.4-0.4,0.8-0.6,1.3-0.6
			c0.5,0,0.9,0.2,1.2,0.5c0.3,0.3,0.4,0.8,0.4,1.4V29.6z M72,29.1c0-0.4-0.1-0.7-0.3-0.9c-0.2-0.2-0.4-0.3-0.8-0.3
			c-0.3,0-0.6,0.1-0.8,0.3c-0.2,0.2-0.3,0.5-0.4,0.9H72z"/>
		<path fill="#929496" d="M73.4,30.7c0.4,0.3,0.7,0.4,1.2,0.4c0.6,0,0.9-0.2,0.9-0.6c0-0.2-0.1-0.3-0.2-0.4
			c-0.1-0.1-0.4-0.2-0.7-0.4c-0.4-0.2-0.7-0.3-0.9-0.5c-0.1-0.2-0.2-0.4-0.2-0.7c0-0.3,0.1-0.6,0.4-0.8c0.3-0.2,0.7-0.3,1.1-0.3
			c0.3,0,0.6,0.1,0.9,0.2v0.6c-0.3-0.2-0.6-0.3-1-0.3c-0.3,0-0.4,0.1-0.6,0.2c-0.1,0.1-0.2,0.3-0.2,0.4c0,0.2,0.1,0.3,0.2,0.4
			c0.1,0.1,0.3,0.2,0.7,0.4c0.5,0.2,0.8,0.4,0.9,0.6c0.1,0.2,0.2,0.4,0.2,0.6c0,0.4-0.1,0.6-0.4,0.9c-0.3,0.2-0.7,0.3-1.1,0.3
			c-0.4,0-0.8-0.1-1.1-0.2V30.7z"/>
		<path fill="#929496" d="M76.8,30.7c0.4,0.3,0.7,0.4,1.2,0.4c0.6,0,0.9-0.2,0.9-0.6c0-0.2-0.1-0.3-0.2-0.4
			c-0.1-0.1-0.4-0.2-0.7-0.4c-0.4-0.2-0.7-0.3-0.9-0.5c-0.1-0.2-0.2-0.4-0.2-0.7c0-0.3,0.1-0.6,0.4-0.8c0.3-0.2,0.7-0.3,1.1-0.3
			c0.3,0,0.6,0.1,0.9,0.2v0.6c-0.3-0.2-0.6-0.3-1-0.3c-0.3,0-0.4,0.1-0.6,0.2c-0.1,0.1-0.2,0.3-0.2,0.4c0,0.2,0.1,0.3,0.2,0.4
			c0.1,0.1,0.3,0.2,0.7,0.4c0.5,0.2,0.8,0.4,0.9,0.6c0.1,0.2,0.2,0.4,0.2,0.6c0,0.4-0.1,0.6-0.4,0.9c-0.3,0.2-0.7,0.3-1.1,0.3
			c-0.4,0-0.8-0.1-1.1-0.2V30.7z"/>
		<path fill="#929496" d="M80.3,26c0-0.1,0-0.2,0.1-0.3c0.1-0.1,0.2-0.1,0.3-0.1c0.1,0,0.2,0,0.3,0.1c0.1,0.1,0.1,0.2,0.1,0.3
			c0,0.1,0,0.2-0.1,0.3c-0.1,0.1-0.2,0.1-0.3,0.1c-0.1,0-0.2,0-0.3-0.1C80.3,26.2,80.3,26.1,80.3,26z M80.4,31.5v-4.1H81v4.1H80.4z"
			/>
		<path fill="#929496" d="M82,29.5c0-0.7,0.2-1.2,0.5-1.6c0.4-0.4,0.9-0.6,1.5-0.6c0.6,0,1,0.2,1.4,0.6c0.3,0.4,0.5,0.9,0.5,1.6
			c0,0.6-0.2,1.2-0.5,1.6c-0.4,0.4-0.8,0.6-1.4,0.6c-0.6,0-1-0.2-1.4-0.6C82.2,30.7,82,30.2,82,29.5z M82.6,29.5
			c0,0.5,0.1,0.9,0.4,1.2c0.2,0.3,0.6,0.4,1,0.4c0.4,0,0.8-0.1,1-0.4c0.2-0.3,0.3-0.7,0.3-1.2c0-0.5-0.1-0.9-0.3-1.2
			c-0.2-0.3-0.6-0.4-1-0.4c-0.4,0-0.7,0.1-1,0.4C82.8,28.6,82.6,29,82.6,29.5z"/>
		<path fill="#929496" d="M90.3,31.5h-0.6v-2.3c0-0.9-0.3-1.3-1-1.3c-0.3,0-0.6,0.1-0.8,0.4c-0.2,0.3-0.3,0.6-0.3,1v2.3H87v-4.1h0.6
			v0.7h0c0.3-0.5,0.7-0.8,1.3-0.8c0.4,0,0.8,0.1,1,0.4c0.2,0.3,0.3,0.7,0.3,1.3V31.5z"/>
		<path fill="#929496" d="M91.6,27.8c0.4-0.3,0.8-0.4,1.3-0.4c0.9,0,1.4,0.5,1.4,1.5v2.7h-0.6v-0.6h0c-0.3,0.5-0.7,0.7-1.2,0.7
			c-0.4,0-0.7-0.1-0.9-0.3c-0.2-0.2-0.3-0.5-0.3-0.9c0-0.8,0.4-1.2,1.3-1.3l1.2-0.2c0-0.7-0.3-1.1-0.8-1.1c-0.5,0-0.9,0.2-1.3,0.5
			V27.8z M92.7,29.6c-0.3,0-0.5,0.1-0.7,0.2c-0.2,0.1-0.2,0.3-0.2,0.6c0,0.2,0.1,0.4,0.2,0.5c0.1,0.1,0.3,0.2,0.6,0.2
			c0.3,0,0.6-0.1,0.8-0.3c0.2-0.2,0.3-0.5,0.3-0.9v-0.4L92.7,29.6z"/>
		<path fill="#929496" d="M95.5,31.5v-6h0.6v6H95.5z"/>
		<path fill="#929496" d="M100.3,27.8c0.4-0.3,0.8-0.4,1.3-0.4c0.9,0,1.4,0.5,1.4,1.5v2.7h-0.6v-0.6h0c-0.3,0.5-0.7,0.7-1.2,0.7
			c-0.4,0-0.7-0.1-0.9-0.3c-0.2-0.2-0.3-0.5-0.3-0.9c0-0.8,0.4-1.2,1.3-1.3l1.2-0.2c0-0.7-0.3-1.1-0.8-1.1c-0.5,0-0.9,0.2-1.3,0.5
			V27.8z M101.4,29.6c-0.3,0-0.5,0.1-0.7,0.2c-0.2,0.1-0.2,0.3-0.2,0.6c0,0.2,0.1,0.4,0.2,0.5c0.1,0.1,0.3,0.2,0.6,0.2
			c0.3,0,0.6-0.1,0.8-0.3c0.2-0.2,0.3-0.5,0.3-0.9v-0.4L101.4,29.6z"/>
		<path fill="#929496" d="M107.5,31.5h-0.6v-0.6h0c-0.3,0.5-0.7,0.7-1.2,0.7c-1,0-1.4-0.6-1.4-1.7v-2.4h0.6v2.3c0,0.9,0.3,1.3,1,1.3
			c0.3,0,0.6-0.1,0.8-0.4c0.2-0.2,0.3-0.6,0.3-0.9v-2.3h0.6V31.5z"/>
		<path fill="#929496" d="M112.1,31.5h-0.6v-0.7h0c-0.3,0.5-0.8,0.8-1.4,0.8c-0.5,0-0.9-0.2-1.2-0.5c-0.3-0.4-0.4-0.9-0.4-1.5
			c0-0.7,0.2-1.2,0.5-1.6c0.3-0.4,0.8-0.6,1.3-0.6c0.5,0,1,0.2,1.2,0.7h0v-2.5h0.6V31.5z M111.6,29.1c0-0.3-0.1-0.6-0.3-0.8
			c-0.2-0.2-0.5-0.3-0.8-0.3c-0.4,0-0.7,0.1-0.9,0.5c-0.2,0.3-0.3,0.7-0.3,1.2c0,0.5,0.1,0.8,0.3,1.1c0.2,0.3,0.5,0.4,0.9,0.4
			c0.4,0,0.7-0.1,0.9-0.4c0.2-0.3,0.4-0.6,0.4-1V29.1z"/>
		<path fill="#929496" d="M113.4,26c0-0.1,0-0.2,0.1-0.3c0.1-0.1,0.2-0.1,0.3-0.1c0.1,0,0.2,0,0.3,0.1c0.1,0.1,0.1,0.2,0.1,0.3
			c0,0.1,0,0.2-0.1,0.3c-0.1,0.1-0.2,0.1-0.3,0.1c-0.1,0-0.2,0-0.3-0.1C113.4,26.2,113.4,26.1,113.4,26z M113.5,31.5v-4.1h0.6v4.1
			H113.5z"/>
		<path fill="#929496" d="M115.1,29.5c0-0.7,0.2-1.2,0.5-1.6c0.4-0.4,0.9-0.6,1.5-0.6c0.6,0,1,0.2,1.4,0.6c0.3,0.4,0.5,0.9,0.5,1.6
			c0,0.6-0.2,1.2-0.6,1.6c-0.4,0.4-0.8,0.6-1.4,0.6c-0.6,0-1-0.2-1.4-0.6C115.3,30.7,115.1,30.2,115.1,29.5z M115.7,29.5
			c0,0.5,0.1,0.9,0.4,1.2c0.2,0.3,0.6,0.4,1,0.4c0.4,0,0.8-0.1,1-0.4c0.2-0.3,0.3-0.7,0.3-1.2c0-0.5-0.1-0.9-0.3-1.2
			c-0.2-0.3-0.6-0.4-1-0.4c-0.4,0-0.7,0.1-1,0.4C115.8,28.6,115.7,29,115.7,29.5z"/>
		<path fill="#929496" d="M125.5,31.3c-0.3,0.2-0.7,0.3-1.1,0.3c-0.6,0-1-0.2-1.4-0.6c-0.4-0.4-0.5-0.9-0.5-1.5
			c0-0.7,0.2-1.2,0.6-1.6c0.4-0.4,0.9-0.6,1.5-0.6c0.3,0,0.7,0.1,0.9,0.2v0.6c-0.3-0.2-0.6-0.3-1-0.3c-0.4,0-0.7,0.1-1,0.5
			c-0.3,0.3-0.4,0.7-0.4,1.2c0,0.5,0.1,0.9,0.4,1.1c0.2,0.3,0.6,0.4,1,0.4c0.3,0,0.7-0.1,1-0.4V31.3z"/>
		<path fill="#929496" d="M126.2,29.5c0-0.7,0.2-1.2,0.5-1.6c0.4-0.4,0.9-0.6,1.5-0.6c0.6,0,1,0.2,1.4,0.6c0.3,0.4,0.5,0.9,0.5,1.6
			c0,0.6-0.2,1.2-0.5,1.6c-0.4,0.4-0.8,0.6-1.4,0.6c-0.6,0-1.1-0.2-1.4-0.6C126.4,30.7,126.2,30.2,126.2,29.5z M126.8,29.5
			c0,0.5,0.1,0.9,0.4,1.2c0.3,0.3,0.6,0.4,1,0.4c0.4,0,0.8-0.1,1-0.4c0.2-0.3,0.3-0.7,0.3-1.2c0-0.5-0.1-0.9-0.3-1.2
			c-0.2-0.3-0.6-0.4-1-0.4c-0.4,0-0.7,0.1-1,0.4C127,28.6,126.8,29,126.8,29.5z"/>
		<path fill="#929496" d="M136.8,31.5h-0.6v-2.3c0-0.5-0.1-0.8-0.2-1c-0.1-0.2-0.4-0.3-0.7-0.3c-0.3,0-0.5,0.1-0.7,0.4
			c-0.2,0.3-0.3,0.6-0.3,0.9v2.3h-0.6v-2.4c0-0.8-0.3-1.2-0.9-1.2c-0.3,0-0.5,0.1-0.7,0.4c-0.2,0.3-0.3,0.6-0.3,1v2.3h-0.6v-4.1h0.6
			v0.7h0c0.3-0.5,0.7-0.7,1.2-0.7c0.3,0,0.5,0.1,0.7,0.2c0.2,0.2,0.4,0.4,0.4,0.6c0.3-0.6,0.7-0.8,1.3-0.8c0.9,0,1.3,0.6,1.3,1.7
			V31.5z"/>
		<path fill="#929496" d="M138.6,30.9v2.5H138v-5.9h0.6v0.7h0c0.3-0.5,0.8-0.8,1.4-0.8c0.5,0,0.9,0.2,1.2,0.5
			c0.3,0.4,0.4,0.8,0.4,1.5c0,0.7-0.2,1.2-0.5,1.6s-0.8,0.6-1.3,0.6C139.3,31.6,138.9,31.4,138.6,30.9L138.6,30.9z M138.6,29.9
			c0,0.3,0.1,0.6,0.3,0.9c0.2,0.2,0.5,0.4,0.8,0.4c0.4,0,0.7-0.1,0.9-0.5c0.2-0.3,0.3-0.7,0.3-1.3c0-0.5-0.1-0.8-0.3-1.1
			c-0.2-0.3-0.5-0.4-0.8-0.4c-0.4,0-0.7,0.1-0.9,0.4c-0.2,0.3-0.4,0.6-0.4,1V29.9z"/>
		<path fill="#929496" d="M142.7,27.8c0.4-0.3,0.8-0.4,1.4-0.4c0.9,0,1.4,0.5,1.4,1.5v2.7h-0.6v-0.6h0c-0.3,0.5-0.7,0.7-1.2,0.7
			c-0.4,0-0.7-0.1-0.9-0.3c-0.2-0.2-0.3-0.5-0.3-0.9c0-0.8,0.4-1.2,1.3-1.3l1.2-0.2c0-0.7-0.3-1.1-0.8-1.1c-0.5,0-0.9,0.2-1.3,0.5
			V27.8z M143.8,29.6c-0.3,0-0.5,0.1-0.7,0.2c-0.2,0.1-0.2,0.3-0.2,0.6c0,0.2,0.1,0.4,0.2,0.5c0.1,0.1,0.3,0.2,0.6,0.2
			c0.3,0,0.6-0.1,0.8-0.3c0.2-0.2,0.3-0.5,0.3-0.9v-0.4L143.8,29.6z"/>
		<path fill="#929496" d="M149.9,31.5h-0.6v-2.3c0-0.9-0.3-1.3-1-1.3c-0.3,0-0.6,0.1-0.8,0.4c-0.2,0.3-0.3,0.6-0.3,1v2.3h-0.6v-4.1
			h0.6v0.7h0c0.3-0.5,0.7-0.8,1.3-0.8c0.4,0,0.8,0.1,1,0.4c0.2,0.3,0.4,0.7,0.4,1.3V31.5z"/>
		<path fill="#929496" d="M154.3,27.5l-1.9,4.7c-0.3,0.8-0.8,1.2-1.4,1.2c-0.1,0-0.3,0-0.4,0v-0.6c0.1,0,0.3,0.1,0.4,0.1
			c0.3,0,0.6-0.2,0.7-0.6l0.3-0.8l-1.6-4.1h0.7l1.1,3.2c0,0,0,0.1,0.1,0.3h0l0.1-0.3l1.2-3.2H154.3z"/>
	</g>
</g>
<g id="レイヤー_3">
	<g>
		<linearGradient id="SVGID_1_" gradientUnits="userSpaceOnUse" x1="17.551" y1="39.3401" x2="17.551" y2="0.7771">
			<stop  offset="0" style="stop-color:#006AAF"/>
			<stop  offset="1" style="stop-color:#55B8DB"/>
		</linearGradient>
		<path fill="url(#SVGID_1_)" d="M20.3,38c-9.8,0-17.8-8-17.8-17.9s8-17.9,17.8-17.9c5,0,9.5,2.1,12.7,5.4l1-1
			C30.5,3,25.7,0.8,20.3,0.8C9.7,0.8,1.1,9.4,1.1,20.1c0,10.6,8.6,19.3,19.2,19.3c5.2,0,9.8-2.1,13.3-5.4l-1-1
			C29.4,36.1,25.1,38,20.3,38z"/>
		<linearGradient id="SVGID_2_" gradientUnits="userSpaceOnUse" x1="19.455" y1="26.2287" x2="19.455" y2="13.8885">
			<stop  offset="0" style="stop-color:#006AAF"/>
			<stop  offset="1" style="stop-color:#55B8DB"/>
		</linearGradient>
		<path fill="url(#SVGID_2_)" d="M20.3,25.3c-2.9,0-5.2-2.4-5.2-5.3c0-2.9,2.3-5.3,5.2-5.3c1.5,0,2.9,0.6,3.8,1.7l0.6-0.6
			c-1.1-1.2-2.7-1.9-4.5-1.9c-3.4,0-6.1,2.8-6.1,6.2c0,3.4,2.8,6.2,6.1,6.2c1.5,0,2.9-0.6,4-1.5l-0.6-0.6
			C22.8,24.8,21.6,25.3,20.3,25.3z"/>
		<linearGradient id="SVGID_3_" gradientUnits="userSpaceOnUse" x1="18.979" y1="29.5066" x2="18.979" y2="10.6107">
			<stop  offset="0" style="stop-color:#006AAF"/>
			<stop  offset="1" style="stop-color:#55B8DB"/>
		</linearGradient>
		<path fill="url(#SVGID_3_)" d="M20.3,28.5c-4.6,0-8.4-3.8-8.4-8.4c0-4.6,3.8-8.4,8.4-8.4c2.4,0,4.5,1,6,2.6l0.7-0.7
			c-1.7-1.8-4.1-2.9-6.8-2.9c-5.2,0-9.4,4.2-9.4,9.4c0,5.2,4.2,9.4,9.4,9.4c2.4,0,4.7-0.9,6.3-2.5l-0.7-0.7
			C24.4,27.6,22.5,28.5,20.3,28.5z"/>
		<linearGradient id="SVGID_4_" gradientUnits="userSpaceOnUse" x1="18.503" y1="32.7844" x2="18.503" y2="7.3328">
			<stop  offset="0" style="stop-color:#006AAF"/>
			<stop  offset="1" style="stop-color:#55B8DB"/>
		</linearGradient>
		<path fill="url(#SVGID_4_)" d="M20.3,31.6c-6.4,0-11.5-5.2-11.5-11.6c0-6.4,5.2-11.6,11.5-11.6c3.2,0,6.2,1.4,8.3,3.5l0.8-0.8
			c-2.3-2.4-5.5-3.9-9.1-3.9c-7,0-12.7,5.7-12.7,12.7c0,7,5.7,12.7,12.7,12.7c3.4,0,6.4-1.3,8.7-3.4l-0.8-0.8
			C26.1,30.5,23.3,31.6,20.3,31.6z"/>
		<linearGradient id="SVGID_5_" gradientUnits="userSpaceOnUse" x1="18.027" y1="36.0623" x2="18.027" y2="4.0549">
			<stop  offset="0" style="stop-color:#006AAF"/>
			<stop  offset="1" style="stop-color:#55B8DB"/>
		</linearGradient>
		<path fill="url(#SVGID_5_)" d="M20.3,34.8c-8.1,0-14.7-6.6-14.7-14.7c0-8.1,6.6-14.7,14.7-14.7c4.1,0,7.8,1.7,10.5,4.5l0.9-0.9
			c-2.9-3-6.9-4.8-11.4-4.8c-8.8,0-15.9,7.2-15.9,16s7.1,16,15.9,16c4.3,0,8.1-1.7,11-4.4l-0.9-0.9C27.7,33.3,24.2,34.8,20.3,34.8z"
			/>
	</g>
</g>
</svg>
