<?xml version="1.0" encoding="utf-8"?>
<!-- Generator: Adobe Illustrator 18.1.1, SVG Export Plug-In . SVG Version: 6.00 Build 0)  -->
<!DOCTYPE svg PUBLIC "-//W3C//DTD SVG 1.1//EN" "http://www.w3.org/Graphics/SVG/1.1/DTD/svg11.dtd">
<svg version="1.1" id="レイヤー_1" xmlns="http://www.w3.org/2000/svg" xmlns:xlink="http://www.w3.org/1999/xlink" x="0px"
	 y="0px" width="86px" height="26px" viewBox="0 0 86 26" enable-background="new 0 0 86 26" xml:space="preserve">
<g>
	<path fill="#FFFFFF" d="M0,7.4h0.8l7.7,9.7V7.4h0.8v11.2H8.7l-7.9-10v10H0V7.4z"/>
	<path fill="#FFFFFF" d="M13.4,7.4h8v0.8h-7.1v4.4h6.4v0.8h-6.4v4.5h7.2v0.8h-8.1V7.4z"/>
	<path fill="#FFFFFF" d="M24.1,7.4H25l3.5,10l3.3-10h0.6l3.3,10l3.5-10h0.9l-4.1,11.3h-0.7L32.1,9l-3.3,9.7h-0.7L24.1,7.4z"/>
	<path fill="#FFFFFF" d="M42.7,17l0.5-0.6c1.2,1.1,2.4,1.7,4,1.7c1.7,0,2.8-0.9,2.8-2.2v0c0-1.2-0.6-1.9-3.2-2.4
		c-2.7-0.5-3.8-1.5-3.8-3.2v0c0-1.7,1.5-2.9,3.6-2.9c1.6,0,2.7,0.4,3.8,1.4L50,9.3C49,8.3,47.9,8,46.7,8C45,8,44,8.9,44,10.1v0
		c0,1.2,0.6,1.9,3.3,2.4c2.6,0.5,3.7,1.5,3.7,3.1v0c0,1.8-1.6,3.1-3.7,3.1C45.4,18.8,44,18.2,42.7,17z"/>
</g>
<rect x="80" y="-0.7" transform="matrix(0.9506 0.3104 -0.3104 0.9506 7.9542 -24.3663)" fill="#515151" width="1" height="27"/>
</svg>
