<?xml version="1.0" encoding="utf-8"?>
<!-- Generator: Adobe Illustrator 18.1.1, SVG Export Plug-In . SVG Version: 6.00 Build 0)  -->
<!DOCTYPE svg PUBLIC "-//W3C//DTD SVG 1.1//EN" "http://www.w3.org/Graphics/SVG/1.1/DTD/svg11.dtd">
<svg version="1.1" id="レイヤー_1" xmlns="http://www.w3.org/2000/svg" xmlns:xlink="http://www.w3.org/1999/xlink" x="0px"
	 y="0px" viewBox="0 0 65 17" enable-background="new 0 0 65 17" xml:space="preserve">
<g>
	<path fill="#FFFFFF" d="M25.3,13.2V15h-1.4V1.8h1.4v5.7c0.8-1.1,1.9-2.1,3.6-2.1c2.2,0,4.4,1.8,4.4,4.8v0c0,3-2.2,4.8-4.4,4.8
		C27.1,15.2,26,14.2,25.3,13.2z M31.9,10.3L31.9,10.3c0-2.2-1.5-3.6-3.3-3.6c-1.7,0-3.4,1.5-3.4,3.6v0c0,2.2,1.6,3.6,3.4,3.6
		C30.4,13.9,31.9,12.6,31.9,10.3z"/>
	<path fill="#FFFFFF" d="M35.1,12.3L35.1,12.3c0-2,1.6-3,4-3c1.2,0,2,0.2,2.9,0.4V9.3c0-1.7-1-2.5-2.8-2.5c-1.1,0-2,0.3-2.8,0.7
		l-0.4-1.1c1-0.5,2-0.8,3.4-0.8c1.3,0,2.3,0.3,3,1c0.6,0.6,1,1.5,1,2.7V15h-1.3v-1.4c-0.6,0.8-1.7,1.6-3.4,1.6
		C36.8,15.2,35.1,14.2,35.1,12.3z M41.9,11.5v-0.9c-0.7-0.2-1.6-0.4-2.7-0.4c-1.7,0-2.7,0.8-2.7,1.9v0c0,1.2,1.1,1.9,2.3,1.9
		C40.5,14.1,41.9,13,41.9,11.5z"/>
	<path fill="#FFFFFF" d="M45.6,10.3L45.6,10.3c0-2.7,2.1-4.9,4.8-4.9c1.8,0,2.9,0.7,3.7,1.7l-0.9,1c-0.7-0.8-1.6-1.4-2.8-1.4
		c-1.9,0-3.3,1.6-3.3,3.6v0c0,2,1.5,3.6,3.4,3.6c1.2,0,2.1-0.6,2.8-1.4l0.9,0.8c-0.9,1-2.1,1.8-3.8,1.8C47.6,15.2,45.6,13,45.6,10.3
		z"/>
	<path fill="#FFFFFF" d="M56.3,1.8h1.4v9.1l5-5.2h1.7l-3.9,4l4,5.3h-1.7l-3.3-4.3l-1.9,1.9V15h-1.4V1.8z"/>
</g>
<path id="undo-icon" fill="#18D6FF" d="M8.4,2.5H3.5V0.7L0,4.2l3.5,3.5V5.8h4.9c2,0,3.6,1.6,3.6,3.6c0,2-1.6,3.6-3.6,3.6H3.7v3.3
	h4.8c3.8,0,6.9-3.1,6.9-6.9C15.3,5.6,12.2,2.5,8.4,2.5z"/>
</svg>
