<?xml version="1.0" encoding="utf-8"?>
<!-- Generator: Adobe Illustrator 18.1.1, SVG Export Plug-In . SVG Version: 6.00 Build 0)  -->
<!DOCTYPE svg PUBLIC "-//W3C//DTD SVG 1.1//EN" "http://www.w3.org/Graphics/SVG/1.1/DTD/svg11.dtd">
<svg version="1.1" id="レイヤー_1" xmlns="http://www.w3.org/2000/svg" xmlns:xlink="http://www.w3.org/1999/xlink" x="0px"
	 y="0px" width="430px" height="95px" viewBox="0 0 430 95" enable-background="new 0 0 430 95" xml:space="preserve">
<g>
	<path fill="#FFFFFF" d="M2,35.1V4.9h5.4c1.6,0,3,0.1,4.2,0.3s2.5,0.6,3.6,1.2s2.3,1.3,3.3,2.3c1.5,1.4,2.7,3.1,3.6,5.1
		s1.2,4,1.2,6.2c0,2.1-0.4,4.1-1.2,6s-1.9,3.6-3.4,5c-0.8,0.8-1.6,1.4-2.5,2s-1.8,0.9-2.7,1.2s-1.9,0.5-2.9,0.6s-2.1,0.2-3.3,0.2H2z
		 M3.9,33.3h3.5c2.1,0,4-0.3,5.6-0.8s3.1-1.5,4.5-2.8c1.3-1.3,2.3-2.8,3-4.4s1-3.4,1-5.2c0-1.9-0.4-3.8-1.1-5.5s-1.8-3.3-3.2-4.5
		c-1.4-1.2-2.8-2.1-4.4-2.6S9.4,6.7,7.4,6.7H3.9V33.3z"/>
	<path fill="#FFFFFF" d="M45.5,26h-16c0,1.6,0.3,2.9,1,4.1s1.5,2.1,2.7,2.7s2.4,1,3.8,1c1.4,0,2.7-0.4,3.8-1.1s2-1.8,2.7-3.1
		l1.5,0.9c-0.8,1.6-2,2.8-3.4,3.7s-3.1,1.3-4.9,1.3c-1.8,0-3.3-0.4-4.7-1.3s-2.4-2-3.2-3.5s-1.1-3.1-1.1-4.8c0-1.7,0.4-3.3,1.1-4.8
		s1.8-2.6,3.2-3.5s2.9-1.3,4.7-1.3c1.8,0,3.4,0.4,4.7,1.3s2.4,2.1,3.1,3.6S45.5,24.2,45.5,26z M29.5,24.3h14.2
		c-0.1-1.1-0.5-2.2-1.2-3.2s-1.5-1.8-2.5-2.4s-2.1-0.9-3.4-0.9s-2.4,0.3-3.4,0.9s-1.9,1.4-2.6,2.4S29.6,23.1,29.5,24.3z"/>
	<path fill="#FFFFFF" d="M49.7,16.6l6.7,15.2l6.6-15.2h1.8L56.3,36l-8.5-19.5H49.7z"/>
	<path fill="#FFFFFF" d="M85,26h-16c0,1.6,0.3,2.9,1,4.1s1.5,2.1,2.7,2.7s2.4,1,3.8,1c1.4,0,2.7-0.4,3.8-1.1s2-1.8,2.7-3.1l1.5,0.9
		c-0.8,1.6-2,2.8-3.4,3.7s-3.1,1.3-4.9,1.3c-1.8,0-3.3-0.4-4.7-1.3s-2.4-2-3.2-3.5s-1.1-3.1-1.1-4.8c0-1.7,0.4-3.3,1.1-4.8
		s1.8-2.6,3.2-3.5s2.9-1.3,4.7-1.3c1.8,0,3.4,0.4,4.7,1.3s2.4,2.1,3.1,3.6S85,24.2,85,26z M68.9,24.3h14.2c-0.1-1.1-0.5-2.2-1.2-3.2
		s-1.5-1.8-2.5-2.4s-2.1-0.9-3.4-0.9s-2.4,0.3-3.4,0.9s-1.9,1.4-2.6,2.4S69,23.1,68.9,24.3z"/>
	<path fill="#FFFFFF" d="M92.4,2.1v33h-1.8v-33H92.4z"/>
	<path fill="#FFFFFF" d="M107.6,16.2c1.4,0,2.6,0.2,3.8,0.7s2.2,1.2,3.1,2s1.6,1.9,2.1,3.1s0.7,2.4,0.7,3.8c0,1.8-0.4,3.4-1.3,4.9
		s-2,2.6-3.5,3.5s-3.1,1.3-4.9,1.3c-1.7,0-3.3-0.4-4.8-1.3s-2.6-2-3.5-3.5S98,27.6,98,25.9c0-1.7,0.4-3.4,1.3-4.8s2-2.7,3.5-3.5
		S105.9,16.2,107.6,16.2z M107.5,17.9c-1.4,0-2.7,0.4-3.9,1.1s-2.1,1.7-2.8,2.9s-1,2.6-1,4c0,1.4,0.3,2.7,1,3.9s1.6,2.2,2.8,2.9
		s2.5,1.1,3.9,1.1c1.5,0,2.8-0.3,4.1-1s2.2-1.7,2.9-2.9s1.1-2.6,1.1-4c0-1.5-0.4-2.9-1.1-4.1s-1.7-2.2-2.9-2.9S109,17.9,107.5,17.9z
		"/>
	<path fill="#FFFFFF" d="M124.8,16.6v3.3h0.1c0.7-1.1,1.7-2.1,3-2.7s2.7-1,4.1-1c1.4,0,2.6,0.2,3.8,0.7s2.1,1.2,2.9,2.1
		s1.4,2,1.8,3.1s0.6,2.4,0.6,3.8c0,1.8-0.4,3.4-1.1,4.9s-1.8,2.6-3.2,3.4s-3,1.2-4.8,1.2c-1.5,0-2.8-0.3-4.1-0.9s-2.3-1.5-3-2.7
		h-0.1v14H123V16.6H124.8z M132,17.9c-1.5,0-2.8,0.4-3.9,1.1s-1.9,1.8-2.5,3.1s-0.9,2.7-0.9,4.2c0,1.4,0.3,2.7,0.9,3.9
		s1.5,2.1,2.6,2.7s2.4,1,3.8,1c1.4,0,2.6-0.4,3.7-1.1s2-1.7,2.6-2.9s0.9-2.5,0.9-3.8c0-1.4-0.3-2.8-0.9-4s-1.4-2.2-2.5-3
		S133.5,17.9,132,17.9z"/>
	<path fill="#FFFFFF" d="M163.8,18.3v16.8h-1.8V18.3h-2v-1.7h2V10h1.8v6.6h3.2v1.7H163.8z"/>
	<path fill="#FFFFFF" d="M171.6,2.1h1.8v17.4h0.1c0.5-1,1.3-1.8,2.3-2.4s2-0.9,3.2-0.9c1.5,0,2.8,0.3,3.7,0.9s1.5,1.5,1.9,2.6
		s0.5,2.5,0.5,4.2v11.2h-1.8V23.9c0-1.3-0.1-2.4-0.3-3.2s-0.6-1.5-1.3-2.1s-1.6-0.8-2.9-0.8c-1.4,0-2.6,0.4-3.4,1.2
		s-1.3,1.8-1.6,2.9s-0.4,2.5-0.4,4v9.1h-1.8V2.1z"/>
	<path fill="#FFFFFF" d="M208.5,26h-16c0,1.6,0.3,2.9,1,4.1s1.5,2.1,2.7,2.7s2.4,1,3.8,1c1.4,0,2.7-0.4,3.8-1.1s2-1.8,2.7-3.1
		l1.5,0.9c-0.8,1.6-2,2.8-3.4,3.7s-3.1,1.3-4.9,1.3c-1.8,0-3.3-0.4-4.7-1.3s-2.4-2-3.2-3.5s-1.1-3.1-1.1-4.8c0-1.7,0.4-3.3,1.1-4.8
		s1.8-2.6,3.2-3.5s2.9-1.3,4.7-1.3c1.8,0,3.4,0.4,4.7,1.3s2.4,2.1,3.1,3.6S208.5,24.2,208.5,26z M192.5,24.3h14.2
		c-0.1-1.1-0.5-2.2-1.2-3.2s-1.5-1.8-2.5-2.4s-2.1-0.9-3.4-0.9s-2.4,0.3-3.4,0.9s-1.9,1.4-2.6,2.4S192.6,23.1,192.5,24.3z"/>
	<path fill="#FFFFFF" d="M231.1,18.3v16.8h-1.8V18.3h-2v-1.7h2V8.3c0-2.2,0.2-3.7,0.7-4.5c0.4-0.7,1-1.3,1.7-1.7s1.5-0.6,2.4-0.6
		c0.6,0,1.1,0.1,1.6,0.3v1.6c-0.2,0-0.4-0.1-0.6-0.1s-0.3-0.1-0.5-0.1s-0.3,0-0.4,0c-1.4,0-2.2,0.5-2.6,1.5s-0.6,2.3-0.6,4v7.9h4.6
		v1.7H231.1z"/>
	<path fill="#FFFFFF" d="M251.6,16.6h1.8v11.1c0,1.3-0.1,2.3-0.2,3.1s-0.4,1.5-0.9,2.2c-0.6,0.8-1.4,1.4-2.4,1.8s-2,0.6-3.1,0.6
		c-1.1,0-2.1-0.2-3.1-0.6s-1.8-1-2.4-1.8c-0.3-0.5-0.6-1-0.8-1.6s-0.3-1.1-0.3-1.7s-0.1-1.2-0.1-2.1V16.6h1.8V27
		c0,1,0.1,1.9,0.2,2.7s0.3,1.5,0.6,2.1s0.8,1.1,1.5,1.5s1.5,0.5,2.6,0.5c2,0,3.3-0.6,3.9-1.7s0.9-2.8,0.9-5V16.6z"/>
	<path fill="#FFFFFF" d="M262.4,18.3v16.8h-1.8V18.3h-2v-1.7h2V10h1.8v6.6h3.2v1.7H262.4z"/>
	<path fill="#FFFFFF" d="M281.5,16.6h1.8v11.1c0,1.3-0.1,2.3-0.2,3.1s-0.4,1.5-0.9,2.2c-0.6,0.8-1.4,1.4-2.4,1.8s-2,0.6-3.1,0.6
		c-1.1,0-2.1-0.2-3.1-0.6s-1.8-1-2.4-1.8c-0.3-0.5-0.6-1-0.8-1.6s-0.3-1.1-0.3-1.7s-0.1-1.2-0.1-2.1V16.6h1.8V27
		c0,1,0.1,1.9,0.2,2.7s0.3,1.5,0.6,2.1s0.8,1.1,1.5,1.5s1.5,0.5,2.6,0.5c2,0,3.3-0.6,3.9-1.7s0.9-2.8,0.9-5V16.6z"/>
	<path fill="#FFFFFF" d="M292,16.6V19h0.1c0.8-1.9,2.1-2.8,4-2.8c0.6,0,1.3,0.1,2,0.4l-1,1.6c-0.4-0.2-0.9-0.4-1.3-0.4
		c-1.1,0-1.9,0.3-2.5,1s-0.9,1.5-1.1,2.5s-0.2,2.1-0.2,3.3v0.9v9.4h-1.8V16.6H292z"/>
	<path fill="#FFFFFF" d="M317.8,26h-16c0,1.6,0.3,2.9,1,4.1s1.5,2.1,2.7,2.7s2.4,1,3.8,1c1.4,0,2.7-0.4,3.8-1.1s2-1.8,2.7-3.1
		l1.5,0.9c-0.8,1.6-2,2.8-3.4,3.7s-3.1,1.3-4.9,1.3c-1.8,0-3.3-0.4-4.7-1.3s-2.4-2-3.2-3.5s-1.1-3.1-1.1-4.8c0-1.7,0.4-3.3,1.1-4.8
		s1.8-2.6,3.2-3.5s2.9-1.3,4.7-1.3c1.8,0,3.4,0.4,4.7,1.3s2.4,2.1,3.1,3.6S317.8,24.2,317.8,26z M301.7,24.3H316
		c-0.1-1.1-0.5-2.2-1.2-3.2s-1.5-1.8-2.5-2.4s-2.1-0.9-3.4-0.9s-2.4,0.3-3.4,0.9s-1.9,1.4-2.6,2.4S301.8,23.1,301.7,24.3z"/>
	<path fill="#FFFFFF" d="M346.3,16.2c1.4,0,2.6,0.2,3.8,0.7s2.2,1.2,3.1,2s1.6,1.9,2.1,3.1s0.7,2.4,0.7,3.8c0,1.8-0.4,3.4-1.3,4.9
		s-2,2.6-3.5,3.5s-3.1,1.3-4.9,1.3c-1.7,0-3.3-0.4-4.8-1.3s-2.6-2-3.5-3.5s-1.3-3.1-1.3-4.8c0-1.7,0.4-3.4,1.3-4.8s2-2.7,3.5-3.5
		S344.6,16.2,346.3,16.2z M346.2,17.9c-1.4,0-2.7,0.4-3.9,1.1s-2.1,1.7-2.8,2.9s-1,2.6-1,4c0,1.4,0.3,2.7,1,3.9s1.6,2.2,2.8,2.9
		s2.5,1.1,3.9,1.1c1.5,0,2.8-0.3,4.1-1s2.2-1.7,2.9-2.9s1.1-2.6,1.1-4c0-1.5-0.4-2.9-1.1-4.1s-1.7-2.2-2.9-2.9
		S347.7,17.9,346.2,17.9z"/>
	<path fill="#FFFFFF" d="M363.5,18.3v16.8h-1.8V18.3h-2v-1.7h2V8.3c0-2.2,0.2-3.7,0.7-4.5c0.4-0.7,1-1.3,1.7-1.7s1.5-0.6,2.4-0.6
		c0.6,0,1.1,0.1,1.6,0.3v1.6c-0.2,0-0.4-0.1-0.6-0.1s-0.3-0.1-0.5-0.1s-0.3,0-0.4,0c-1.4,0-2.2,0.5-2.6,1.5s-0.6,2.3-0.6,4v7.9h4.6
		v1.7H363.5z"/>
	<path fill="#FFFFFF" d="M16.2,82.9v-3.3h-0.1c-0.7,1.1-1.6,2-3,2.7s-2.7,1-4.1,1c-1.8,0-3.4-0.4-4.8-1.3s-2.5-2-3.2-3.5
		S0,75.4,0,73.6c0-1.4,0.2-2.6,0.6-3.8s1-2.2,1.8-3s1.7-1.5,2.9-2s2.4-0.7,3.7-0.7c1.4,0,2.8,0.3,4.1,0.9s2.3,1.5,3.1,2.7h0.1V49.9
		H18v33H16.2z M9.1,81.7c1.5,0,2.8-0.4,3.9-1.1s1.9-1.8,2.5-3s0.8-2.6,0.8-4.1c0-1.1-0.2-2-0.5-3S15,68.7,14.3,68s-1.4-1.2-2.3-1.6
		s-1.9-0.6-3-0.6c-1,0-2,0.2-2.9,0.6s-1.6,1-2.3,1.8s-1.1,1.6-1.5,2.5s-0.5,1.9-0.5,2.9c0,1.4,0.3,2.8,0.9,4s1.5,2.2,2.6,3
		S7.6,81.7,9.1,81.7z"/>
	<path fill="#FFFFFF" d="M26.4,56.7c0.5,0,0.9,0.2,1.2,0.5s0.5,0.7,0.5,1.2c0,0.5-0.2,0.9-0.5,1.2s-0.7,0.5-1.2,0.5
		s-0.8-0.2-1.2-0.5s-0.5-0.7-0.5-1.2c0-0.4,0.2-0.8,0.5-1.1S25.9,56.7,26.4,56.7z M27.3,64.5v18.5h-1.8V64.5H27.3z"/>
	<path fill="#FFFFFF" d="M51.3,64.5v17.6c0,1.8-0.1,3.3-0.3,4.4s-0.7,2.3-1.5,3.4c-0.8,1.2-1.9,2-3.2,2.6s-2.7,0.9-4.2,0.9
		c-1.6,0-3.1-0.3-4.5-0.9s-2.4-1.5-3.3-2.7s-1.3-2.6-1.4-4.3h1.8c0.1,1.2,0.4,2.3,1.1,3.3s1.5,1.7,2.6,2.2s2.2,0.8,3.5,0.8
		c1.2,0,2.3-0.2,3.4-0.7s1.9-1.1,2.5-2.1c0.7-1,1.1-2,1.3-3.1s0.3-2.4,0.3-3.9v-2.3h-0.1c-0.8,1.1-1.9,2-3.2,2.6s-2.6,1-4,1
		c-1.7,0-3.3-0.4-4.7-1.3s-2.4-2.1-3.2-3.6s-1.1-3.1-1.1-4.8c0-1.8,0.4-3.4,1.2-4.8s1.9-2.6,3.3-3.5s3-1.3,4.8-1.3
		c2.9,0,5.2,1.2,7,3.6h0.1v-3.2H51.3z M42.2,65.7c-1,0-2,0.2-2.9,0.6s-1.6,1-2.3,1.8s-1.1,1.6-1.5,2.5s-0.5,1.9-0.5,2.9
		c0,1.4,0.3,2.8,0.9,4s1.5,2.2,2.6,3s2.4,1.1,3.8,1.1c1.5,0,2.8-0.4,3.9-1.1s1.9-1.8,2.5-3s0.8-2.6,0.8-4.1c0-1.4-0.3-2.7-0.9-3.9
		s-1.5-2.1-2.6-2.8S43.7,65.7,42.2,65.7z"/>
	<path fill="#FFFFFF" d="M59.7,56.7c0.5,0,0.9,0.2,1.2,0.5s0.5,0.7,0.5,1.2c0,0.5-0.2,0.9-0.5,1.2s-0.7,0.5-1.2,0.5
		s-0.8-0.2-1.2-0.5S58,58.8,58,58.3c0-0.4,0.2-0.8,0.5-1.1S59.2,56.7,59.7,56.7z M60.5,64.5v18.5h-1.8V64.5H60.5z"/>
	<path fill="#FFFFFF" d="M70,66.1v16.8h-1.8V66.1h-2v-1.7h2v-6.6H70v6.6h3.2v1.7H70z"/>
	<path fill="#FFFFFF" d="M93.9,64.5v18.5h-1.8v-3.3H92c-0.7,1.1-1.6,2-3,2.7s-2.7,1-4.1,1c-1.8,0-3.4-0.4-4.8-1.3s-2.5-2-3.2-3.5
		s-1.1-3.1-1.1-4.9c0-1.4,0.2-2.6,0.6-3.8s1-2.2,1.8-3s1.7-1.5,2.9-2s2.4-0.7,3.7-0.7c1.4,0,2.8,0.3,4.1,0.9s2.3,1.5,3.1,2.7h0.1
		v-3.2H93.9z M84.8,65.7c-1,0-2,0.2-2.9,0.6s-1.6,1-2.3,1.8s-1.1,1.6-1.5,2.5s-0.5,1.9-0.5,2.9c0,1.4,0.3,2.8,0.9,4s1.5,2.2,2.6,3
		s2.4,1.1,3.8,1.1c1.5,0,2.8-0.4,3.9-1.1s1.9-1.8,2.5-3s0.8-2.6,0.8-4.1c0-1.1-0.2-2-0.5-3s-0.8-1.8-1.5-2.4s-1.4-1.2-2.3-1.6
		S85.9,65.7,84.8,65.7z"/>
	<path fill="#FFFFFF" d="M102.8,49.9v33H101v-33H102.8z"/>
	<path fill="#FFFFFF" d="M141.6,64.5v18.5h-1.8v-3.3h-0.1c-0.7,1.1-1.6,2-3,2.7s-2.7,1-4.1,1c-1.8,0-3.4-0.4-4.8-1.3s-2.5-2-3.2-3.5
		s-1.1-3.1-1.1-4.9c0-1.4,0.2-2.6,0.6-3.8s1-2.2,1.8-3s1.7-1.5,2.9-2s2.4-0.7,3.7-0.7c1.4,0,2.8,0.3,4.1,0.9s2.3,1.5,3.1,2.7h0.1
		v-3.2H141.6z M132.5,65.7c-1,0-2,0.2-2.9,0.6s-1.6,1-2.3,1.8s-1.1,1.6-1.5,2.5s-0.5,1.9-0.5,2.9c0,1.4,0.3,2.8,0.9,4s1.5,2.2,2.6,3
		s2.4,1.1,3.8,1.1c1.5,0,2.8-0.4,3.9-1.1s1.9-1.8,2.5-3s0.8-2.6,0.8-4.1c0-1.1-0.2-2-0.5-3s-0.8-1.8-1.5-2.4s-1.4-1.2-2.3-1.6
		S133.6,65.7,132.5,65.7z"/>
	<path fill="#FFFFFF" d="M159.9,64.5h1.8v11.1c0,1.3-0.1,2.3-0.2,3.1s-0.4,1.5-0.9,2.2c-0.6,0.8-1.4,1.4-2.4,1.8s-2,0.6-3.1,0.6
		c-1.1,0-2.1-0.2-3.1-0.6s-1.8-1-2.4-1.8c-0.3-0.5-0.6-1-0.8-1.6s-0.3-1.1-0.3-1.7s-0.1-1.2-0.1-2.1V64.5h1.8v10.4
		c0,1,0.1,1.9,0.2,2.7s0.3,1.5,0.6,2.1s0.8,1.1,1.5,1.5s1.5,0.5,2.6,0.5c2,0,3.3-0.6,3.9-1.7s0.9-2.8,0.9-5V64.5z"/>
	<path fill="#FFFFFF" d="M183.5,82.9v-3.3h-0.1c-0.7,1.1-1.6,2-3,2.7s-2.7,1-4.1,1c-1.8,0-3.4-0.4-4.8-1.3s-2.5-2-3.2-3.5
		s-1.1-3.1-1.1-4.9c0-1.4,0.2-2.6,0.6-3.8s1-2.2,1.8-3s1.7-1.5,2.9-2s2.4-0.7,3.7-0.7c1.4,0,2.8,0.3,4.1,0.9s2.3,1.5,3.1,2.7h0.1
		V49.9h1.8v33H183.5z M176.3,81.7c1.5,0,2.8-0.4,3.9-1.1s1.9-1.8,2.5-3s0.8-2.6,0.8-4.1c0-1.1-0.2-2-0.5-3s-0.8-1.8-1.5-2.4
		s-1.4-1.2-2.3-1.6s-1.9-0.6-3-0.6c-1,0-2,0.2-2.9,0.6s-1.6,1-2.3,1.8s-1.1,1.6-1.5,2.5s-0.5,1.9-0.5,2.9c0,1.4,0.3,2.8,0.9,4
		s1.5,2.2,2.6,3S174.8,81.7,176.3,81.7z"/>
	<path fill="#FFFFFF" d="M193.6,56.7c0.5,0,0.9,0.2,1.2,0.5s0.5,0.7,0.5,1.2c0,0.5-0.2,0.9-0.5,1.2s-0.7,0.5-1.2,0.5
		s-0.8-0.2-1.2-0.5s-0.5-0.7-0.5-1.2c0-0.4,0.2-0.8,0.5-1.1S193.1,56.7,193.6,56.7z M194.5,64.5v18.5h-1.8V64.5H194.5z"/>
	<path fill="#FFFFFF" d="M209.9,64.1c1.4,0,2.6,0.2,3.8,0.7s2.2,1.2,3.1,2s1.6,1.9,2.1,3.1s0.7,2.4,0.7,3.8c0,1.8-0.4,3.4-1.3,4.9
		s-2,2.6-3.5,3.5s-3.1,1.3-4.9,1.3c-1.7,0-3.3-0.4-4.8-1.3s-2.6-2-3.5-3.5s-1.3-3.1-1.3-4.8c0-1.7,0.4-3.4,1.3-4.8s2-2.7,3.5-3.5
		S208.2,64.1,209.9,64.1z M209.8,65.7c-1.4,0-2.7,0.4-3.9,1.1s-2.1,1.7-2.8,2.9s-1,2.6-1,4c0,1.4,0.3,2.7,1,3.9s1.6,2.2,2.8,2.9
		s2.5,1.1,3.9,1.1c1.5,0,2.8-0.3,4.1-1s2.2-1.7,2.9-2.9s1.1-2.6,1.1-4c0-1.5-0.4-2.9-1.1-4.1s-1.7-2.2-2.9-2.9
		S211.3,65.7,209.8,65.7z"/>
	<path fill="#FFFFFF" d="M242.5,52.8v30.2h-1.9V52.8H242.5z"/>
	<path fill="#FFFFFF" d="M251.8,64.5v2.9h0.1c0.5-1,1.3-1.8,2.3-2.4s2-0.9,3.2-0.9c1.5,0,2.8,0.3,3.7,0.9s1.5,1.5,1.9,2.6
		s0.5,2.5,0.5,4.2v11.2h-1.8V71.8c0-1.3-0.1-2.4-0.3-3.2s-0.6-1.5-1.3-2.1s-1.6-0.8-2.9-0.8c-1.4,0-2.6,0.4-3.4,1.2
		s-1.3,1.8-1.6,2.9s-0.4,2.5-0.4,4v9.1H250V64.5H251.8z"/>
	<path fill="#FFFFFF" d="M272.3,64.5v2.9h0.1c0.5-1,1.3-1.8,2.3-2.4s2-0.9,3.2-0.9c1.5,0,2.8,0.3,3.7,0.9s1.5,1.5,1.9,2.6
		s0.5,2.5,0.5,4.2v11.2h-1.8V71.8c0-1.3-0.1-2.4-0.3-3.2s-0.6-1.5-1.3-2.1s-1.6-0.8-2.9-0.8c-1.4,0-2.6,0.4-3.4,1.2
		s-1.3,1.8-1.6,2.9s-0.4,2.5-0.4,4v9.1h-1.8V64.5H272.3z"/>
	<path fill="#FFFFFF" d="M299.1,64.1c1.4,0,2.6,0.2,3.8,0.7s2.2,1.2,3.1,2s1.6,1.9,2.1,3.1s0.7,2.4,0.7,3.8c0,1.8-0.4,3.4-1.3,4.9
		s-2,2.6-3.5,3.5s-3.1,1.3-4.9,1.3c-1.7,0-3.3-0.4-4.8-1.3s-2.6-2-3.5-3.5s-1.3-3.1-1.3-4.8c0-1.7,0.4-3.4,1.3-4.8s2-2.7,3.5-3.5
		S297.3,64.1,299.1,64.1z M299,65.7c-1.4,0-2.7,0.4-3.9,1.1s-2.1,1.7-2.8,2.9s-1,2.6-1,4c0,1.4,0.3,2.7,1,3.9s1.6,2.2,2.8,2.9
		s2.5,1.1,3.9,1.1c1.5,0,2.8-0.3,4.1-1s2.2-1.7,2.9-2.9s1.1-2.6,1.1-4c0-1.5-0.4-2.9-1.1-4.1s-1.7-2.2-2.9-2.9S300.5,65.7,299,65.7z
		"/>
	<path fill="#FFFFFF" d="M312.9,64.5l6.7,15.2l6.6-15.2h1.8l-8.4,19.5l-8.5-19.5H312.9z"/>
	<path fill="#FFFFFF" d="M348.5,64.5v18.5h-1.8v-3.3h-0.1c-0.7,1.1-1.6,2-3,2.7s-2.7,1-4.1,1c-1.8,0-3.4-0.4-4.8-1.3s-2.5-2-3.2-3.5
		s-1.1-3.1-1.1-4.9c0-1.4,0.2-2.6,0.6-3.8s1-2.2,1.8-3s1.7-1.5,2.9-2s2.4-0.7,3.7-0.7c1.4,0,2.8,0.3,4.1,0.9s2.3,1.5,3.1,2.7h0.1
		v-3.2H348.5z M339.4,65.7c-1,0-2,0.2-2.9,0.6s-1.6,1-2.3,1.8s-1.1,1.6-1.5,2.5s-0.5,1.9-0.5,2.9c0,1.4,0.3,2.8,0.9,4s1.5,2.2,2.6,3
		s2.4,1.1,3.8,1.1c1.5,0,2.8-0.4,3.9-1.1s1.9-1.8,2.5-3s0.8-2.6,0.8-4.1c0-1.1-0.2-2-0.5-3s-0.8-1.8-1.5-2.4s-1.4-1.2-2.3-1.6
		S340.5,65.7,339.4,65.7z"/>
	<path fill="#FFFFFF" d="M357.6,66.1v16.8h-1.8V66.1h-2v-1.7h2v-6.6h1.8v6.6h3.2v1.7H357.6z"/>
	<path fill="#FFFFFF" d="M366.7,56.7c0.5,0,0.9,0.2,1.2,0.5s0.5,0.7,0.5,1.2c0,0.5-0.2,0.9-0.5,1.2s-0.7,0.5-1.2,0.5
		s-0.8-0.2-1.2-0.5s-0.5-0.7-0.5-1.2c0-0.4,0.2-0.8,0.5-1.1S366.2,56.7,366.7,56.7z M367.5,64.5v18.5h-1.8V64.5H367.5z"/>
	<path fill="#FFFFFF" d="M383,64.1c1.4,0,2.6,0.2,3.8,0.7s2.2,1.2,3.1,2s1.6,1.9,2.1,3.1s0.7,2.4,0.7,3.8c0,1.8-0.4,3.4-1.3,4.9
		s-2,2.6-3.5,3.5s-3.1,1.3-4.9,1.3c-1.7,0-3.3-0.4-4.8-1.3s-2.6-2-3.5-3.5s-1.3-3.1-1.3-4.8c0-1.7,0.4-3.4,1.3-4.8s2-2.7,3.5-3.5
		S381.2,64.1,383,64.1z M382.9,65.7c-1.4,0-2.7,0.4-3.9,1.1s-2.1,1.7-2.8,2.9s-1,2.6-1,4c0,1.4,0.3,2.7,1,3.9s1.6,2.2,2.8,2.9
		s2.5,1.1,3.9,1.1c1.5,0,2.8-0.3,4.1-1s2.2-1.7,2.9-2.9s1.1-2.6,1.1-4c0-1.5-0.4-2.9-1.1-4.1s-1.7-2.2-2.9-2.9
		S384.4,65.7,382.9,65.7z"/>
	<path fill="#FFFFFF" d="M400.2,64.5v2.9h0.1c0.5-1,1.3-1.8,2.3-2.4s2-0.9,3.2-0.9c1.5,0,2.8,0.3,3.7,0.9s1.5,1.5,1.9,2.6
		s0.5,2.5,0.5,4.2v11.2H410V71.8c0-1.3-0.1-2.4-0.3-3.2s-0.6-1.5-1.3-2.1s-1.6-0.8-2.9-0.8c-1.4,0-2.6,0.4-3.4,1.2s-1.3,1.8-1.6,2.9
		s-0.4,2.5-0.4,4v9.1h-1.8V64.5H400.2z"/>
	<path fill="#FFFFFF" d="M420.9,80.1c0.5,0,0.9,0.2,1.2,0.5s0.5,0.7,0.5,1.2s-0.2,0.9-0.5,1.2s-0.7,0.5-1.2,0.5s-0.8-0.2-1.2-0.5
		s-0.5-0.7-0.5-1.2s0.2-0.8,0.5-1.2S420.5,80.1,420.9,80.1z"/>
</g>
</svg>
