<svg xmlns="http://www.w3.org/2000/svg" width="182" height="51" viewBox="0 0 182 51">
  <defs>
    <style>
      .cls-1 {
        fill-rule: evenodd;
      }
    </style>
  </defs>
  <path id="pc_clineque_logo.svg" class="cls-1" d="M743.746,74.992V76.1H925V74.992H743.746Zm0,49.907v1.109H925V124.9H743.746Zm119.473-9.853c7.984-3.257,10.83-7.485,10.83-15.8,0-10.189-4.235-15.18-15.2-15.18-9.3,0-14.717,5.268-14.717,14.764,0,8.525,3.054,13.932,9.163,16.012,2.221,0.762,4.79,0,9.441,2.7,7.081,4.089,7.081,4.159,8.886,4.159,1.041,0,1.6-.416,1.6-0.971,0-1.04-2.013,0-4.512-3.05-0.9-1.109-2.43-1.94-5.068-2.564l-0.416-.07h0Zm-4.156-28.837c6.664,0,10.2,4.852,10.2,13.516,0,8.8-3.123,13.725-10.135,13.725-6.317,0-10.343-4.714-10.343-13.655,0-8.664,3.956-13.586,10.274-13.586h0Zm-91.558-1.514a77.494,77.494,0,0,0-10.621-.9c-9.025,0-13.884,5.337-13.884,15.457,0,10.743,5.831,16.289,16.175,16.289,3.054,0,5.692-.416,7.011-1.178,1.527-.832,2.36-3.812,2.36-4.089,0-.486-0.069-0.624-0.208-0.624-0.417,0-3.749,3.6-8.955,3.6-6.873,0-10.968-5.129-10.968-13.932,0-8.595,3.887-13.17,11.107-13.17,6.108,0,7.428,2.426,8.122,2.426,0.208,0,.277-0.069.277-0.208,0-.416-0.347-2.218-0.416-3.327V84.695h0Zm36.089-.013c1.18,5.2,1.319,6.238,1.319,15.942,0,5.961-.139,11.091-0.278,14.972v0.416h4.582c-1.736-2.218-1.8-2.5-1.8-4.921l0.555-19.755,18.119,24.676h2.707l-0.347-31.33h-4.1c1.6,2.01,1.666,2.149,1.736,4.852l-0.9,16.913L809.217,84.682h-5.623Zm74.008,0c0.833,10.259.833,10.259,0.833,13.516,0,2.772-.139,4.782-0.139,6.793,0,8.317,2.847,11.713,11.524,11.713,9.857,0,11.662-3.4,11.662-12.545V84.679h-4.3a9.585,9.585,0,0,1,1.458,4.783l-0.277,10.951c0,12.963-2.083,14-7.845,14-7.358,0-7.428-4.436-7.428-14.14,0-2.911.278-10.813,0.764-15.319V84.679H877.6Zm27.976,0.007a109.577,109.577,0,0,1,.972,16.081c0,3.743,0,3.743-.9,14.7v0.277c3.887-.346,6.248-0.485,8.191-0.485,3.471,0,5.554.485,7.428,0.485,2.569,0,3.61-.693,3.61-4.367V111.1a5.758,5.758,0,0,1-4.721,2.357,47.124,47.124,0,0,1-8.816-1.109l-0.347-.07,0.416-11.575H923.7a4.8,4.8,0,0,1-.138-1.248,6.014,6.014,0,0,1,.069-1.04l0.069-.277H911.409V87.806c4.235-.277,9.233-0.762,10.621-0.762,0.833,0,.9.069,2.569,1.455l0.138,0.139-0.485-3.951H905.578Zm-134.056,0a139.914,139.914,0,0,1,.972,19.131c0,3.673-.139,6.723-0.417,11.922v0.277c3.194-.208,4.929-0.347,7.081-0.347,3.4,0,3.61.278,6.248,0.278a5.469,5.469,0,0,0,3.332-.763,7.345,7.345,0,0,0,1.319-3.465c0-.486-0.208-0.555-0.347-0.555-0.486,0-1.319,2.426-4.234,2.426-2.43,0-3.888-.693-7.567-0.693h-0.417c0-13.724,0-20.794.348-27.934V84.682h-6.318Zm21.041,0c0.625,8.179.764,10.952,0.764,17.4,0,5.476-.069,7-0.417,13.655v0.277h5.415c-0.278-5.961-.347-9.842-0.347-16.566,0-2.01,0-2.01.417-14.487V84.682h-5.832Zm42.265,0c0.624,7.625.763,11.091,0.763,17.19,0,5.475-.139,10.466-0.416,13.863v0.277h5.414c-0.208-6.1-.347-10.327-0.347-16.427,0-1.872,0-1.941.417-14.625V84.682h-5.831Z" transform="translate(-743 -75)"/>
</svg>
