<svg xmlns="http://www.w3.org/2000/svg" width="320" height="89.938" viewBox="0 0 320 89.938">
  <defs>
    <style>
      .cls-1 {
        fill-rule: evenodd;
      }
    </style>
  </defs>
  <path id="sp_clineque_logo.svg" class="cls-1" d="M141.312,155.018v1.955H460v-1.955H141.312Zm0,88.009v1.955H460v-1.955H141.312Zm210.062-17.375c14.037-5.745,19.041-13.2,19.041-27.869,0-17.968-7.445-26.77-26.73-26.77-16.356,0-25.876,9.29-25.876,26.036,0,15.035,5.37,24.569,16.111,28.237,3.906,1.344,8.422,0,16.6,4.767,12.45,7.211,12.45,7.334,15.623,7.334,1.83,0,2.807-.734,2.807-1.711,0-1.834-3.539,0-7.934-5.379-1.587-1.956-4.272-3.422-8.91-4.522l-0.732-.123h0ZM344.066,174.8c11.717,0,17.942,8.556,17.942,23.835,0,15.524-5.492,24.2-17.82,24.2-11.107,0-18.186-8.312-18.186-24.08,0-15.279,6.957-23.958,18.064-23.958h0Zm-160.98-2.671a135.972,135.972,0,0,0-18.675-1.589c-15.867,0-24.411,9.413-24.411,27.259,0,18.946,10.252,28.725,28.439,28.725,5.37,0,10.008-.734,12.327-2.078,2.686-1.467,4.15-6.723,4.15-7.212,0-.856-0.122-1.1-0.366-1.1-0.732,0-6.591,6.357-15.745,6.357-12.084,0-19.285-9.045-19.285-24.569,0-15.157,6.835-23.225,19.529-23.225,10.741,0,13.06,4.278,14.28,4.278,0.367,0,.488-0.122.488-0.366,0-.734-0.61-3.912-0.732-5.868v-0.611h0Zm63.452-.022c2.075,9.168,2.319,11,2.319,28.114,0,10.512-.244,19.558-0.488,26.4v0.734h8.056c-3.051-3.912-3.174-4.4-3.174-8.679l0.977-34.836,31.857,43.515h4.76l-0.61-55.25h-7.2c2.808,3.545,2.93,3.79,3.052,8.557L284.5,210.487l-28.073-38.382h-9.887Zm130.125,0c1.465,18.091,1.465,18.091,1.465,23.836,0,4.89-.245,8.434-0.245,11.98,0,14.667,5,20.657,20.262,20.657,17.332,0,20.5-5.99,20.5-22.125V172.1h-7.567c1.586,3.179,2.563,5.134,2.563,8.434l-0.488,19.313c0,22.859-3.662,24.692-13.792,24.692-12.938,0-13.061-7.823-13.061-24.936,0-5.133.489-19.069,1.343-27.014V172.1H376.663Zm49.189,0.013c1.464,13.079,1.708,16.5,1.708,28.358,0,6.6,0,6.6-1.586,25.914v0.489c6.835-.611,10.985-0.855,14.4-0.855,6.1,0,9.765.855,13.06,0.855,4.517,0,6.348-1.222,6.348-7.7v-0.489c-2.2,2.567-4.517,4.156-8.3,4.156a82.66,82.66,0,0,1-15.5-1.955l-0.61-.123,0.732-20.413h21.6a8.431,8.431,0,0,1-.244-2.2,10.574,10.574,0,0,1,.122-1.833l0.121-.489H436.1V177.614c7.446-.489,16.234-1.345,18.676-1.345,1.464,0,1.586.122,4.515,2.567l0.244,0.245-0.854-6.968H425.852Zm-235.7-.008c1.1,9.412,1.708,16.5,1.708,33.737,0,6.478-.244,11.857-0.732,21.024v0.489c5.615-.366,8.666-0.611,12.45-0.611,5.981,0,6.347.489,10.985,0.489,3.662,0,5.493-.978,5.859-1.345a12.984,12.984,0,0,0,2.319-6.111c0-.856-0.367-0.978-0.611-0.978-0.854,0-2.318,4.278-7.445,4.278-4.272,0-6.835-1.222-13.3-1.222h-0.732c0-24.2,0-36.671.61-49.261v-0.489H190.149Zm37,0c1.1,14.424,1.343,19.314,1.343,30.681,0,9.657-.122,12.345-0.732,24.081v0.488h9.52c-0.488-10.512-.61-17.357-0.61-29.213,0-3.546,0-3.546.732-25.548v-0.488H227.144Zm74.311,0c1.1,13.446,1.343,19.558,1.343,30.314,0,9.656-.245,18.458-0.733,24.448v0.488h9.521c-0.366-10.756-.61-18.212-0.61-28.969,0-3.3,0-3.423.732-25.792v-0.488H301.455Z" transform="translate(-140 -155.031)"/>
</svg>
